<svg width="393" height="852" viewBox="0 0 393 852" fill="none" xmlns="http://www.w3.org/2000/svg">
<g clip-path="url(#clip0_1_5032)">
<rect width="393" height="852" fill="#120715"/>
<rect y="772" width="393" height="80" fill="#7D1797" fill-opacity="0.9"/>
<g filter="url(#filter0_d_1_5032)">
<path d="M91.7372 53.7656H87.3821C87.3026 53.2022 87.1402 52.7017 86.8949 52.2642C86.6496 51.8201 86.3348 51.4422 85.9503 51.1307C85.5658 50.8191 85.1217 50.5805 84.6179 50.4148C84.1207 50.2491 83.5805 50.1662 82.9972 50.1662C81.9432 50.1662 81.0251 50.428 80.2429 50.9517C79.4607 51.4687 78.8542 52.2244 78.4233 53.2188C77.9924 54.2064 77.777 55.4062 77.777 56.8182C77.777 58.2699 77.9924 59.4896 78.4233 60.4773C78.8608 61.465 79.4706 62.2107 80.2528 62.7145C81.035 63.2183 81.9399 63.4702 82.9673 63.4702C83.544 63.4702 84.0777 63.3939 84.5682 63.2415C85.0653 63.089 85.5062 62.867 85.8906 62.5753C86.2751 62.277 86.5933 61.9157 86.8452 61.4915C87.1037 61.0672 87.2827 60.5833 87.3821 60.0398L91.7372 60.0597C91.6245 60.9943 91.3428 61.8958 90.892 62.7642C90.4479 63.6259 89.848 64.3982 89.0923 65.081C88.3433 65.7571 87.4484 66.294 86.4077 66.6918C85.3736 67.0829 84.2036 67.2784 82.8977 67.2784C81.0814 67.2784 79.4574 66.8674 78.0256 66.0455C76.6004 65.2235 75.4735 64.0336 74.6449 62.4759C73.8229 60.9181 73.4119 59.0322 73.4119 56.8182C73.4119 54.5975 73.8295 52.7083 74.6648 51.1506C75.5 49.5928 76.6335 48.4062 78.0653 47.5909C79.4972 46.7689 81.108 46.358 82.8977 46.358C84.0777 46.358 85.1714 46.5237 86.179 46.8551C87.1932 47.1866 88.0914 47.6705 88.8736 48.3068C89.6558 48.9366 90.2921 49.7088 90.7827 50.6236C91.2798 51.5384 91.598 52.5857 91.7372 53.7656ZM101.646 67.2983C100.101 67.2983 98.7654 66.9702 97.6385 66.3139C96.5182 65.651 95.6532 64.7296 95.0433 63.5497C94.4335 62.3632 94.1286 60.9877 94.1286 59.4233C94.1286 57.8456 94.4335 56.4669 95.0433 55.2869C95.6532 54.1004 96.5182 53.179 97.6385 52.5227C98.7654 51.8598 100.101 51.5284 101.646 51.5284C103.19 51.5284 104.522 51.8598 105.643 52.5227C106.77 53.179 107.638 54.1004 108.248 55.2869C108.858 56.4669 109.163 57.8456 109.163 59.4233C109.163 60.9877 108.858 62.3632 108.248 63.5497C107.638 64.7296 106.77 65.651 105.643 66.3139C104.522 66.9702 103.19 67.2983 101.646 67.2983ZM101.665 64.017C102.368 64.017 102.955 63.8182 103.425 63.4205C103.896 63.0161 104.251 62.4659 104.489 61.7699C104.735 61.0739 104.857 60.2817 104.857 59.3935C104.857 58.5052 104.735 57.7131 104.489 57.017C104.251 56.321 103.896 55.7708 103.425 55.3665C102.955 54.9621 102.368 54.7599 101.665 54.7599C100.956 54.7599 100.36 54.9621 99.8757 55.3665C99.3984 55.7708 99.0372 56.321 98.7919 57.017C98.5533 57.7131 98.4339 58.5052 98.4339 59.3935C98.4339 60.2817 98.5533 61.0739 98.7919 61.7699C99.0372 62.4659 99.3984 63.0161 99.8757 63.4205C100.36 63.8182 100.956 64.017 101.665 64.017ZM116.153 46.6364V67H111.917V46.6364H116.153ZM123.782 46.6364V67H119.546V46.6364H123.782ZM134.135 67.2983C132.564 67.2983 131.212 66.9801 130.078 66.3438C128.951 65.7008 128.083 64.7926 127.473 63.6193C126.863 62.4394 126.558 61.044 126.558 59.4332C126.558 57.8622 126.863 56.4834 127.473 55.2969C128.083 54.1103 128.941 53.1856 130.048 52.5227C131.162 51.8598 132.468 51.5284 133.966 51.5284C134.973 51.5284 135.911 51.6908 136.78 52.0156C137.655 52.3338 138.417 52.8144 139.067 53.4574C139.723 54.1004 140.233 54.9091 140.598 55.8835C140.963 56.8513 141.145 57.9848 141.145 59.2841V60.4474H128.249V57.8224H137.158C137.158 57.2126 137.025 56.6723 136.76 56.2017C136.495 55.7311 136.127 55.3632 135.656 55.098C135.192 54.8262 134.652 54.6903 134.036 54.6903C133.393 54.6903 132.822 54.8395 132.325 55.1378C131.835 55.4295 131.45 55.8239 131.172 56.321C130.893 56.8116 130.751 57.3584 130.744 57.9616V60.4574C130.744 61.2131 130.884 61.866 131.162 62.4162C131.447 62.9664 131.848 63.3906 132.365 63.6889C132.882 63.9872 133.495 64.1364 134.205 64.1364C134.675 64.1364 135.106 64.0701 135.497 63.9375C135.888 63.8049 136.223 63.6061 136.501 63.3409C136.78 63.0758 136.992 62.7509 137.138 62.3665L141.055 62.625C140.857 63.5663 140.449 64.3883 139.832 65.0909C139.223 65.7869 138.434 66.3305 137.466 66.7216C136.505 67.1061 135.394 67.2983 134.135 67.2983ZM150.81 67.2983C149.245 67.2983 147.9 66.9669 146.773 66.304C145.652 65.6345 144.791 64.7064 144.188 63.5199C143.591 62.3333 143.293 60.9678 143.293 59.4233C143.293 57.8589 143.594 56.4867 144.197 55.3068C144.807 54.1203 145.672 53.1955 146.793 52.5327C147.913 51.8632 149.245 51.5284 150.79 51.5284C152.122 51.5284 153.289 51.7704 154.29 52.2543C155.291 52.7382 156.083 53.4176 156.666 54.2926C157.25 55.1676 157.571 56.1951 157.631 57.375H153.634C153.521 56.6127 153.223 55.9995 152.739 55.5355C152.261 55.0649 151.635 54.8295 150.859 54.8295C150.203 54.8295 149.63 55.0085 149.139 55.3665C148.655 55.7178 148.277 56.2315 148.006 56.9077C147.734 57.5838 147.598 58.4025 147.598 59.3636C147.598 60.3381 147.731 61.1667 147.996 61.8494C148.268 62.5322 148.649 63.0526 149.139 63.4105C149.63 63.7685 150.203 63.9474 150.859 63.9474C151.343 63.9474 151.777 63.848 152.162 63.6491C152.553 63.4503 152.875 63.1619 153.126 62.7841C153.385 62.3996 153.554 61.9389 153.634 61.402H157.631C157.564 62.5687 157.246 63.5961 156.676 64.4844C156.113 65.366 155.334 66.0554 154.339 66.5526C153.345 67.0497 152.169 67.2983 150.81 67.2983ZM168.466 51.7273V54.9091H159.269V51.7273H168.466ZM161.357 48.0682H165.593V62.3068C165.593 62.6979 165.652 63.0028 165.772 63.2216C165.891 63.4337 166.057 63.5829 166.269 63.669C166.488 63.7552 166.739 63.7983 167.025 63.7983C167.223 63.7983 167.422 63.7817 167.621 63.7486C167.82 63.7088 167.972 63.679 168.078 63.6591L168.745 66.8111C168.533 66.8774 168.234 66.9536 167.85 67.0398C167.465 67.1326 166.998 67.1889 166.448 67.2088C165.427 67.2486 164.532 67.1127 163.763 66.8011C163.001 66.4896 162.408 66.0057 161.983 65.3494C161.559 64.6932 161.35 63.8646 161.357 62.8636V48.0682ZM171.225 67V51.7273H175.461V67H171.225ZM173.353 49.7585C172.724 49.7585 172.183 49.5497 171.733 49.1321C171.288 48.7079 171.066 48.2008 171.066 47.6108C171.066 47.0275 171.288 46.527 171.733 46.1094C172.183 45.6851 172.724 45.473 173.353 45.473C173.983 45.473 174.52 45.6851 174.964 46.1094C175.415 46.527 175.64 47.0275 175.64 47.6108C175.64 48.2008 175.415 48.7079 174.964 49.1321C174.52 49.5497 173.983 49.7585 173.353 49.7585ZM185.755 67.2983C184.21 67.2983 182.875 66.9702 181.748 66.3139C180.628 65.651 179.763 64.7296 179.153 63.5497C178.543 62.3632 178.238 60.9877 178.238 59.4233C178.238 57.8456 178.543 56.4669 179.153 55.2869C179.763 54.1004 180.628 53.179 181.748 52.5227C182.875 51.8598 184.21 51.5284 185.755 51.5284C187.299 51.5284 188.632 51.8598 189.752 52.5227C190.879 53.179 191.747 54.1004 192.357 55.2869C192.967 56.4669 193.272 57.8456 193.272 59.4233C193.272 60.9877 192.967 62.3632 192.357 63.5497C191.747 64.7296 190.879 65.651 189.752 66.3139C188.632 66.9702 187.299 67.2983 185.755 67.2983ZM185.775 64.017C186.478 64.017 187.064 63.8182 187.535 63.4205C188.005 63.0161 188.36 62.4659 188.599 61.7699C188.844 61.0739 188.967 60.2817 188.967 59.3935C188.967 58.5052 188.844 57.7131 188.599 57.017C188.36 56.321 188.005 55.7708 187.535 55.3665C187.064 54.9621 186.478 54.7599 185.775 54.7599C185.066 54.7599 184.469 54.9621 183.985 55.3665C183.508 55.7708 183.147 56.321 182.901 57.017C182.663 57.7131 182.543 58.5052 182.543 59.3935C182.543 60.2817 182.663 61.0739 182.901 61.7699C183.147 62.4659 183.508 63.0161 183.985 63.4205C184.469 63.8182 185.066 64.017 185.775 64.017ZM200.262 58.1705V67H196.026V51.7273H200.063V54.4219H200.242C200.58 53.5336 201.147 52.831 201.942 52.3139C202.738 51.7902 203.702 51.5284 204.836 51.5284C205.897 51.5284 206.821 51.7604 207.61 52.2244C208.399 52.6884 209.012 53.3513 209.45 54.2131C209.887 55.0682 210.106 56.089 210.106 57.2756V67H205.87V58.0312C205.877 57.0966 205.638 56.3674 205.154 55.8438C204.67 55.3134 204.004 55.0483 203.156 55.0483C202.585 55.0483 202.082 55.1709 201.644 55.4162C201.213 55.6615 200.875 56.0194 200.63 56.4901C200.391 56.9541 200.269 57.5142 200.262 58.1705ZM220.404 67.2983C218.833 67.2983 217.481 66.9801 216.348 66.3438C215.221 65.7008 214.352 64.7926 213.743 63.6193C213.133 62.4394 212.828 61.044 212.828 59.4332C212.828 57.8622 213.133 56.4834 213.743 55.2969C214.352 54.1103 215.211 53.1856 216.318 52.5227C217.431 51.8598 218.737 51.5284 220.235 51.5284C221.243 51.5284 222.181 51.6908 223.049 52.0156C223.924 52.3338 224.687 52.8144 225.336 53.4574C225.993 54.1004 226.503 54.9091 226.868 55.8835C227.232 56.8513 227.414 57.9848 227.414 59.2841V60.4474H214.518V57.8224H223.427C223.427 57.2126 223.295 56.6723 223.029 56.2017C222.764 55.7311 222.396 55.3632 221.926 55.098C221.462 54.8262 220.922 54.6903 220.305 54.6903C219.662 54.6903 219.092 54.8395 218.595 55.1378C218.104 55.4295 217.72 55.8239 217.441 56.321C217.163 56.8116 217.02 57.3584 217.014 57.9616V60.4574C217.014 61.2131 217.153 61.866 217.431 62.4162C217.717 62.9664 218.118 63.3906 218.635 63.6889C219.152 63.9872 219.765 64.1364 220.474 64.1364C220.945 64.1364 221.376 64.0701 221.767 63.9375C222.158 63.8049 222.493 63.6061 222.771 63.3409C223.049 63.0758 223.261 62.7509 223.407 62.3665L227.325 62.625C227.126 63.5663 226.718 64.3883 226.102 65.0909C225.492 65.7869 224.703 66.3305 223.735 66.7216C222.774 67.1061 221.664 67.2983 220.404 67.2983ZM239.973 60.4972V51.7273H244.208V67H240.142V64.2259H239.983C239.638 65.1207 239.065 65.84 238.262 66.3835C237.467 66.9271 236.496 67.1989 235.349 67.1989C234.328 67.1989 233.43 66.9669 232.654 66.5028C231.879 66.0388 231.272 65.3793 230.835 64.5241C230.404 63.669 230.185 62.6449 230.179 61.4517V51.7273H234.414V60.696C234.421 61.5975 234.663 62.3101 235.14 62.8338C235.618 63.3575 236.257 63.6193 237.059 63.6193C237.57 63.6193 238.047 63.5033 238.491 63.2713C238.935 63.0327 239.293 62.6813 239.565 62.2173C239.843 61.7533 239.979 61.1799 239.973 60.4972ZM247.597 67V51.7273H251.703V54.392H251.862C252.141 53.4441 252.608 52.7282 253.264 52.2443C253.92 51.7538 254.676 51.5085 255.531 51.5085C255.743 51.5085 255.972 51.5218 256.217 51.5483C256.463 51.5748 256.678 51.6113 256.864 51.6577V55.4162C256.665 55.3565 256.39 55.3035 256.038 55.2571C255.687 55.2107 255.366 55.1875 255.074 55.1875C254.451 55.1875 253.894 55.3234 253.403 55.5952C252.92 55.8603 252.535 56.2315 252.25 56.7088C251.972 57.1861 251.832 57.7363 251.832 58.3594V67H247.597ZM269.124 67H264.51L271.54 46.6364H277.088L284.108 67H279.494L274.393 51.2898H274.234L269.124 67ZM268.835 58.9957H279.733V62.3565H268.835V58.9957ZM286.479 72.7273V51.7273H290.656V54.2926H290.844C291.03 53.8816 291.299 53.464 291.65 53.0398C292.008 52.6089 292.472 52.2509 293.042 51.9659C293.619 51.6742 294.335 51.5284 295.19 51.5284C296.303 51.5284 297.331 51.8201 298.272 52.4034C299.213 52.9801 299.966 53.8518 300.529 55.0185C301.093 56.1785 301.374 57.6335 301.374 59.3835C301.374 61.0871 301.099 62.5256 300.549 63.6989C300.005 64.8655 299.263 65.7505 298.322 66.3537C297.387 66.9503 296.34 67.2486 295.18 67.2486C294.358 67.2486 293.658 67.1127 293.082 66.8409C292.512 66.5691 292.044 66.2277 291.68 65.8168C291.315 65.3991 291.037 64.9782 290.844 64.554H290.715V72.7273H286.479ZM290.626 59.3636C290.626 60.2718 290.752 61.0639 291.004 61.7401C291.255 62.4162 291.62 62.9432 292.097 63.321C292.575 63.6922 293.155 63.8778 293.837 63.8778C294.527 63.8778 295.11 63.6889 295.587 63.3111C296.065 62.9266 296.426 62.3963 296.671 61.7202C296.923 61.0374 297.049 60.2519 297.049 59.3636C297.049 58.482 296.926 57.7064 296.681 57.0369C296.436 56.3674 296.075 55.8437 295.597 55.4659C295.12 55.0881 294.533 54.8991 293.837 54.8991C293.148 54.8991 292.565 55.0814 292.087 55.446C291.617 55.8106 291.255 56.3277 291.004 56.9972C290.752 57.6667 290.626 58.4555 290.626 59.3636ZM304.198 72.7273V51.7273H308.374V54.2926H308.563C308.749 53.8816 309.017 53.464 309.369 53.0398C309.727 52.6089 310.191 52.2509 310.761 51.9659C311.337 51.6742 312.053 51.5284 312.908 51.5284C314.022 51.5284 315.049 51.8201 315.991 52.4034C316.932 52.9801 317.684 53.8518 318.248 55.0185C318.811 56.1785 319.093 57.6335 319.093 59.3835C319.093 61.0871 318.818 62.5256 318.268 63.6989C317.724 64.8655 316.982 65.7505 316.04 66.3537C315.106 66.9503 314.058 67.2486 312.898 67.2486C312.076 67.2486 311.377 67.1127 310.8 66.8409C310.23 66.5691 309.763 66.2277 309.398 65.8168C309.034 65.3991 308.755 64.9782 308.563 64.554H308.434V72.7273H304.198ZM308.344 59.3636C308.344 60.2718 308.47 61.0639 308.722 61.7401C308.974 62.4162 309.339 62.9432 309.816 63.321C310.293 63.6922 310.873 63.8778 311.556 63.8778C312.246 63.8778 312.829 63.6889 313.306 63.3111C313.783 62.9266 314.145 62.3963 314.39 61.7202C314.642 61.0374 314.768 60.2519 314.768 59.3636C314.768 58.482 314.645 57.7064 314.4 57.0369C314.155 56.3674 313.793 55.8437 313.316 55.4659C312.839 55.0881 312.252 54.8991 311.556 54.8991C310.867 54.8991 310.283 55.0814 309.806 55.446C309.335 55.8106 308.974 56.3277 308.722 56.9972C308.47 57.6667 308.344 58.4555 308.344 59.3636Z" fill="#EDDEF1"/>
</g>
<g filter="url(#filter1_d_1_5032)">
<rect x="13" y="86" width="300" height="48" rx="24" fill="#7D1797"/>
<rect x="13.5" y="86.5" width="299" height="47" rx="23.5" stroke="black"/>
</g>
<circle cx="345" cy="110" r="24" fill="#7D1797"/>
<path d="M32.2056 818H29.4045L33.6726 805.636H37.0412L41.3033 818H38.5021L35.4052 808.462H35.3086L32.2056 818ZM32.0305 813.14H38.647V815.181H32.0305V813.14ZM46.5011 818.181C45.5513 818.181 44.7343 817.98 44.0501 817.577C43.3699 817.171 42.8467 816.607 42.4805 815.887C42.1183 815.167 41.9371 814.338 41.9371 813.4C41.9371 812.45 42.1203 811.617 42.4865 810.901C42.8568 810.18 43.382 809.619 44.0621 809.216C44.7423 808.81 45.5513 808.607 46.489 808.607C47.2979 808.607 48.0063 808.753 48.614 809.047C49.2217 809.341 49.7027 809.754 50.0568 810.285C50.411 810.816 50.6062 811.44 50.6424 812.156H48.2156C48.1471 811.693 47.966 811.321 47.6722 811.039C47.3825 810.754 47.0021 810.611 46.5312 810.611C46.1328 810.611 45.7847 810.719 45.4869 810.937C45.1931 811.15 44.9637 811.462 44.7987 811.873C44.6336 812.283 44.5511 812.78 44.5511 813.364C44.5511 813.955 44.6316 814.458 44.7926 814.873C44.9576 815.287 45.189 815.603 45.4869 815.821C45.7847 816.038 46.1328 816.147 46.5312 816.147C46.825 816.147 47.0887 816.086 47.3221 815.966C47.5595 815.845 47.7547 815.67 47.9077 815.44C48.0646 815.207 48.1673 814.927 48.2156 814.601H50.6424C50.6022 815.31 50.409 815.933 50.0629 816.473C49.7208 817.008 49.2479 817.426 48.6442 817.728C48.0405 818.03 47.3261 818.181 46.5011 818.181ZM56.4786 818.181C55.5288 818.181 54.7118 817.98 54.0276 817.577C53.3474 817.171 52.8242 816.607 52.458 815.887C52.0958 815.167 51.9147 814.338 51.9147 813.4C51.9147 812.45 52.0978 811.617 52.464 810.901C52.8343 810.18 53.3595 809.619 54.0397 809.216C54.7198 808.81 55.5288 808.607 56.4665 808.607C57.2755 808.607 57.9838 808.753 58.5915 809.047C59.1992 809.341 59.6802 809.754 60.0344 810.285C60.3885 810.816 60.5837 811.44 60.6199 812.156H58.1931C58.1247 811.693 57.9436 811.321 57.6498 811.039C57.36 810.754 56.9797 810.611 56.5088 810.611C56.1104 810.611 55.7622 810.719 55.4644 810.937C55.1706 811.15 54.9412 811.462 54.7762 811.873C54.6112 812.283 54.5287 812.78 54.5287 813.364C54.5287 813.955 54.6092 814.458 54.7702 814.873C54.9352 815.287 55.1666 815.603 55.4644 815.821C55.7622 816.038 56.1104 816.147 56.5088 816.147C56.8026 816.147 57.0662 816.086 57.2996 815.966C57.5371 815.845 57.7323 815.67 57.8852 815.44C58.0422 815.207 58.1448 814.927 58.1931 814.601H60.6199C60.5797 815.31 60.3865 815.933 60.0404 816.473C59.6983 817.008 59.2254 817.426 58.6217 817.728C58.018 818.03 57.3037 818.181 56.4786 818.181ZM68.2129 814.052V808.727H70.7846V818H68.3155V816.316H68.2189C68.0096 816.859 67.6615 817.296 67.1745 817.626C66.6916 817.956 66.102 818.121 65.4057 818.121C64.7859 818.121 64.2406 817.98 63.7697 817.698C63.2988 817.416 62.9306 817.016 62.665 816.497C62.4033 815.978 62.2705 815.356 62.2665 814.631V808.727H64.8382V814.173C64.8423 814.72 64.9892 815.153 65.2789 815.471C65.5687 815.788 65.9571 815.947 66.4441 815.947C66.754 815.947 67.0437 815.877 67.3134 815.736C67.583 815.591 67.8004 815.378 67.9654 815.096C68.1344 814.815 68.2169 814.466 68.2129 814.052ZM77.0676 818.181C76.1137 818.181 75.2927 817.988 74.6045 817.602C73.9203 817.211 73.3931 816.66 73.0228 815.947C72.6526 815.231 72.4674 814.384 72.4674 813.406C72.4674 812.452 72.6526 811.615 73.0228 810.895C73.3931 810.174 73.9143 809.613 74.5864 809.21C75.2625 808.808 76.0554 808.607 76.9649 808.607C77.5767 808.607 78.1462 808.705 78.6734 808.902C79.2046 809.096 79.6675 809.387 80.0619 809.778C80.4603 810.168 80.7702 810.659 80.9916 811.251C81.2129 811.838 81.3236 812.527 81.3236 813.315V814.022H73.4937V812.428H78.9028C78.9028 812.058 78.8223 811.73 78.6613 811.444C78.5003 811.158 78.277 810.935 77.9912 810.774C77.7095 810.609 77.3815 810.526 77.0072 810.526C76.6168 810.526 76.2707 810.617 75.9688 810.798C75.671 810.975 75.4376 811.214 75.2686 811.516C75.0995 811.814 75.013 812.146 75.009 812.512V814.028C75.009 814.487 75.0935 814.883 75.2625 815.217C75.4356 815.551 75.6791 815.809 75.993 815.99C76.3069 816.171 76.6792 816.261 77.1098 816.261C77.3956 816.261 77.6572 816.221 77.8946 816.141C78.1321 816.06 78.3353 815.939 78.5044 815.778C78.6734 815.617 78.8022 815.42 78.8907 815.187L81.2693 815.344C81.1485 815.915 80.901 816.414 80.5267 816.841C80.1565 817.263 79.6775 817.594 79.0899 817.831C78.5064 818.064 77.8322 818.181 77.0676 818.181ZM83.0019 818V808.727H85.5736V818H83.0019ZM84.2938 807.532C83.9114 807.532 83.5834 807.405 83.3097 807.152C83.0401 806.894 82.9053 806.586 82.9053 806.228C82.9053 805.874 83.0401 805.57 83.3097 805.316C83.5834 805.059 83.9114 804.93 84.2938 804.93C84.6761 804.93 85.0021 805.059 85.2718 805.316C85.5454 805.57 85.6823 805.874 85.6823 806.228C85.6823 806.586 85.5454 806.894 85.2718 807.152C85.0021 807.405 84.6761 807.532 84.2938 807.532ZM90.2054 805.636V818H87.6337V805.636H90.2054Z" fill="#CA3AEF"/>
<path d="M125.446 810.5H123.949C123.86 810.069 123.705 809.691 123.484 809.365C123.267 809.039 123.001 808.765 122.687 808.544C122.377 808.319 122.033 808.15 121.655 808.037C121.277 807.924 120.882 807.868 120.472 807.868C119.723 807.868 119.045 808.057 118.437 808.435C117.833 808.814 117.353 809.371 116.994 810.108C116.64 810.844 116.463 811.748 116.463 812.818C116.463 813.889 116.64 814.792 116.994 815.529C117.353 816.265 117.833 816.823 118.437 817.201C119.045 817.579 119.723 817.768 120.472 817.768C120.882 817.768 121.277 817.712 121.655 817.599C122.033 817.487 122.377 817.32 122.687 817.098C123.001 816.873 123.267 816.597 123.484 816.271C123.705 815.941 123.86 815.563 123.949 815.136H125.446C125.333 815.768 125.128 816.334 124.83 816.833C124.532 817.332 124.162 817.756 123.719 818.107C123.277 818.453 122.78 818.716 122.228 818.897C121.681 819.078 121.095 819.169 120.472 819.169C119.417 819.169 118.479 818.911 117.658 818.396C116.837 817.881 116.191 817.149 115.721 816.199C115.25 815.249 115.014 814.122 115.014 812.818C115.014 811.514 115.25 810.387 115.721 809.438C116.191 808.488 116.837 807.755 117.658 807.24C118.479 806.725 119.417 806.467 120.472 806.467C121.095 806.467 121.681 806.558 122.228 806.739C122.78 806.92 123.277 807.186 123.719 807.536C124.162 807.882 124.532 808.305 124.83 808.804C125.128 809.299 125.333 809.864 125.446 810.5ZM131.439 819.193C130.602 819.193 129.868 818.994 129.236 818.596C128.608 818.197 128.117 817.64 127.763 816.923C127.413 816.207 127.237 815.37 127.237 814.412C127.237 813.446 127.413 812.603 127.763 811.882C128.117 811.162 128.608 810.603 129.236 810.204C129.868 809.806 130.602 809.607 131.439 809.607C132.276 809.607 133.009 809.806 133.637 810.204C134.268 810.603 134.759 811.162 135.11 811.882C135.464 812.603 135.641 813.446 135.641 814.412C135.641 815.37 135.464 816.207 135.11 816.923C134.759 817.64 134.268 818.197 133.637 818.596C133.009 818.994 132.276 819.193 131.439 819.193ZM131.439 817.913C132.075 817.913 132.598 817.75 133.009 817.424C133.419 817.098 133.723 816.67 133.92 816.138C134.118 815.607 134.216 815.032 134.216 814.412C134.216 813.792 134.118 813.215 133.92 812.679C133.723 812.144 133.419 811.711 133.009 811.381C132.598 811.051 132.075 810.886 131.439 810.886C130.803 810.886 130.28 811.051 129.87 811.381C129.459 811.711 129.155 812.144 128.958 812.679C128.761 813.215 128.662 813.792 128.662 814.412C128.662 815.032 128.761 815.607 128.958 816.138C129.155 816.67 129.459 817.098 129.87 817.424C130.28 817.75 130.803 817.913 131.439 817.913ZM139.24 806.636V819H137.816V806.636H139.24ZM143.275 806.636V819H141.85V806.636H143.275ZM149.772 819.193C148.878 819.193 148.108 818.996 147.46 818.602C146.816 818.203 146.319 817.648 145.969 816.935C145.622 816.219 145.449 815.386 145.449 814.436C145.449 813.486 145.622 812.649 145.969 811.925C146.319 811.196 146.806 810.629 147.43 810.222C148.057 809.812 148.79 809.607 149.627 809.607C150.11 809.607 150.587 809.687 151.058 809.848C151.529 810.009 151.957 810.271 152.344 810.633C152.73 810.991 153.038 811.466 153.267 812.058C153.497 812.649 153.611 813.378 153.611 814.243V814.847H146.464V813.615H152.162C152.162 813.092 152.058 812.625 151.849 812.214C151.643 811.804 151.349 811.48 150.967 811.243C150.589 811.005 150.142 810.886 149.627 810.886C149.059 810.886 148.568 811.027 148.154 811.309C147.743 811.587 147.427 811.949 147.206 812.396C146.985 812.842 146.874 813.321 146.874 813.832V814.653C146.874 815.354 146.995 815.947 147.236 816.434C147.482 816.917 147.822 817.286 148.257 817.539C148.691 817.789 149.196 817.913 149.772 817.913C150.146 817.913 150.484 817.861 150.786 817.756C151.092 817.648 151.356 817.487 151.577 817.273C151.798 817.056 151.969 816.786 152.09 816.464L153.466 816.851C153.322 817.318 153.078 817.728 152.736 818.082C152.394 818.433 151.971 818.706 151.468 818.903C150.965 819.097 150.4 819.193 149.772 819.193ZM159.546 819.193C158.676 819.193 157.928 818.988 157.3 818.577C156.672 818.167 156.189 817.601 155.851 816.881C155.513 816.161 155.344 815.338 155.344 814.412C155.344 813.47 155.517 812.639 155.863 811.919C156.213 811.194 156.7 810.629 157.324 810.222C157.952 809.812 158.684 809.607 159.521 809.607C160.173 809.607 160.761 809.727 161.284 809.969C161.807 810.21 162.236 810.548 162.57 810.983C162.904 811.418 163.111 811.925 163.192 812.504H161.767C161.659 812.082 161.417 811.707 161.043 811.381C160.673 811.051 160.173 810.886 159.546 810.886C158.99 810.886 158.503 811.031 158.085 811.321C157.67 811.607 157.346 812.011 157.113 812.534C156.883 813.054 156.769 813.663 156.769 814.364C156.769 815.08 156.881 815.704 157.107 816.235C157.336 816.766 157.658 817.179 158.073 817.473C158.491 817.766 158.982 817.913 159.546 817.913C159.916 817.913 160.252 817.849 160.554 817.72C160.856 817.591 161.111 817.406 161.32 817.165C161.53 816.923 161.679 816.634 161.767 816.295H163.192C163.111 816.843 162.912 817.336 162.594 817.775C162.28 818.209 161.864 818.555 161.345 818.813C160.829 819.066 160.23 819.193 159.546 819.193ZM169.307 809.727V810.935H164.502V809.727H169.307ZM165.903 807.506H167.327V816.344C167.327 816.746 167.386 817.048 167.502 817.249C167.623 817.446 167.776 817.579 167.961 817.648C168.15 817.712 168.349 817.744 168.559 817.744C168.716 817.744 168.845 817.736 168.945 817.72C169.046 817.7 169.126 817.684 169.187 817.672L169.476 818.952C169.38 818.988 169.245 819.024 169.072 819.06C168.899 819.101 168.68 819.121 168.414 819.121C168.011 819.121 167.617 819.034 167.231 818.861C166.848 818.688 166.53 818.424 166.277 818.07C166.027 817.716 165.903 817.269 165.903 816.73V807.506ZM171.45 819V809.727H172.875V819H171.45ZM172.175 808.182C171.897 808.182 171.658 808.087 171.456 807.898C171.259 807.709 171.161 807.482 171.161 807.216C171.161 806.95 171.259 806.723 171.456 806.534C171.658 806.345 171.897 806.25 172.175 806.25C172.453 806.25 172.69 806.345 172.887 806.534C173.088 806.723 173.189 806.95 173.189 807.216C173.189 807.482 173.088 807.709 172.887 807.898C172.69 808.087 172.453 808.182 172.175 808.182ZM179.252 819.193C178.415 819.193 177.68 818.994 177.048 818.596C176.42 818.197 175.929 817.64 175.575 816.923C175.225 816.207 175.05 815.37 175.05 814.412C175.05 813.446 175.225 812.603 175.575 811.882C175.929 811.162 176.42 810.603 177.048 810.204C177.68 809.806 178.415 809.607 179.252 809.607C180.089 809.607 180.821 809.806 181.449 810.204C182.081 810.603 182.572 811.162 182.922 811.882C183.276 812.603 183.453 813.446 183.453 814.412C183.453 815.37 183.276 816.207 182.922 816.923C182.572 817.64 182.081 818.197 181.449 818.596C180.821 818.994 180.089 819.193 179.252 819.193ZM179.252 817.913C179.888 817.913 180.411 817.75 180.821 817.424C181.232 817.098 181.536 816.67 181.733 816.138C181.93 815.607 182.029 815.032 182.029 814.412C182.029 813.792 181.93 813.215 181.733 812.679C181.536 812.144 181.232 811.711 180.821 811.381C180.411 811.051 179.888 810.886 179.252 810.886C178.616 810.886 178.093 811.051 177.682 811.381C177.272 811.711 176.968 812.144 176.771 812.679C176.573 813.215 176.475 813.792 176.475 814.412C176.475 815.032 176.573 815.607 176.771 816.138C176.968 816.67 177.272 817.098 177.682 817.424C178.093 817.75 178.616 817.913 179.252 817.913ZM187.053 813.422V819H185.628V809.727H187.005V811.176H187.125C187.343 810.705 187.673 810.327 188.115 810.041C188.558 809.751 189.13 809.607 189.83 809.607C190.458 809.607 191.007 809.735 191.478 809.993C191.949 810.246 192.315 810.633 192.577 811.152C192.838 811.667 192.969 812.319 192.969 813.108V819H191.544V813.205C191.544 812.476 191.355 811.909 190.977 811.502C190.599 811.092 190.079 810.886 189.419 810.886C188.965 810.886 188.558 810.985 188.2 811.182C187.846 811.379 187.566 811.667 187.361 812.045C187.156 812.424 187.053 812.883 187.053 813.422Z" fill="#EDDEF1"/>
<path d="M225.743 819L222.362 806.636H223.884L226.467 816.706H226.588L229.22 806.636H230.911L233.543 816.706H233.663L236.247 806.636H237.768L234.388 819H232.842L230.114 809.148H230.017L227.288 819H225.743ZM239.441 819V809.727H240.865V819H239.441ZM240.165 808.182C239.887 808.182 239.648 808.087 239.447 807.898C239.25 807.709 239.151 807.482 239.151 807.216C239.151 806.95 239.25 806.723 239.447 806.534C239.648 806.345 239.887 806.25 240.165 806.25C240.443 806.25 240.68 806.345 240.877 806.534C241.079 806.723 241.179 806.95 241.179 807.216C241.179 807.482 241.079 807.709 240.877 807.898C240.68 808.087 240.443 808.182 240.165 808.182ZM250.043 811.804L248.763 812.166C248.683 811.953 248.564 811.746 248.407 811.544C248.254 811.339 248.045 811.17 247.779 811.037C247.514 810.904 247.174 810.838 246.759 810.838C246.191 810.838 245.719 810.969 245.34 811.23C244.966 811.488 244.779 811.816 244.779 812.214C244.779 812.569 244.908 812.848 245.165 813.054C245.423 813.259 245.825 813.43 246.373 813.567L247.749 813.905C248.578 814.106 249.196 814.414 249.602 814.828C250.009 815.239 250.212 815.768 250.212 816.416C250.212 816.947 250.059 817.422 249.753 817.841C249.451 818.259 249.029 818.589 248.486 818.831C247.942 819.072 247.31 819.193 246.59 819.193C245.644 819.193 244.861 818.988 244.242 818.577C243.622 818.167 243.229 817.567 243.064 816.778L244.417 816.44C244.545 816.939 244.789 817.314 245.147 817.563C245.509 817.813 245.982 817.938 246.566 817.938C247.23 817.938 247.757 817.797 248.147 817.515C248.542 817.229 248.739 816.887 248.739 816.489C248.739 816.167 248.626 815.897 248.401 815.68C248.176 815.458 247.83 815.293 247.363 815.185L245.817 814.822C244.968 814.621 244.344 814.309 243.946 813.887C243.551 813.46 243.354 812.927 243.354 812.287C243.354 811.764 243.501 811.301 243.795 810.898C244.093 810.496 244.497 810.18 245.008 809.951C245.523 809.721 246.107 809.607 246.759 809.607C247.677 809.607 248.397 809.808 248.92 810.21C249.447 810.613 249.822 811.144 250.043 811.804ZM253.781 813.422V819H252.357V806.636H253.781V811.176H253.902C254.119 810.697 254.445 810.317 254.88 810.035C255.319 809.749 255.902 809.607 256.631 809.607C257.263 809.607 257.816 809.733 258.291 809.987C258.766 810.236 259.134 810.621 259.396 811.14C259.661 811.655 259.794 812.311 259.794 813.108V819H258.369V813.205C258.369 812.468 258.178 811.899 257.796 811.496C257.418 811.09 256.892 810.886 256.22 810.886C255.753 810.886 255.335 810.985 254.965 811.182C254.598 811.379 254.309 811.667 254.095 812.045C253.886 812.424 253.781 812.883 253.781 813.422ZM263.825 806.636V819H262.401V806.636H263.825ZM266.435 819V809.727H267.86V819H266.435ZM267.159 808.182C266.882 808.182 266.642 808.087 266.441 807.898C266.244 807.709 266.145 807.482 266.145 807.216C266.145 806.95 266.244 806.723 266.441 806.534C266.642 806.345 266.882 806.25 267.159 806.25C267.437 806.25 267.674 806.345 267.872 806.534C268.073 806.723 268.173 806.95 268.173 807.216C268.173 807.482 268.073 807.709 267.872 807.898C267.674 808.087 267.437 808.182 267.159 808.182ZM277.037 811.804L275.757 812.166C275.677 811.953 275.558 811.746 275.401 811.544C275.248 811.339 275.039 811.17 274.773 811.037C274.508 810.904 274.168 810.838 273.753 810.838C273.186 810.838 272.713 810.969 272.334 811.23C271.96 811.488 271.773 811.816 271.773 812.214C271.773 812.569 271.902 812.848 272.159 813.054C272.417 813.259 272.819 813.43 273.367 813.567L274.743 813.905C275.572 814.106 276.19 814.414 276.597 814.828C277.003 815.239 277.206 815.768 277.206 816.416C277.206 816.947 277.053 817.422 276.747 817.841C276.446 818.259 276.023 818.589 275.48 818.831C274.936 819.072 274.304 819.193 273.584 819.193C272.638 819.193 271.855 818.988 271.236 818.577C270.616 818.167 270.224 817.567 270.059 816.778L271.411 816.44C271.54 816.939 271.783 817.314 272.141 817.563C272.503 817.813 272.976 817.938 273.56 817.938C274.224 817.938 274.751 817.797 275.142 817.515C275.536 817.229 275.733 816.887 275.733 816.489C275.733 816.167 275.621 815.897 275.395 815.68C275.17 815.458 274.824 815.293 274.357 815.185L272.811 814.822C271.962 814.621 271.338 814.309 270.94 813.887C270.545 813.46 270.348 812.927 270.348 812.287C270.348 811.764 270.495 811.301 270.789 810.898C271.087 810.496 271.491 810.18 272.002 809.951C272.518 809.721 273.101 809.607 273.753 809.607C274.671 809.607 275.391 809.808 275.914 810.21C276.442 810.613 276.816 811.144 277.037 811.804ZM283.384 809.727V810.935H278.578V809.727H283.384ZM279.979 807.506H281.403V816.344C281.403 816.746 281.462 817.048 281.578 817.249C281.699 817.446 281.852 817.579 282.037 817.648C282.226 817.712 282.426 817.744 282.635 817.744C282.792 817.744 282.921 817.736 283.021 817.72C283.122 817.7 283.202 817.684 283.263 817.672L283.553 818.952C283.456 818.988 283.321 819.024 283.148 819.06C282.975 819.101 282.756 819.121 282.49 819.121C282.088 819.121 281.693 819.034 281.307 818.861C280.924 818.688 280.607 818.424 280.353 818.07C280.103 817.716 279.979 817.269 279.979 816.73V807.506Z" fill="#EDDEF1"/>
<path d="M314.497 819V806.636H318.675C319.645 806.636 320.438 806.811 321.053 807.162C321.673 807.508 322.132 807.977 322.43 808.568C322.728 809.16 322.876 809.82 322.876 810.548C322.876 811.277 322.728 811.939 322.43 812.534C322.136 813.13 321.681 813.605 321.065 813.959C320.45 814.309 319.661 814.484 318.699 814.484H315.705V813.156H318.651C319.315 813.156 319.848 813.042 320.25 812.812C320.653 812.583 320.945 812.273 321.126 811.882C321.311 811.488 321.403 811.043 321.403 810.548C321.403 810.053 321.311 809.611 321.126 809.22C320.945 808.83 320.651 808.524 320.244 808.303C319.838 808.077 319.299 807.964 318.626 807.964H315.994V819H314.497ZM325.095 819V809.727H326.471V811.128H326.568C326.737 810.669 327.043 810.297 327.486 810.011C327.928 809.725 328.427 809.582 328.983 809.582C329.087 809.582 329.218 809.584 329.375 809.588C329.532 809.592 329.651 809.598 329.731 809.607V811.055C329.683 811.043 329.572 811.025 329.399 811.001C329.23 810.973 329.051 810.959 328.862 810.959C328.411 810.959 328.009 811.053 327.655 811.243C327.305 811.428 327.027 811.685 326.822 812.015C326.62 812.341 326.52 812.714 326.52 813.132V819H325.095ZM334.905 819.193C334.068 819.193 333.333 818.994 332.702 818.596C332.074 818.197 331.583 817.64 331.229 816.923C330.878 816.207 330.703 815.37 330.703 814.412C330.703 813.446 330.878 812.603 331.229 811.882C331.583 811.162 332.074 810.603 332.702 810.204C333.333 809.806 334.068 809.607 334.905 809.607C335.742 809.607 336.475 809.806 337.102 810.204C337.734 810.603 338.225 811.162 338.575 811.882C338.93 812.603 339.107 813.446 339.107 814.412C339.107 815.37 338.93 816.207 338.575 816.923C338.225 817.64 337.734 818.197 337.102 818.596C336.475 818.994 335.742 819.193 334.905 819.193ZM334.905 817.913C335.541 817.913 336.064 817.75 336.475 817.424C336.885 817.098 337.189 816.67 337.386 816.138C337.583 815.607 337.682 815.032 337.682 814.412C337.682 813.792 337.583 813.215 337.386 812.679C337.189 812.144 336.885 811.711 336.475 811.381C336.064 811.051 335.541 810.886 334.905 810.886C334.269 810.886 333.746 811.051 333.335 811.381C332.925 811.711 332.621 812.144 332.424 812.679C332.227 813.215 332.128 813.792 332.128 814.412C332.128 815.032 332.227 815.607 332.424 816.138C332.621 816.67 332.925 817.098 333.335 817.424C333.746 817.75 334.269 817.913 334.905 817.913ZM345.411 809.727V810.935H340.412V809.727H345.411ZM341.909 819V808.447C341.909 807.916 342.034 807.473 342.284 807.119C342.533 806.765 342.857 806.5 343.256 806.322C343.654 806.145 344.075 806.057 344.517 806.057C344.867 806.057 345.153 806.085 345.375 806.141C345.596 806.198 345.761 806.25 345.87 806.298L345.459 807.53C345.387 807.506 345.286 807.475 345.157 807.439C345.032 807.403 344.867 807.385 344.662 807.385C344.191 807.385 343.851 807.504 343.642 807.741C343.437 807.979 343.334 808.327 343.334 808.786V819H341.909ZM347.407 819V809.727H348.832V819H347.407ZM348.132 808.182C347.854 808.182 347.615 808.087 347.414 807.898C347.216 807.709 347.118 807.482 347.118 807.216C347.118 806.95 347.216 806.723 347.414 806.534C347.615 806.345 347.854 806.25 348.132 806.25C348.41 806.25 348.647 806.345 348.844 806.534C349.046 806.723 349.146 806.95 349.146 807.216C349.146 807.482 349.046 807.709 348.844 807.898C348.647 808.087 348.41 808.182 348.132 808.182ZM352.866 806.636V819H351.442V806.636H352.866Z" fill="#EDDEF1"/>
<path d="M19.4205 191H14.2642V176.455H19.4631C20.9261 176.455 22.1856 176.746 23.2415 177.328C24.2973 177.906 25.1094 178.737 25.6776 179.821C26.2505 180.905 26.5369 182.203 26.5369 183.713C26.5369 185.228 26.2505 186.53 25.6776 187.619C25.1094 188.708 24.2926 189.544 23.2273 190.126C22.1667 190.709 20.8977 191 19.4205 191ZM17.3395 188.365H19.2926C20.2017 188.365 20.9664 188.204 21.5866 187.882C22.2116 187.555 22.6804 187.051 22.9929 186.369C23.3101 185.683 23.4688 184.797 23.4688 183.713C23.4688 182.638 23.3101 181.76 22.9929 181.078C22.6804 180.396 22.214 179.894 21.5938 179.572C20.9735 179.25 20.2088 179.089 19.2997 179.089H17.3395V188.365ZM33.7298 191.213C32.6076 191.213 31.6417 190.986 30.832 190.531C30.0271 190.072 29.4068 189.423 28.9712 188.585C28.5356 187.742 28.3178 186.746 28.3178 185.595C28.3178 184.473 28.5356 183.488 28.9712 182.641C29.4068 181.793 30.02 181.133 30.8107 180.659C31.6062 180.186 32.5389 179.949 33.609 179.949C34.3287 179.949 34.9987 180.065 35.619 180.297C36.244 180.524 36.7885 180.867 37.2525 181.327C37.7212 181.786 38.0858 182.364 38.3462 183.06C38.6067 183.751 38.7369 184.561 38.7369 185.489V186.32H29.5252V184.445H35.8888C35.8888 184.009 35.7942 183.623 35.6048 183.287C35.4154 182.951 35.1526 182.688 34.8164 182.499C34.485 182.304 34.0991 182.207 33.6587 182.207C33.1995 182.207 32.7923 182.314 32.4371 182.527C32.0868 182.735 31.8121 183.017 31.6133 183.372C31.4144 183.723 31.3126 184.113 31.3079 184.544V186.327C31.3079 186.866 31.4073 187.333 31.6062 187.726C31.8098 188.119 32.0962 188.422 32.4656 188.635C32.8349 188.848 33.2728 188.955 33.7795 188.955C34.1156 188.955 34.4234 188.907 34.7028 188.812C34.9821 188.718 35.2212 188.576 35.4201 188.386C35.619 188.197 35.7705 187.965 35.8746 187.69L38.6729 187.875C38.5309 188.547 38.2397 189.134 37.7994 189.636C37.3638 190.134 36.8003 190.522 36.109 190.801C35.4225 191.076 34.6294 191.213 33.7298 191.213ZM40.7113 191V180.091H43.6445V181.994H43.7582C43.957 181.317 44.2908 180.806 44.7596 180.46C45.2283 180.11 45.7681 179.935 46.3789 179.935C46.5304 179.935 46.6938 179.944 46.869 179.963C47.0442 179.982 47.198 180.008 47.3306 180.041V182.726C47.1886 182.683 46.9921 182.645 46.7411 182.612C46.4902 182.579 46.2605 182.562 46.0522 182.562C45.6071 182.562 45.2094 182.66 44.859 182.854C44.5134 183.043 44.2388 183.308 44.0352 183.649C43.8363 183.99 43.7369 184.383 43.7369 184.828V191H40.7113ZM51.9205 184.693V191H48.8949V180.091H51.7784V182.016H51.9062C52.1477 181.381 52.5526 180.879 53.1207 180.51C53.6889 180.136 54.3778 179.949 55.1875 179.949C55.9451 179.949 56.6056 180.115 57.169 180.446C57.7325 180.777 58.1705 181.251 58.483 181.866C58.7955 182.477 58.9517 183.206 58.9517 184.054V191H55.9261V184.594C55.9309 183.926 55.7604 183.405 55.4148 183.031C55.0691 182.652 54.5933 182.463 53.9872 182.463C53.58 182.463 53.2202 182.551 52.9077 182.726C52.5999 182.901 52.3584 183.157 52.1832 183.493C52.0128 183.824 51.9252 184.224 51.9205 184.693ZM61.3363 191V180.091H64.3619V191H61.3363ZM62.8562 178.685C62.4064 178.685 62.0205 178.536 61.6985 178.237C61.3813 177.934 61.2227 177.572 61.2227 177.151C61.2227 176.734 61.3813 176.376 61.6985 176.078C62.0205 175.775 62.4064 175.624 62.8562 175.624C63.306 175.624 63.6895 175.775 64.0067 176.078C64.3287 176.376 64.4897 176.734 64.4897 177.151C64.4897 177.572 64.3287 177.934 64.0067 178.237C63.6895 178.536 63.306 178.685 62.8562 178.685ZM71.7571 191.213C70.6349 191.213 69.669 190.986 68.8594 190.531C68.0545 190.072 67.4342 189.423 66.9986 188.585C66.563 187.742 66.3452 186.746 66.3452 185.595C66.3452 184.473 66.563 183.488 66.9986 182.641C67.4342 181.793 68.0473 181.133 68.8381 180.659C69.6335 180.186 70.5663 179.949 71.6364 179.949C72.3561 179.949 73.026 180.065 73.6463 180.297C74.2713 180.524 74.8158 180.867 75.2798 181.327C75.7486 181.786 76.1132 182.364 76.3736 183.06C76.634 183.751 76.7642 184.561 76.7642 185.489V186.32H67.5526V184.445H73.9162C73.9162 184.009 73.8215 183.623 73.6321 183.287C73.4427 182.951 73.1799 182.688 72.8438 182.499C72.5123 182.304 72.1264 182.207 71.6861 182.207C71.2268 182.207 70.8196 182.314 70.4645 182.527C70.1141 182.735 69.8395 183.017 69.6406 183.372C69.4418 183.723 69.34 184.113 69.3352 184.544V186.327C69.3352 186.866 69.4347 187.333 69.6335 187.726C69.8371 188.119 70.1236 188.422 70.4929 188.635C70.8622 188.848 71.3002 188.955 71.8068 188.955C72.143 188.955 72.4508 188.907 72.7301 188.812C73.0095 188.718 73.2486 188.576 73.4474 188.386C73.6463 188.197 73.7978 187.965 73.902 187.69L76.7003 187.875C76.5582 188.547 76.267 189.134 75.8267 189.636C75.3911 190.134 74.8277 190.522 74.1364 190.801C73.4498 191.076 72.6567 191.213 71.7571 191.213ZM78.7386 191V180.091H81.6719V181.994H81.7855C81.9844 181.317 82.3182 180.806 82.7869 180.46C83.2557 180.11 83.7955 179.935 84.4062 179.935C84.5578 179.935 84.7211 179.944 84.8963 179.963C85.0715 179.982 85.2254 180.008 85.358 180.041V182.726C85.2159 182.683 85.0194 182.645 84.7685 182.612C84.5175 182.579 84.2879 182.562 84.0795 182.562C83.6345 182.562 83.2367 182.66 82.8864 182.854C82.5407 183.043 82.2661 183.308 82.0625 183.649C81.8636 183.99 81.7642 184.383 81.7642 184.828V191H78.7386ZM95.9989 183.202L93.229 183.372C93.1817 183.135 93.0799 182.922 92.9237 182.733C92.7674 182.539 92.5614 182.385 92.3058 182.271C92.0548 182.153 91.7541 182.094 91.4038 182.094C90.935 182.094 90.5397 182.193 90.2177 182.392C89.8957 182.586 89.7347 182.847 89.7347 183.173C89.7347 183.434 89.8389 183.654 90.0472 183.834C90.2556 184.014 90.613 184.158 91.1197 184.267L93.0941 184.665C94.1547 184.883 94.9454 185.233 95.4663 185.716C95.9871 186.199 96.2475 186.833 96.2475 187.619C96.2475 188.334 96.0368 188.962 95.6154 189.501C95.1987 190.041 94.6258 190.463 93.8967 190.766C93.1722 191.064 92.3365 191.213 91.3896 191.213C89.9454 191.213 88.7949 190.912 87.9379 190.311C87.0856 189.705 86.5861 188.881 86.4393 187.839L89.4151 187.683C89.5051 188.124 89.7229 188.46 90.0685 188.692C90.4142 188.919 90.8569 189.033 91.3967 189.033C91.927 189.033 92.3531 188.931 92.6751 188.727C93.0018 188.519 93.1675 188.251 93.1722 187.925C93.1675 187.65 93.0515 187.425 92.8242 187.25C92.5969 187.07 92.2466 186.933 91.7731 186.838L89.8839 186.462C88.8185 186.249 88.0254 185.879 87.5046 185.354C86.9885 184.828 86.7305 184.158 86.7305 183.344C86.7305 182.643 86.9199 182.039 87.2987 181.533C87.6822 181.026 88.2196 180.635 88.9109 180.361C89.6069 180.086 90.4213 179.949 91.354 179.949C92.7319 179.949 93.8162 180.24 94.6069 180.822C95.4023 181.405 95.8664 182.198 95.9989 183.202ZM105.892 191.206C105.196 191.206 104.576 191.085 104.032 190.844C103.487 190.598 103.056 190.235 102.739 189.757C102.426 189.274 102.27 188.673 102.27 187.953C102.27 187.347 102.382 186.838 102.604 186.426C102.827 186.014 103.13 185.683 103.513 185.432C103.897 185.181 104.332 184.991 104.82 184.864C105.312 184.736 105.828 184.646 106.368 184.594C107.003 184.527 107.514 184.466 107.902 184.409C108.291 184.348 108.572 184.258 108.748 184.139C108.923 184.021 109.01 183.846 109.01 183.614V183.571C109.01 183.121 108.868 182.773 108.584 182.527C108.305 182.281 107.907 182.158 107.391 182.158C106.846 182.158 106.413 182.278 106.091 182.52C105.769 182.757 105.556 183.055 105.452 183.415L102.654 183.188C102.796 182.525 103.075 181.952 103.492 181.469C103.908 180.981 104.446 180.607 105.104 180.347C105.767 180.081 106.534 179.949 107.405 179.949C108.011 179.949 108.591 180.02 109.145 180.162C109.704 180.304 110.199 180.524 110.63 180.822C111.065 181.121 111.408 181.504 111.659 181.973C111.91 182.437 112.036 182.993 112.036 183.642V191H109.167V189.487H109.081C108.906 189.828 108.672 190.129 108.378 190.389C108.085 190.645 107.732 190.846 107.32 190.993C106.908 191.135 106.432 191.206 105.892 191.206ZM106.759 189.118C107.204 189.118 107.597 189.03 107.938 188.855C108.279 188.675 108.546 188.434 108.74 188.131C108.935 187.828 109.032 187.484 109.032 187.101V185.943C108.937 186.005 108.807 186.062 108.641 186.114C108.48 186.161 108.298 186.206 108.094 186.249C107.891 186.286 107.687 186.322 107.483 186.355C107.28 186.384 107.095 186.41 106.929 186.433C106.574 186.485 106.264 186.568 105.999 186.682C105.734 186.795 105.528 186.949 105.381 187.143C105.234 187.333 105.161 187.57 105.161 187.854C105.161 188.266 105.31 188.58 105.608 188.798C105.911 189.011 106.295 189.118 106.759 189.118ZM114.383 180.091H117.409V191.54C117.409 192.383 117.243 193.064 116.912 193.585C116.58 194.106 116.104 194.487 115.484 194.729C114.868 194.97 114.132 195.091 113.275 195.091C113.171 195.091 113.072 195.089 112.977 195.084C112.877 195.084 112.773 195.081 112.664 195.077V192.712C112.745 192.716 112.816 192.719 112.877 192.719C112.934 192.723 112.996 192.726 113.062 192.726C113.55 192.726 113.891 192.622 114.085 192.413C114.284 192.21 114.383 191.902 114.383 191.49V180.091ZM115.889 178.685C115.444 178.685 115.06 178.536 114.738 178.237C114.416 177.934 114.255 177.572 114.255 177.151C114.255 176.734 114.416 176.376 114.738 176.078C115.06 175.775 115.444 175.624 115.889 175.624C116.343 175.624 116.729 175.775 117.047 176.078C117.368 176.376 117.529 176.734 117.529 177.151C117.529 177.572 117.368 177.934 117.047 178.237C116.729 178.536 116.343 178.685 115.889 178.685ZM124.761 191.213C123.658 191.213 122.704 190.979 121.899 190.51C121.099 190.036 120.481 189.378 120.045 188.536C119.61 187.688 119.392 186.705 119.392 185.588C119.392 184.461 119.61 183.476 120.045 182.634C120.481 181.786 121.099 181.128 121.899 180.659C122.704 180.186 123.658 179.949 124.761 179.949C125.865 179.949 126.816 180.186 127.616 180.659C128.421 181.128 129.042 181.786 129.477 182.634C129.913 183.476 130.131 184.461 130.131 185.588C130.131 186.705 129.913 187.688 129.477 188.536C129.042 189.378 128.421 190.036 127.616 190.51C126.816 190.979 125.865 191.213 124.761 191.213ZM124.776 188.869C125.277 188.869 125.696 188.727 126.033 188.443C126.369 188.154 126.622 187.761 126.793 187.264C126.968 186.767 127.055 186.201 127.055 185.567C127.055 184.932 126.968 184.366 126.793 183.869C126.622 183.372 126.369 182.979 126.033 182.69C125.696 182.402 125.277 182.257 124.776 182.257C124.269 182.257 123.843 182.402 123.497 182.69C123.156 182.979 122.898 183.372 122.723 183.869C122.553 184.366 122.467 184.932 122.467 185.567C122.467 186.201 122.553 186.767 122.723 187.264C122.898 187.761 123.156 188.154 123.497 188.443C123.843 188.727 124.269 188.869 124.776 188.869ZM139.094 186.355V180.091H142.119V191H139.214V189.018H139.101C138.855 189.658 138.445 190.171 137.872 190.56C137.304 190.948 136.61 191.142 135.791 191.142C135.062 191.142 134.42 190.976 133.866 190.645C133.313 190.313 132.879 189.842 132.567 189.232C132.259 188.621 132.103 187.889 132.098 187.037V180.091H135.124V186.497C135.128 187.141 135.301 187.65 135.642 188.024C135.983 188.398 136.44 188.585 137.013 188.585C137.377 188.585 137.718 188.502 138.036 188.337C138.353 188.166 138.608 187.915 138.803 187.584C139.001 187.252 139.098 186.843 139.094 186.355ZM150.342 180.091V182.364H143.772V180.091H150.342ZM145.264 177.477H148.289V187.648C148.289 187.927 148.332 188.145 148.417 188.301C148.502 188.453 148.621 188.559 148.772 188.621C148.929 188.682 149.109 188.713 149.312 188.713C149.454 188.713 149.596 188.701 149.738 188.678C149.88 188.649 149.989 188.628 150.065 188.614L150.541 190.865C150.389 190.912 150.176 190.967 149.902 191.028C149.627 191.095 149.293 191.135 148.9 191.149C148.171 191.178 147.532 191.08 146.983 190.858C146.438 190.635 146.014 190.29 145.711 189.821C145.408 189.352 145.259 188.76 145.264 188.045V177.477ZM161.253 183.202L158.483 183.372C158.436 183.135 158.334 182.922 158.178 182.733C158.021 182.539 157.815 182.385 157.56 182.271C157.309 182.153 157.008 182.094 156.658 182.094C156.189 182.094 155.794 182.193 155.472 182.392C155.15 182.586 154.989 182.847 154.989 183.173C154.989 183.434 155.093 183.654 155.301 183.834C155.509 184.014 155.867 184.158 156.374 184.267L158.348 184.665C159.409 184.883 160.199 185.233 160.72 185.716C161.241 186.199 161.501 186.833 161.501 187.619C161.501 188.334 161.291 188.962 160.869 189.501C160.453 190.041 159.88 190.463 159.151 190.766C158.426 191.064 157.59 191.213 156.643 191.213C155.199 191.213 154.049 190.912 153.192 190.311C152.339 189.705 151.84 188.881 151.693 187.839L154.669 187.683C154.759 188.124 154.977 188.46 155.322 188.692C155.668 188.919 156.111 189.033 156.651 189.033C157.181 189.033 157.607 188.931 157.929 188.727C158.256 188.519 158.421 188.251 158.426 187.925C158.421 187.65 158.305 187.425 158.078 187.25C157.851 187.07 157.5 186.933 157.027 186.838L155.138 186.462C154.072 186.249 153.279 185.879 152.759 185.354C152.242 184.828 151.984 184.158 151.984 183.344C151.984 182.643 152.174 182.039 152.553 181.533C152.936 181.026 153.473 180.635 154.165 180.361C154.861 180.086 155.675 179.949 156.608 179.949C157.986 179.949 159.07 180.24 159.861 180.822C160.656 181.405 161.12 182.198 161.253 183.202Z" fill="#EDDEF1"/>
<rect x="18" y="208" width="140" height="140" rx="8" fill="#7D1797"/>
<rect x="184" y="208" width="140" height="140" rx="8" fill="#D9D9D9"/>
<rect x="184" y="208" width="140" height="140" rx="8" fill="#7D1797"/>
<rect x="340" y="208" width="140" height="140" rx="8" fill="#7D1797"/>
<rect x="17.5" y="413.5" width="359" height="119" rx="11.5" fill="#7D1797" stroke="#686868"/>
<path d="M57.0057 490.364V502H54.5455V492.699H54.4773L51.8125 494.369V492.188L54.6932 490.364H57.0057ZM60.5838 502.148C60.2088 502.148 59.8868 502.015 59.6179 501.75C59.3527 501.481 59.2202 501.159 59.2202 500.784C59.2202 500.413 59.3527 500.095 59.6179 499.83C59.8868 499.564 60.2088 499.432 60.5838 499.432C60.9474 499.432 61.2656 499.564 61.5384 499.83C61.8111 500.095 61.9474 500.413 61.9474 500.784C61.9474 501.034 61.883 501.263 61.7543 501.472C61.6293 501.676 61.4645 501.841 61.2599 501.966C61.0554 502.087 60.83 502.148 60.5838 502.148ZM63.9119 502V500.227L68.054 496.392C68.4063 496.051 68.7017 495.744 68.9403 495.472C69.1828 495.199 69.3665 494.932 69.4915 494.67C69.6165 494.405 69.679 494.119 69.679 493.812C69.679 493.472 69.6013 493.178 69.446 492.932C69.2907 492.682 69.0786 492.491 68.8097 492.358C68.5407 492.222 68.2358 492.153 67.8949 492.153C67.5388 492.153 67.2282 492.225 66.9631 492.369C66.6979 492.513 66.4934 492.72 66.3494 492.989C66.2055 493.258 66.1335 493.578 66.1335 493.949H63.7983C63.7983 493.187 63.9706 492.527 64.3153 491.966C64.66 491.405 65.143 490.972 65.7642 490.665C66.3854 490.358 67.1013 490.205 67.9119 490.205C68.7453 490.205 69.4706 490.352 70.0881 490.648C70.7093 490.939 71.1922 491.345 71.5369 491.864C71.8816 492.383 72.054 492.977 72.054 493.648C72.054 494.087 71.9669 494.521 71.7926 494.949C71.6222 495.377 71.3172 495.852 70.8778 496.375C70.4384 496.894 69.8191 497.517 69.0199 498.244L67.321 499.909V499.989H72.2074V502H63.9119ZM76.206 499.489L76.2116 496.585H76.5639L79.3594 493.273H82.1378L78.3821 497.659H77.8082L76.206 499.489ZM74.0128 502V490.364H76.4332V502H74.0128ZM79.4673 502L76.8991 498.199L78.5128 496.489L82.3026 502H79.4673Z" fill="#EDDEF1"/>
<path d="M31.1136 429.364L33.9261 438.205H34.0341L36.8523 429.364H39.5795L35.5682 441H32.3977L28.3807 429.364H31.1136ZM42.4545 441.165C41.8977 441.165 41.4015 441.068 40.9659 440.875C40.5303 440.678 40.1856 440.388 39.9318 440.006C39.6818 439.619 39.5568 439.138 39.5568 438.562C39.5568 438.078 39.6458 437.67 39.8239 437.341C40.0019 437.011 40.2443 436.746 40.5511 436.545C40.858 436.345 41.2064 436.193 41.5966 436.091C41.9905 435.989 42.4034 435.917 42.8352 435.875C43.3428 435.822 43.7519 435.773 44.0625 435.727C44.3731 435.678 44.5985 435.606 44.7386 435.511C44.8788 435.417 44.9489 435.277 44.9489 435.091V435.057C44.9489 434.697 44.8352 434.419 44.608 434.222C44.3845 434.025 44.0663 433.926 43.6534 433.926C43.2178 433.926 42.8712 434.023 42.6136 434.216C42.3561 434.405 42.1856 434.644 42.1023 434.932L39.8636 434.75C39.9773 434.22 40.2008 433.761 40.5341 433.375C40.8674 432.985 41.2973 432.686 41.8239 432.477C42.3542 432.265 42.9678 432.159 43.6648 432.159C44.1496 432.159 44.6136 432.216 45.0568 432.33C45.5038 432.443 45.8996 432.619 46.2443 432.858C46.5928 433.097 46.8674 433.403 47.0682 433.778C47.2689 434.15 47.3693 434.595 47.3693 435.114V441H45.0739V439.79H45.0057C44.8655 440.062 44.678 440.303 44.4432 440.511C44.2083 440.716 43.9261 440.877 43.5966 440.994C43.267 441.108 42.8864 441.165 42.4545 441.165ZM43.1477 439.494C43.5038 439.494 43.8182 439.424 44.0909 439.284C44.3636 439.14 44.5777 438.947 44.733 438.705C44.8883 438.462 44.9659 438.187 44.9659 437.881V436.955C44.8902 437.004 44.786 437.049 44.6534 437.091C44.5246 437.129 44.3788 437.165 44.2159 437.199C44.053 437.229 43.8902 437.258 43.7273 437.284C43.5644 437.307 43.4167 437.328 43.2841 437.347C43 437.388 42.7519 437.455 42.5398 437.545C42.3277 437.636 42.1629 437.759 42.0455 437.915C41.928 438.066 41.8693 438.256 41.8693 438.483C41.8693 438.812 41.9886 439.064 42.2273 439.239C42.4697 439.409 42.7765 439.494 43.1477 439.494ZM51.6676 429.364V441H49.2472V429.364H51.6676ZM57.5838 441.17C56.6861 441.17 55.9134 440.989 55.2656 440.625C54.6217 440.258 54.1255 439.739 53.777 439.068C53.4285 438.394 53.2543 437.597 53.2543 436.676C53.2543 435.778 53.4285 434.991 53.777 434.312C54.1255 433.634 54.616 433.106 55.2486 432.727C55.8849 432.348 56.6312 432.159 57.4872 432.159C58.063 432.159 58.599 432.252 59.0952 432.438C59.5952 432.619 60.0308 432.894 60.402 433.261C60.777 433.629 61.0687 434.091 61.277 434.648C61.4853 435.201 61.5895 435.848 61.5895 436.591V437.256H54.2202V435.756H59.3111C59.3111 435.407 59.2353 435.098 59.0838 434.83C58.9323 434.561 58.7221 434.35 58.4531 434.199C58.188 434.044 57.8793 433.966 57.527 433.966C57.1596 433.966 56.8338 434.051 56.5497 434.222C56.2694 434.388 56.0497 434.614 55.8906 434.898C55.7315 435.178 55.6501 435.491 55.6463 435.835V437.261C55.6463 437.693 55.7259 438.066 55.8849 438.381C56.0478 438.695 56.277 438.938 56.5724 439.108C56.8679 439.278 57.2183 439.364 57.6236 439.364C57.8925 439.364 58.1387 439.326 58.3622 439.25C58.5857 439.174 58.777 439.061 58.9361 438.909C59.0952 438.758 59.2164 438.572 59.2997 438.352L61.5384 438.5C61.4247 439.038 61.1918 439.508 60.8395 439.909C60.491 440.307 60.0402 440.617 59.4872 440.841C58.938 441.061 58.3035 441.17 57.5838 441.17ZM68.7656 437.284V432.273H71.1861V441H68.8622V439.415H68.7713C68.5743 439.926 68.2467 440.337 67.7884 440.648C67.3338 440.958 66.7789 441.114 66.1236 441.114C65.5402 441.114 65.027 440.981 64.5838 440.716C64.1406 440.451 63.794 440.074 63.544 439.585C63.2978 439.097 63.1728 438.511 63.169 437.83V432.273H65.5895V437.398C65.5933 437.913 65.7315 438.32 66.0043 438.619C66.277 438.919 66.6425 439.068 67.1009 439.068C67.3925 439.068 67.6652 439.002 67.919 438.869C68.1728 438.733 68.3774 438.532 68.5327 438.267C68.6918 438.002 68.7694 437.674 68.7656 437.284ZM73.1222 441V432.273H75.4688V433.795H75.5597C75.7188 433.254 75.9858 432.845 76.3608 432.568C76.7358 432.288 77.1676 432.148 77.6562 432.148C77.7775 432.148 77.9081 432.155 78.0483 432.17C78.1884 432.186 78.3116 432.206 78.4176 432.233V434.381C78.304 434.347 78.1468 434.316 77.946 434.29C77.7453 434.263 77.5616 434.25 77.3949 434.25C77.0388 434.25 76.7206 434.328 76.4403 434.483C76.1638 434.634 75.9441 434.847 75.7812 435.119C75.6222 435.392 75.5426 435.706 75.5426 436.062V441H73.1222ZM83.4176 441V429.364H91.2585V431.392H85.8778V434.165H90.8551V436.193H85.8778V438.972H91.2812V441H83.4176ZM100.43 434.761L98.2145 434.898C98.1766 434.708 98.0952 434.538 97.9702 434.386C97.8452 434.231 97.6804 434.108 97.4759 434.017C97.2751 433.922 97.0346 433.875 96.7543 433.875C96.3793 433.875 96.063 433.955 95.8054 434.114C95.5478 434.269 95.419 434.477 95.419 434.739C95.419 434.947 95.5024 435.123 95.669 435.267C95.8357 435.411 96.1217 435.527 96.527 435.614L98.1065 435.932C98.955 436.106 99.5876 436.386 100.004 436.773C100.421 437.159 100.629 437.667 100.629 438.295C100.629 438.867 100.461 439.369 100.124 439.801C99.7902 440.233 99.3319 440.57 98.7486 440.812C98.169 441.051 97.5005 441.17 96.7429 441.17C95.5876 441.17 94.6671 440.93 93.9815 440.449C93.2997 439.964 92.9001 439.305 92.7827 438.472L95.1634 438.347C95.2353 438.699 95.4096 438.968 95.6861 439.153C95.9626 439.335 96.3168 439.426 96.7486 439.426C97.1728 439.426 97.5137 439.345 97.7713 439.182C98.0327 439.015 98.1652 438.801 98.169 438.54C98.1652 438.32 98.0724 438.14 97.8906 438C97.7088 437.856 97.4285 437.746 97.0497 437.67L95.5384 437.369C94.6861 437.199 94.0516 436.903 93.6349 436.483C93.2221 436.062 93.0156 435.527 93.0156 434.875C93.0156 434.314 93.1671 433.831 93.4702 433.426C93.777 433.021 94.2069 432.708 94.7599 432.489C95.3168 432.269 95.9683 432.159 96.7145 432.159C97.8168 432.159 98.6842 432.392 99.3168 432.858C99.9531 433.324 100.324 433.958 100.43 434.761ZM106.795 432.273V434.091H101.54V432.273H106.795ZM102.733 430.182H105.153V438.318C105.153 438.542 105.188 438.716 105.256 438.841C105.324 438.962 105.419 439.047 105.54 439.097C105.665 439.146 105.809 439.17 105.972 439.17C106.085 439.17 106.199 439.161 106.312 439.142C106.426 439.119 106.513 439.102 106.574 439.091L106.955 440.892C106.833 440.93 106.663 440.973 106.443 441.023C106.223 441.076 105.956 441.108 105.642 441.119C105.059 441.142 104.547 441.064 104.108 440.886C103.672 440.708 103.333 440.432 103.091 440.057C102.848 439.682 102.729 439.208 102.733 438.636V430.182ZM108.372 441V432.273H110.793V441H108.372ZM109.588 431.148C109.228 431.148 108.92 431.028 108.662 430.79C108.408 430.547 108.281 430.258 108.281 429.92C108.281 429.587 108.408 429.301 108.662 429.062C108.92 428.82 109.228 428.699 109.588 428.699C109.948 428.699 110.255 428.82 110.509 429.062C110.766 429.301 110.895 429.587 110.895 429.92C110.895 430.258 110.766 430.547 110.509 430.79C110.255 431.028 109.948 431.148 109.588 431.148ZM112.732 441V432.273H115.038V433.812H115.141C115.322 433.301 115.625 432.898 116.05 432.602C116.474 432.307 116.982 432.159 117.572 432.159C118.171 432.159 118.68 432.309 119.101 432.608C119.521 432.903 119.802 433.305 119.942 433.812H120.033C120.211 433.312 120.533 432.913 120.999 432.614C121.468 432.311 122.023 432.159 122.663 432.159C123.478 432.159 124.139 432.419 124.646 432.938C125.158 433.453 125.413 434.184 125.413 435.131V441H122.999V435.608C122.999 435.123 122.87 434.759 122.612 434.517C122.355 434.275 122.033 434.153 121.646 434.153C121.207 434.153 120.864 434.294 120.618 434.574C120.372 434.85 120.249 435.216 120.249 435.67V441H117.902V435.557C117.902 435.129 117.779 434.788 117.533 434.534C117.29 434.28 116.97 434.153 116.572 434.153C116.304 434.153 116.061 434.222 115.845 434.358C115.633 434.491 115.464 434.678 115.339 434.92C115.214 435.159 115.152 435.439 115.152 435.761V441H112.732ZM131.303 441.17C130.405 441.17 129.632 440.989 128.984 440.625C128.34 440.258 127.844 439.739 127.496 439.068C127.147 438.394 126.973 437.597 126.973 436.676C126.973 435.778 127.147 434.991 127.496 434.312C127.844 433.634 128.335 433.106 128.967 432.727C129.604 432.348 130.35 432.159 131.206 432.159C131.782 432.159 132.318 432.252 132.814 432.438C133.314 432.619 133.75 432.894 134.121 433.261C134.496 433.629 134.787 434.091 134.996 434.648C135.204 435.201 135.308 435.848 135.308 436.591V437.256H127.939V435.756H133.03C133.03 435.407 132.954 435.098 132.803 434.83C132.651 434.561 132.441 434.35 132.172 434.199C131.907 434.044 131.598 433.966 131.246 433.966C130.878 433.966 130.553 434.051 130.268 434.222C129.988 434.388 129.768 434.614 129.609 434.898C129.45 435.178 129.369 435.491 129.365 435.835V437.261C129.365 437.693 129.445 438.066 129.604 438.381C129.767 438.695 129.996 438.938 130.291 439.108C130.587 439.278 130.937 439.364 131.342 439.364C131.611 439.364 131.857 439.326 132.081 439.25C132.304 439.174 132.496 439.061 132.655 438.909C132.814 438.758 132.935 438.572 133.018 438.352L135.257 438.5C135.143 439.038 134.911 439.508 134.558 439.909C134.21 440.307 133.759 440.617 133.206 440.841C132.657 441.061 132.022 441.17 131.303 441.17ZM130.28 431.148L131.484 428.562H133.723L131.99 431.148H130.28Z" fill="#CA3AEF"/>
<path d="M176.943 502V500.227L181.085 496.392C181.438 496.051 181.733 495.744 181.972 495.472C182.214 495.199 182.398 494.932 182.523 494.67C182.648 494.405 182.71 494.119 182.71 493.812C182.71 493.472 182.633 493.178 182.477 492.932C182.322 492.682 182.11 492.491 181.841 492.358C181.572 492.222 181.267 492.153 180.926 492.153C180.57 492.153 180.259 492.225 179.994 492.369C179.729 492.513 179.525 492.72 179.381 492.989C179.237 493.258 179.165 493.578 179.165 493.949H176.83C176.83 493.187 177.002 492.527 177.347 491.966C177.691 491.405 178.174 490.972 178.795 490.665C179.417 490.358 180.133 490.205 180.943 490.205C181.777 490.205 182.502 490.352 183.119 490.648C183.741 490.939 184.223 491.345 184.568 491.864C184.913 492.383 185.085 492.977 185.085 493.648C185.085 494.087 184.998 494.521 184.824 494.949C184.653 495.377 184.348 495.852 183.909 496.375C183.47 496.894 182.85 497.517 182.051 498.244L180.352 499.909V499.989H185.239V502H176.943ZM188.459 502.148C188.084 502.148 187.762 502.015 187.493 501.75C187.228 501.481 187.095 501.159 187.095 500.784C187.095 500.413 187.228 500.095 187.493 499.83C187.762 499.564 188.084 499.432 188.459 499.432C188.822 499.432 189.141 499.564 189.413 499.83C189.686 500.095 189.822 500.413 189.822 500.784C189.822 501.034 189.758 501.263 189.629 501.472C189.504 501.676 189.339 501.841 189.135 501.966C188.93 502.087 188.705 502.148 188.459 502.148ZM191.787 502V500.227L195.929 496.392C196.281 496.051 196.577 495.744 196.815 495.472C197.058 495.199 197.241 494.932 197.366 494.67C197.491 494.405 197.554 494.119 197.554 493.812C197.554 493.472 197.476 493.178 197.321 492.932C197.166 492.682 196.954 492.491 196.685 492.358C196.416 492.222 196.111 492.153 195.77 492.153C195.414 492.153 195.103 492.225 194.838 492.369C194.573 492.513 194.368 492.72 194.224 492.989C194.08 493.258 194.009 493.578 194.009 493.949H191.673C191.673 493.187 191.846 492.527 192.19 491.966C192.535 491.405 193.018 490.972 193.639 490.665C194.26 490.358 194.976 490.205 195.787 490.205C196.62 490.205 197.346 490.352 197.963 490.648C198.584 490.939 199.067 491.345 199.412 491.864C199.757 492.383 199.929 492.977 199.929 493.648C199.929 494.087 199.842 494.521 199.668 494.949C199.497 495.377 199.192 495.852 198.753 496.375C198.313 496.894 197.694 497.517 196.895 498.244L195.196 499.909V499.989H200.082V502H191.787ZM204.081 499.489L204.087 496.585H204.439L207.234 493.273H210.013L206.257 497.659H205.683L204.081 499.489ZM201.888 502V490.364H204.308V502H201.888ZM207.342 502L204.774 498.199L206.388 496.489L210.178 502H207.342Z" fill="#EDDEF1"/>
<path d="M305.767 499.955V498.017L310.625 490.364H312.295V493.045H311.307L308.244 497.892V497.983H315.148V499.955H305.767ZM311.352 502V499.364L311.398 498.506V490.364H313.705V502H311.352ZM318.006 502.148C317.631 502.148 317.309 502.015 317.04 501.75C316.775 501.481 316.642 501.159 316.642 500.784C316.642 500.413 316.775 500.095 317.04 499.83C317.309 499.564 317.631 499.432 318.006 499.432C318.369 499.432 318.688 499.564 318.96 499.83C319.233 500.095 319.369 500.413 319.369 500.784C319.369 501.034 319.305 501.263 319.176 501.472C319.051 501.676 318.886 501.841 318.682 501.966C318.477 502.087 318.252 502.148 318.006 502.148ZM324.943 490.364V502H322.483V492.699H322.415L319.75 494.369V492.188L322.631 490.364H324.943ZM329.925 499.489L329.93 496.585H330.283L333.078 493.273H335.857L332.101 497.659H331.527L329.925 499.489ZM327.732 502V490.364H330.152V502H327.732ZM333.186 502L330.618 498.199L332.232 496.489L336.021 502H333.186Z" fill="#EDDEF1"/>
</g>
<defs>
<filter id="filter0_d_1_5032" x="69.4119" y="45.473" width="253.681" height="35.2543" filterUnits="userSpaceOnUse" color-interpolation-filters="sRGB">
<feFlood flood-opacity="0" result="BackgroundImageFix"/>
<feColorMatrix in="SourceAlpha" type="matrix" values="0 0 0 0 0 0 0 0 0 0 0 0 0 0 0 0 0 0 127 0" result="hardAlpha"/>
<feOffset dy="4"/>
<feGaussianBlur stdDeviation="2"/>
<feComposite in2="hardAlpha" operator="out"/>
<feColorMatrix type="matrix" values="0 0 0 0 0 0 0 0 0 0 0 0 0 0 0 0 0 0 0.25 0"/>
<feBlend mode="normal" in2="BackgroundImageFix" result="effect1_dropShadow_1_5032"/>
<feBlend mode="normal" in="SourceGraphic" in2="effect1_dropShadow_1_5032" result="shape"/>
</filter>
<filter id="filter1_d_1_5032" x="9" y="86" width="308" height="56" filterUnits="userSpaceOnUse" color-interpolation-filters="sRGB">
<feFlood flood-opacity="0" result="BackgroundImageFix"/>
<feColorMatrix in="SourceAlpha" type="matrix" values="0 0 0 0 0 0 0 0 0 0 0 0 0 0 0 0 0 0 127 0" result="hardAlpha"/>
<feOffset dy="4"/>
<feGaussianBlur stdDeviation="2"/>
<feComposite in2="hardAlpha" operator="out"/>
<feColorMatrix type="matrix" values="0 0 0 0 0 0 0 0 0 0 0 0 0 0 0 0 0 0 0.25 0"/>
<feBlend mode="normal" in2="BackgroundImageFix" result="effect1_dropShadow_1_5032"/>
<feBlend mode="normal" in="SourceGraphic" in2="effect1_dropShadow_1_5032" result="shape"/>
</filter>
<clipPath id="clip0_1_5032">
<rect width="393" height="852" fill="white"/>
</clipPath>
</defs>
</svg>
