<svg width="393" height="852" viewBox="0 0 393 852" fill="none" xmlns="http://www.w3.org/2000/svg">
<rect width="393" height="852" fill="#120715"/>
<path d="M20.0469 132.875L12.1719 125L20.0469 117.125L21.8594 118.922L17.1016 123.68H28.25V126.32H17.1016L21.8594 131.07L20.0469 132.875ZM37.4727 133V117H43.7852C44.9935 117 46.0247 117.216 46.8789 117.648C47.7383 118.076 48.3919 118.682 48.8398 119.469C49.293 120.25 49.5195 121.169 49.5195 122.227C49.5195 123.289 49.2904 124.203 48.832 124.969C48.3737 125.729 47.7096 126.312 46.8398 126.719C45.9753 127.125 44.9284 127.328 43.6992 127.328H39.4727V124.609H43.1523C43.7982 124.609 44.3346 124.521 44.7617 124.344C45.1888 124.167 45.5065 123.901 45.7148 123.547C45.9284 123.193 46.0352 122.753 46.0352 122.227C46.0352 121.695 45.9284 121.247 45.7148 120.883C45.5065 120.518 45.1862 120.242 44.7539 120.055C44.3268 119.862 43.7878 119.766 43.1367 119.766H40.8555V133H37.4727ZM46.1133 125.719L50.0898 133H46.3555L42.4648 125.719H46.1133ZM57.123 133.234C55.8887 133.234 54.8262 132.984 53.9355 132.484C53.0501 131.979 52.3678 131.266 51.8887 130.344C51.4095 129.417 51.1699 128.32 51.1699 127.055C51.1699 125.82 51.4095 124.737 51.8887 123.805C52.3678 122.872 53.0423 122.146 53.9121 121.625C54.7871 121.104 55.8132 120.844 56.9902 120.844C57.7819 120.844 58.5189 120.971 59.2012 121.227C59.8887 121.477 60.4876 121.854 60.998 122.359C61.5137 122.865 61.9147 123.5 62.2012 124.266C62.4876 125.026 62.6309 125.917 62.6309 126.937V127.852H52.498V125.789H59.498C59.498 125.31 59.3939 124.885 59.1855 124.516C58.9772 124.146 58.6882 123.857 58.3184 123.648C57.9538 123.435 57.5293 123.328 57.0449 123.328C56.5397 123.328 56.0918 123.445 55.7012 123.68C55.3158 123.909 55.0137 124.219 54.7949 124.609C54.5762 124.995 54.4642 125.424 54.459 125.898V127.859C54.459 128.453 54.5684 128.966 54.7871 129.398C55.0111 129.831 55.3262 130.164 55.7324 130.398C56.1387 130.633 56.6204 130.75 57.1777 130.75C57.5475 130.75 57.8861 130.698 58.1934 130.594C58.5007 130.49 58.7637 130.333 58.9824 130.125C59.2012 129.917 59.3678 129.661 59.4824 129.359L62.5605 129.562C62.4043 130.302 62.084 130.948 61.5996 131.5C61.1204 132.047 60.5007 132.474 59.7402 132.781C58.985 133.083 58.1126 133.234 57.123 133.234ZM71.1855 121V123.5H63.959V121H71.1855ZM65.5996 118.125H68.9277V129.312C68.9277 129.62 68.9746 129.859 69.0684 130.031C69.1621 130.198 69.2923 130.315 69.459 130.383C69.6309 130.451 69.8288 130.484 70.0527 130.484C70.209 130.484 70.3652 130.471 70.5215 130.445C70.6777 130.414 70.7975 130.391 70.8809 130.375L71.4043 132.852C71.2376 132.904 71.0033 132.964 70.7012 133.031C70.3991 133.104 70.0319 133.148 69.5996 133.164C68.7975 133.195 68.0944 133.089 67.4902 132.844C66.8913 132.599 66.4251 132.219 66.0918 131.703C65.7585 131.187 65.5944 130.536 65.5996 129.75V118.125ZM78.6465 133.234C77.4329 133.234 76.3835 132.977 75.498 132.461C74.6178 131.94 73.9382 131.216 73.459 130.289C72.9798 129.357 72.7402 128.276 72.7402 127.047C72.7402 125.807 72.9798 124.724 73.459 123.797C73.9382 122.865 74.6178 122.141 75.498 121.625C76.3835 121.104 77.4329 120.844 78.6465 120.844C79.86 120.844 80.9069 121.104 81.7871 121.625C82.6725 122.141 83.3548 122.865 83.834 123.797C84.3132 124.724 84.5527 125.807 84.5527 127.047C84.5527 128.276 84.3132 129.357 83.834 130.289C83.3548 131.216 82.6725 131.94 81.7871 132.461C80.9069 132.977 79.86 133.234 78.6465 133.234ZM78.6621 130.656C79.2142 130.656 79.6751 130.5 80.0449 130.188C80.4147 129.87 80.6934 129.437 80.8809 128.891C81.0736 128.344 81.1699 127.721 81.1699 127.023C81.1699 126.326 81.0736 125.703 80.8809 125.156C80.6934 124.609 80.4147 124.177 80.0449 123.859C79.6751 123.542 79.2142 123.383 78.6621 123.383C78.1048 123.383 77.6361 123.542 77.2559 123.859C76.8809 124.177 76.597 124.609 76.4043 125.156C76.2168 125.703 76.123 126.326 76.123 127.023C76.123 127.721 76.2168 128.344 76.4043 128.891C76.597 129.437 76.8809 129.87 77.2559 130.188C77.6361 130.5 78.1048 130.656 78.6621 130.656ZM94.4121 127.891V121H97.7402V133H94.5449V130.82H94.4199C94.1491 131.523 93.6986 132.089 93.0684 132.516C92.4434 132.943 91.6803 133.156 90.7793 133.156C89.9772 133.156 89.2715 132.974 88.6621 132.609C88.0527 132.245 87.5762 131.727 87.2324 131.055C86.8939 130.383 86.722 129.578 86.7168 128.641V121H90.0449V128.047C90.0501 128.755 90.2402 129.315 90.6152 129.727C90.9902 130.138 91.4928 130.344 92.123 130.344C92.5241 130.344 92.8991 130.253 93.248 130.07C93.597 129.883 93.8783 129.607 94.0918 129.242C94.3105 128.878 94.4173 128.427 94.4121 127.891ZM100.402 133V121H103.629V123.094H103.754C103.973 122.349 104.34 121.786 104.855 121.406C105.371 121.021 105.965 120.828 106.637 120.828C106.803 120.828 106.983 120.839 107.176 120.859C107.368 120.88 107.538 120.909 107.684 120.945V123.898C107.527 123.852 107.311 123.81 107.035 123.773C106.759 123.737 106.507 123.719 106.277 123.719C105.788 123.719 105.35 123.826 104.965 124.039C104.585 124.247 104.283 124.539 104.059 124.914C103.84 125.289 103.73 125.721 103.73 126.211V133H100.402Z" fill="#D492E6"/>
<path d="M129.148 69H125.523L131.047 53H135.406L140.922 69H137.297L133.289 56.6562H133.164L129.148 69ZM128.922 62.7109H137.484V65.3516H128.922V62.7109ZM142.785 57H146.113V69.5938C146.113 70.5208 145.931 71.2708 145.566 71.8438C145.202 72.4167 144.678 72.8359 143.996 73.1016C143.319 73.3672 142.509 73.5 141.566 73.5C141.452 73.5 141.342 73.4974 141.238 73.4922C141.129 73.4922 141.014 73.4896 140.895 73.4844V70.8828C140.983 70.888 141.061 70.8906 141.129 70.8906C141.191 70.8958 141.259 70.8984 141.332 70.8984C141.868 70.8984 142.243 70.7839 142.457 70.5547C142.676 70.3307 142.785 69.9922 142.785 69.5391V57ZM144.441 55.4531C143.952 55.4531 143.53 55.2891 143.176 54.9609C142.822 54.6276 142.645 54.2292 142.645 53.7656C142.645 53.3073 142.822 52.9141 143.176 52.5859C143.53 52.2526 143.952 52.0859 144.441 52.0859C144.941 52.0859 145.366 52.2526 145.715 52.5859C146.069 52.9141 146.246 53.3073 146.246 53.7656C146.246 54.2292 146.069 54.6276 145.715 54.9609C145.366 55.2891 144.941 55.4531 144.441 55.4531ZM154.201 69.2344C152.988 69.2344 151.938 68.9766 151.053 68.4609C150.173 67.9401 149.493 67.2161 149.014 66.2891C148.535 65.3568 148.295 64.276 148.295 63.0469C148.295 61.8073 148.535 60.724 149.014 59.7969C149.493 58.8646 150.173 58.1406 151.053 57.625C151.938 57.1042 152.988 56.8438 154.201 56.8438C155.415 56.8438 156.462 57.1042 157.342 57.625C158.227 58.1406 158.91 58.8646 159.389 59.7969C159.868 60.724 160.107 61.8073 160.107 63.0469C160.107 64.276 159.868 65.3568 159.389 66.2891C158.91 67.2161 158.227 67.9401 157.342 68.4609C156.462 68.9766 155.415 69.2344 154.201 69.2344ZM154.217 66.6562C154.769 66.6562 155.23 66.5 155.6 66.1875C155.969 65.8698 156.248 65.4375 156.436 64.8906C156.628 64.3437 156.725 63.7214 156.725 63.0234C156.725 62.3255 156.628 61.7031 156.436 61.1562C156.248 60.6094 155.969 60.1771 155.6 59.8594C155.23 59.5417 154.769 59.3828 154.217 59.3828C153.66 59.3828 153.191 59.5417 152.811 59.8594C152.436 60.1771 152.152 60.6094 151.959 61.1562C151.771 61.7031 151.678 62.3255 151.678 63.0234C151.678 63.7214 151.771 64.3437 151.959 64.8906C152.152 65.4375 152.436 65.8698 152.811 66.1875C153.191 66.5 153.66 66.6562 154.217 66.6562ZM169.967 63.8906V57H173.295V69H170.1V66.8203H169.975C169.704 67.5234 169.253 68.0885 168.623 68.5156C167.998 68.9427 167.235 69.1563 166.334 69.1563C165.532 69.1563 164.826 68.974 164.217 68.6094C163.607 68.2448 163.131 67.7266 162.787 67.0547C162.449 66.3828 162.277 65.5781 162.271 64.6406V57H165.6V64.0469C165.605 64.7552 165.795 65.3151 166.17 65.7266C166.545 66.138 167.048 66.3437 167.678 66.3437C168.079 66.3437 168.454 66.2526 168.803 66.0703C169.152 65.8828 169.433 65.6068 169.646 65.2422C169.865 64.8776 169.972 64.4271 169.967 63.8906ZM182.34 57V59.5H175.113V57H182.34ZM176.754 54.125H180.082V65.3125C180.082 65.6198 180.129 65.8594 180.223 66.0312C180.316 66.1979 180.447 66.3151 180.613 66.3828C180.785 66.4505 180.983 66.4844 181.207 66.4844C181.363 66.4844 181.52 66.4714 181.676 66.4453C181.832 66.4141 181.952 66.3906 182.035 66.375L182.559 68.8516C182.392 68.9036 182.158 68.9635 181.855 69.0313C181.553 69.1042 181.186 69.1484 180.754 69.1641C179.952 69.1953 179.249 69.0885 178.645 68.8437C178.046 68.599 177.579 68.2187 177.246 67.7031C176.913 67.1875 176.749 66.5365 176.754 65.75V54.125ZM189.662 53H193.834L198.24 63.75H198.428L202.834 53H207.006V69H203.725V58.5859H203.592L199.451 68.9219H197.217L193.076 58.5469H192.943V69H189.662V53ZM213.152 69.2266C212.387 69.2266 211.704 69.0938 211.105 68.8281C210.507 68.5573 210.033 68.1589 209.684 67.6328C209.34 67.1016 209.168 66.4401 209.168 65.6484C209.168 64.9818 209.29 64.4219 209.535 63.9687C209.78 63.5156 210.113 63.151 210.535 62.875C210.957 62.599 211.436 62.3906 211.973 62.25C212.514 62.1094 213.082 62.0104 213.676 61.9531C214.374 61.8802 214.936 61.8125 215.363 61.75C215.79 61.6823 216.1 61.5833 216.293 61.4531C216.486 61.3229 216.582 61.1302 216.582 60.875V60.8281C216.582 60.3333 216.426 59.9505 216.113 59.6797C215.806 59.4089 215.368 59.2734 214.801 59.2734C214.202 59.2734 213.725 59.4062 213.371 59.6719C213.017 59.9323 212.783 60.2604 212.668 60.6562L209.59 60.4062C209.746 59.6771 210.053 59.0469 210.512 58.5156C210.97 57.9792 211.561 57.5677 212.285 57.2812C213.014 56.9896 213.858 56.8438 214.816 56.8438C215.483 56.8438 216.121 56.9219 216.73 57.0781C217.345 57.2344 217.889 57.4766 218.363 57.8047C218.842 58.1328 219.22 58.5547 219.496 59.0703C219.772 59.5807 219.91 60.1927 219.91 60.9062V69H216.754V67.3359H216.66C216.467 67.7109 216.21 68.0417 215.887 68.3281C215.564 68.6094 215.176 68.8307 214.723 68.9922C214.27 69.1484 213.746 69.2266 213.152 69.2266ZM214.105 66.9297C214.595 66.9297 215.027 66.8333 215.402 66.6406C215.777 66.4427 216.072 66.1771 216.285 65.8438C216.499 65.5104 216.605 65.1328 216.605 64.7109V63.4375C216.501 63.5052 216.358 63.5677 216.176 63.625C215.999 63.6771 215.798 63.7266 215.574 63.7734C215.35 63.8151 215.126 63.8542 214.902 63.8906C214.678 63.9219 214.475 63.9505 214.293 63.9766C213.902 64.0339 213.561 64.125 213.27 64.25C212.978 64.375 212.751 64.5443 212.59 64.7578C212.428 64.9661 212.348 65.2266 212.348 65.5391C212.348 65.9922 212.512 66.3385 212.84 66.5781C213.173 66.8125 213.595 66.9297 214.105 66.9297ZM225.82 62.0625V69H222.492V57H225.664V59.1172H225.805C226.07 58.4193 226.516 57.8672 227.141 57.4609C227.766 57.0495 228.523 56.8438 229.414 56.8438C230.247 56.8438 230.974 57.026 231.594 57.3906C232.214 57.7552 232.695 58.276 233.039 58.9531C233.383 59.625 233.555 60.4271 233.555 61.3594V69H230.227V61.9531C230.232 61.2187 230.044 60.6458 229.664 60.2344C229.284 59.8177 228.76 59.6094 228.094 59.6094C227.646 59.6094 227.25 59.7057 226.906 59.8984C226.568 60.0911 226.302 60.3724 226.109 60.7422C225.922 61.1068 225.826 61.5469 225.82 62.0625ZM243.873 63.8906V57H247.201V69H244.006V66.8203H243.881C243.61 67.5234 243.16 68.0885 242.529 68.5156C241.904 68.9427 241.141 69.1563 240.24 69.1563C239.438 69.1563 238.732 68.974 238.123 68.6094C237.514 68.2448 237.037 67.7266 236.693 67.0547C236.355 66.3828 236.183 65.5781 236.178 64.6406V57H239.506V64.0469C239.511 64.7552 239.701 65.3151 240.076 65.7266C240.451 66.138 240.954 66.3437 241.584 66.3437C241.985 66.3437 242.36 66.2526 242.709 66.0703C243.058 65.8828 243.339 65.6068 243.553 65.2422C243.771 64.8776 243.878 64.4271 243.873 63.8906ZM255.332 69.2344C254.098 69.2344 253.035 68.9844 252.145 68.4844C251.259 67.9792 250.577 67.2656 250.098 66.3437C249.618 65.4167 249.379 64.3203 249.379 63.0547C249.379 61.8203 249.618 60.737 250.098 59.8047C250.577 58.8724 251.251 58.1458 252.121 57.625C252.996 57.1042 254.022 56.8438 255.199 56.8438C255.991 56.8438 256.728 56.9714 257.41 57.2266C258.098 57.4766 258.697 57.8542 259.207 58.3594C259.723 58.8646 260.124 59.5 260.41 60.2656C260.697 61.026 260.84 61.9167 260.84 62.9375V63.8516H250.707V61.7891H257.707C257.707 61.3099 257.603 60.8854 257.395 60.5156C257.186 60.1458 256.897 59.8568 256.527 59.6484C256.163 59.4349 255.738 59.3281 255.254 59.3281C254.749 59.3281 254.301 59.4453 253.91 59.6797C253.525 59.9089 253.223 60.2187 253.004 60.6094C252.785 60.9948 252.673 61.4245 252.668 61.8984V63.8594C252.668 64.4531 252.777 64.9661 252.996 65.3984C253.22 65.8307 253.535 66.1641 253.941 66.3984C254.348 66.6328 254.829 66.75 255.387 66.75C255.757 66.75 256.095 66.6979 256.402 66.5938C256.71 66.4896 256.973 66.3333 257.191 66.125C257.41 65.9167 257.577 65.6615 257.691 65.3594L260.77 65.5625C260.613 66.3021 260.293 66.9479 259.809 67.5C259.329 68.0469 258.71 68.474 257.949 68.7813C257.194 69.0833 256.322 69.2344 255.332 69.2344ZM266.34 53V69H263.012V53H266.34Z" fill="#EDDEF1"/>
<rect x="137" y="161" width="120" height="120" fill="#D492E6"/>
<path d="M157.989 221H155.682L159.197 210.818H161.971L165.481 221H163.174L160.623 213.145H160.544L157.989 221ZM157.844 216.998H163.293V218.678H157.844V216.998ZM166.666 213.364H168.784V221.378C168.784 221.968 168.668 222.445 168.436 222.81C168.204 223.174 167.871 223.441 167.437 223.61C167.006 223.779 166.491 223.864 165.891 223.864C165.818 223.864 165.748 223.862 165.682 223.859C165.612 223.859 165.54 223.857 165.463 223.854V222.198C165.52 222.201 165.569 222.203 165.612 222.203C165.652 222.206 165.695 222.208 165.742 222.208C166.083 222.208 166.322 222.135 166.458 221.989C166.597 221.847 166.666 221.631 166.666 221.343V213.364ZM167.72 212.379C167.409 212.379 167.14 212.275 166.915 212.066C166.69 211.854 166.577 211.6 166.577 211.305C166.577 211.014 166.69 210.763 166.915 210.555C167.14 210.343 167.409 210.237 167.72 210.237C168.039 210.237 168.309 210.343 168.531 210.555C168.756 210.763 168.869 211.014 168.869 211.305C168.869 211.6 168.756 211.854 168.531 212.066C168.309 212.275 168.039 212.379 167.72 212.379ZM173.931 221.149C173.159 221.149 172.491 220.985 171.928 220.657C171.368 220.326 170.935 219.865 170.63 219.275C170.325 218.682 170.173 217.994 170.173 217.212C170.173 216.423 170.325 215.733 170.63 215.143C170.935 214.55 171.368 214.089 171.928 213.761C172.491 213.43 173.159 213.264 173.931 213.264C174.703 213.264 175.37 213.43 175.93 213.761C176.493 214.089 176.927 214.55 177.232 215.143C177.537 215.733 177.69 216.423 177.69 217.212C177.69 217.994 177.537 218.682 177.232 219.275C176.927 219.865 176.493 220.326 175.93 220.657C175.37 220.985 174.703 221.149 173.931 221.149ZM173.941 219.509C174.292 219.509 174.586 219.409 174.821 219.21C175.056 219.008 175.234 218.733 175.353 218.385C175.476 218.037 175.537 217.641 175.537 217.197C175.537 216.753 175.476 216.357 175.353 216.009C175.234 215.661 175.056 215.385 174.821 215.183C174.586 214.981 174.292 214.88 173.941 214.88C173.586 214.88 173.288 214.981 173.046 215.183C172.808 215.385 172.627 215.661 172.504 216.009C172.385 216.357 172.325 216.753 172.325 217.197C172.325 217.641 172.385 218.037 172.504 218.385C172.627 218.733 172.808 219.008 173.046 219.21C173.288 219.409 173.586 219.509 173.941 219.509ZM183.964 217.749V213.364H186.082V221H184.048V219.613H183.969C183.796 220.06 183.51 220.42 183.109 220.692C182.711 220.964 182.225 221.099 181.652 221.099C181.142 221.099 180.693 220.983 180.305 220.751C179.917 220.519 179.614 220.19 179.395 219.762C179.18 219.335 179.07 218.822 179.067 218.226V213.364H181.185V217.848C181.188 218.299 181.309 218.655 181.548 218.917C181.786 219.179 182.106 219.31 182.507 219.31C182.762 219.31 183.001 219.252 183.223 219.136C183.445 219.016 183.624 218.841 183.76 218.609C183.899 218.377 183.967 218.09 183.964 217.749ZM191.838 213.364V214.955H187.239V213.364H191.838ZM188.283 211.534H190.401V218.653C190.401 218.849 190.431 219.001 190.49 219.111C190.55 219.217 190.633 219.291 190.739 219.335C190.848 219.378 190.974 219.399 191.117 219.399C191.216 219.399 191.316 219.391 191.415 219.374C191.514 219.354 191.591 219.339 191.644 219.33L191.977 220.906C191.871 220.939 191.722 220.977 191.529 221.02C191.337 221.066 191.103 221.094 190.828 221.104C190.318 221.124 189.871 221.056 189.486 220.901C189.105 220.745 188.808 220.503 188.596 220.175C188.384 219.847 188.28 219.432 188.283 218.932V211.534ZM196.615 221.149C195.83 221.149 195.154 220.99 194.587 220.672C194.023 220.35 193.589 219.896 193.284 219.31C192.979 218.72 192.827 218.022 192.827 217.217C192.827 216.431 192.979 215.742 193.284 215.148C193.589 214.555 194.018 214.093 194.572 213.761C195.129 213.43 195.782 213.264 196.531 213.264C197.035 213.264 197.504 213.345 197.938 213.508C198.375 213.667 198.756 213.907 199.081 214.229C199.409 214.55 199.665 214.955 199.847 215.442C200.029 215.926 200.12 216.492 200.12 217.142V217.724H193.672V216.411H198.127C198.127 216.106 198.06 215.836 197.928 215.601C197.795 215.366 197.611 215.182 197.376 215.049C197.144 214.913 196.874 214.845 196.566 214.845C196.244 214.845 195.959 214.92 195.71 215.069C195.465 215.215 195.273 215.412 195.134 215.661C194.995 215.906 194.923 216.179 194.92 216.481V217.729C194.92 218.107 194.99 218.433 195.129 218.708C195.271 218.983 195.472 219.195 195.73 219.344C195.989 219.494 196.295 219.568 196.65 219.568C196.885 219.568 197.101 219.535 197.296 219.469C197.492 219.402 197.659 219.303 197.799 219.17C197.938 219.038 198.044 218.875 198.117 218.683L200.076 218.812C199.976 219.283 199.772 219.694 199.464 220.045C199.159 220.393 198.765 220.665 198.281 220.861C197.8 221.053 197.245 221.149 196.615 221.149ZM201.502 221V213.364H203.556V214.696H203.635C203.774 214.222 204.008 213.864 204.336 213.622C204.664 213.377 205.042 213.254 205.47 213.254C205.576 213.254 205.69 213.261 205.813 213.274C205.935 213.287 206.043 213.306 206.136 213.329V215.208C206.036 215.178 205.899 215.152 205.723 215.129C205.548 215.105 205.387 215.094 205.241 215.094C204.929 215.094 204.651 215.162 204.406 215.298C204.164 215.43 203.972 215.616 203.829 215.854C203.69 216.093 203.62 216.368 203.62 216.68V221H201.502ZM215.368 217.749V213.364H217.486V221H215.453V219.613H215.373C215.201 220.06 214.914 220.42 214.513 220.692C214.115 220.964 213.63 221.099 213.056 221.099C212.546 221.099 212.097 220.983 211.709 220.751C211.321 220.519 211.018 220.19 210.799 219.762C210.584 219.335 210.474 218.822 210.471 218.226V213.364H212.589V217.848C212.592 218.299 212.713 218.655 212.952 218.917C213.191 219.179 213.51 219.31 213.911 219.31C214.167 219.31 214.405 219.252 214.627 219.136C214.849 219.016 215.028 218.841 215.164 218.609C215.304 218.377 215.371 218.09 215.368 217.749ZM221.298 216.585V221H219.18V213.364H221.199V214.711H221.288C221.457 214.267 221.741 213.915 222.138 213.657C222.536 213.395 223.018 213.264 223.585 213.264C224.115 213.264 224.578 213.38 224.972 213.612C225.366 213.844 225.673 214.176 225.892 214.607C226.111 215.034 226.22 215.545 226.22 216.138V221H224.102V216.516C224.105 216.048 223.986 215.684 223.744 215.422C223.502 215.157 223.169 215.024 222.745 215.024C222.46 215.024 222.208 215.085 221.989 215.208C221.774 215.331 221.605 215.51 221.482 215.745C221.363 215.977 221.301 216.257 221.298 216.585ZM231.369 221.149C230.584 221.149 229.908 220.99 229.341 220.672C228.777 220.35 228.343 219.896 228.038 219.31C227.733 218.72 227.581 218.022 227.581 217.217C227.581 216.431 227.733 215.742 228.038 215.148C228.343 214.555 228.772 214.093 229.326 213.761C229.883 213.43 230.536 213.264 231.285 213.264C231.789 213.264 232.257 213.345 232.692 213.508C233.129 213.667 233.51 213.907 233.835 214.229C234.163 214.55 234.418 214.955 234.601 215.442C234.783 215.926 234.874 216.492 234.874 217.142V217.724H228.426V216.411H232.881C232.881 216.106 232.814 215.836 232.682 215.601C232.549 215.366 232.365 215.182 232.13 215.049C231.898 214.913 231.628 214.845 231.32 214.845C230.998 214.845 230.713 214.92 230.464 215.069C230.219 215.215 230.027 215.412 229.888 215.661C229.748 215.906 229.677 216.179 229.674 216.481V217.729C229.674 218.107 229.744 218.433 229.883 218.708C230.025 218.983 230.226 219.195 230.484 219.344C230.743 219.494 231.049 219.568 231.404 219.568C231.639 219.568 231.855 219.535 232.05 219.469C232.246 219.402 232.413 219.303 232.552 219.17C232.692 219.038 232.798 218.875 232.871 218.683L234.829 218.812C234.73 219.283 234.526 219.694 234.218 220.045C233.913 220.393 233.519 220.665 233.035 220.861C232.554 221.053 231.999 221.149 231.369 221.149ZM177.782 240.864V230.364H179.87V231.646H179.964C180.057 231.441 180.191 231.232 180.367 231.02C180.546 230.804 180.778 230.625 181.063 230.483C181.351 230.337 181.709 230.264 182.137 230.264C182.694 230.264 183.207 230.41 183.678 230.702C184.149 230.99 184.525 231.426 184.807 232.009C185.088 232.589 185.229 233.317 185.229 234.192C185.229 235.044 185.092 235.763 184.816 236.349C184.545 236.933 184.174 237.375 183.703 237.677C183.236 237.975 182.712 238.124 182.132 238.124C181.721 238.124 181.371 238.056 181.083 237.92C180.798 237.785 180.564 237.614 180.382 237.408C180.2 237.2 180.06 236.989 179.964 236.777H179.9V240.864H177.782ZM179.855 234.182C179.855 234.636 179.918 235.032 180.044 235.37C180.17 235.708 180.352 235.972 180.591 236.161C180.829 236.346 181.119 236.439 181.461 236.439C181.805 236.439 182.097 236.344 182.336 236.156C182.574 235.963 182.755 235.698 182.878 235.36C183.004 235.019 183.066 234.626 183.066 234.182C183.066 233.741 183.005 233.353 182.883 233.018C182.76 232.684 182.579 232.422 182.341 232.233C182.102 232.044 181.809 231.95 181.461 231.95C181.116 231.95 180.824 232.041 180.586 232.223C180.35 232.405 180.17 232.664 180.044 232.999C179.918 233.333 179.855 233.728 179.855 234.182ZM188.759 233.585V238H186.641V227.818H188.699V231.711H188.789C188.961 231.26 189.24 230.907 189.624 230.652C190.008 230.393 190.491 230.264 191.071 230.264C191.601 230.264 192.063 230.38 192.458 230.612C192.856 230.841 193.164 231.171 193.383 231.602C193.605 232.029 193.714 232.541 193.711 233.138V238H191.593V233.516C191.596 233.045 191.477 232.679 191.235 232.417C190.996 232.155 190.661 232.024 190.231 232.024C189.942 232.024 189.687 232.085 189.465 232.208C189.246 232.331 189.074 232.51 188.948 232.745C188.825 232.977 188.762 233.257 188.759 233.585ZM198.828 238.149C198.055 238.149 197.388 237.985 196.824 237.657C196.264 237.326 195.831 236.865 195.527 236.275C195.222 235.682 195.069 234.994 195.069 234.212C195.069 233.423 195.222 232.733 195.527 232.143C195.831 231.55 196.264 231.089 196.824 230.761C197.388 230.43 198.055 230.264 198.828 230.264C199.6 230.264 200.266 230.43 200.826 230.761C201.39 231.089 201.824 231.55 202.129 232.143C202.434 232.733 202.586 233.423 202.586 234.212C202.586 234.994 202.434 235.682 202.129 236.275C201.824 236.865 201.39 237.326 200.826 237.657C200.266 237.985 199.6 238.149 198.828 238.149ZM198.838 236.509C199.189 236.509 199.482 236.409 199.718 236.21C199.953 236.008 200.13 235.733 200.25 235.385C200.372 235.037 200.434 234.641 200.434 234.197C200.434 233.753 200.372 233.357 200.25 233.009C200.13 232.661 199.953 232.385 199.718 232.183C199.482 231.981 199.189 231.88 198.838 231.88C198.483 231.88 198.185 231.981 197.943 232.183C197.704 232.385 197.523 232.661 197.401 233.009C197.282 233.357 197.222 233.753 197.222 234.197C197.222 234.641 197.282 235.037 197.401 235.385C197.523 235.733 197.704 236.008 197.943 236.21C198.185 236.409 198.483 236.509 198.838 236.509ZM208.025 230.364V231.955H203.426V230.364H208.025ZM204.47 228.534H206.588V235.653C206.588 235.849 206.618 236.001 206.678 236.111C206.737 236.217 206.82 236.291 206.926 236.335C207.036 236.378 207.162 236.399 207.304 236.399C207.404 236.399 207.503 236.391 207.603 236.374C207.702 236.354 207.778 236.339 207.831 236.33L208.164 237.906C208.058 237.939 207.909 237.977 207.717 238.02C207.525 238.066 207.291 238.094 207.016 238.104C206.505 238.124 206.058 238.056 205.674 237.901C205.292 237.745 204.996 237.503 204.784 237.175C204.572 236.847 204.467 236.432 204.47 235.932V228.534ZM212.773 238.149C212.001 238.149 211.333 237.985 210.769 237.657C210.209 237.326 209.777 236.865 209.472 236.275C209.167 235.682 209.014 234.994 209.014 234.212C209.014 233.423 209.167 232.733 209.472 232.143C209.777 231.55 210.209 231.089 210.769 230.761C211.333 230.43 212.001 230.264 212.773 230.264C213.545 230.264 214.211 230.43 214.772 230.761C215.335 231.089 215.769 231.55 216.074 232.143C216.379 232.733 216.532 233.423 216.532 234.212C216.532 234.994 216.379 235.682 216.074 236.275C215.769 236.865 215.335 237.326 214.772 237.657C214.211 237.985 213.545 238.149 212.773 238.149ZM212.783 236.509C213.134 236.509 213.428 236.409 213.663 236.21C213.898 236.008 214.076 235.733 214.195 235.385C214.318 235.037 214.379 234.641 214.379 234.197C214.379 233.753 214.318 233.357 214.195 233.009C214.076 232.661 213.898 232.385 213.663 232.183C213.428 231.981 213.134 231.88 212.783 231.88C212.428 231.88 212.13 231.981 211.888 232.183C211.649 232.385 211.469 232.661 211.346 233.009C211.227 233.357 211.167 233.753 211.167 234.197C211.167 234.641 211.227 235.037 211.346 235.385C211.469 235.733 211.649 236.008 211.888 236.21C212.13 236.409 212.428 236.509 212.783 236.509Z" fill="#EDDEF1"/>
<rect x="17.5" y="318.5" width="359" height="47" rx="7.5" fill="#7D1797" stroke="black"/>
<path d="M25.5128 338.593V336.818H33.875V338.593H30.7578V347H28.63V338.593H25.5128ZM35.2124 347V339.364H37.3303V347H35.2124ZM36.2763 338.379C35.9614 338.379 35.6913 338.275 35.4659 338.066C35.2438 337.854 35.1328 337.6 35.1328 337.305C35.1328 337.014 35.2438 336.763 35.4659 336.555C35.6913 336.343 35.9614 336.237 36.2763 336.237C36.5911 336.237 36.8596 336.343 37.0817 336.555C37.3071 336.763 37.4197 337.014 37.4197 337.305C37.4197 337.6 37.3071 337.854 37.0817 338.066C36.8596 338.275 36.5911 338.379 36.2763 338.379ZM43.0886 339.364V340.955H38.4899V339.364H43.0886ZM39.5339 337.534H41.6518V344.653C41.6518 344.849 41.6816 345.001 41.7413 345.111C41.801 345.217 41.8838 345.291 41.9899 345.335C42.0993 345.378 42.2252 345.399 42.3677 345.399C42.4672 345.399 42.5666 345.391 42.666 345.374C42.7654 345.354 42.8417 345.339 42.8947 345.33L43.2278 346.906C43.1217 346.939 42.9726 346.977 42.7804 347.02C42.5881 347.066 42.3545 347.094 42.0794 347.104C41.569 347.124 41.1215 347.056 40.737 346.901C40.3559 346.745 40.0592 346.503 39.8471 346.175C39.635 345.847 39.5306 345.432 39.5339 344.932V337.534ZM44.4682 347V339.364H46.5215V340.696H46.601C46.7402 340.222 46.9739 339.864 47.302 339.622C47.6301 339.377 48.008 339.254 48.4355 339.254C48.5416 339.254 48.656 339.261 48.7786 339.274C48.9012 339.287 49.0089 339.306 49.1017 339.329V341.208C49.0023 341.178 48.8648 341.152 48.6891 341.129C48.5134 341.105 48.3527 341.094 48.2069 341.094C47.8953 341.094 47.6169 341.162 47.3716 341.298C47.1297 341.43 46.9374 341.616 46.7949 341.854C46.6557 342.093 46.5861 342.368 46.5861 342.68V347H44.4682ZM53.3214 347.149C52.5359 347.149 51.8597 346.99 51.293 346.672C50.7295 346.35 50.2953 345.896 49.9904 345.31C49.6855 344.72 49.533 344.022 49.533 343.217C49.533 342.431 49.6855 341.742 49.9904 341.148C50.2953 340.555 50.7246 340.093 51.2781 339.761C51.8349 339.43 52.4878 339.264 53.2369 339.264C53.7406 339.264 54.2096 339.345 54.6438 339.508C55.0813 339.667 55.4625 339.907 55.7873 340.229C56.1154 340.55 56.3706 340.955 56.5529 341.442C56.7352 341.926 56.8263 342.492 56.8263 343.142V343.724H50.3782V342.411H54.8327C54.8327 342.106 54.7665 341.836 54.6339 341.601C54.5013 341.366 54.3174 341.182 54.082 341.049C53.85 340.913 53.5799 340.845 53.2717 340.845C52.9502 340.845 52.6651 340.92 52.4165 341.069C52.1713 341.215 51.979 341.412 51.8398 341.661C51.7006 341.906 51.6294 342.179 51.6261 342.481V343.729C51.6261 344.107 51.6957 344.433 51.8349 344.708C51.9774 344.983 52.1779 345.195 52.4364 345.344C52.695 345.494 53.0015 345.568 53.3562 345.568C53.5915 345.568 53.8069 345.535 54.0025 345.469C54.198 345.402 54.3654 345.303 54.5046 345.17C54.6438 345.038 54.7499 344.875 54.8228 344.683L56.7816 344.812C56.6822 345.283 56.4783 345.694 56.1701 346.045C55.8652 346.393 55.4708 346.665 54.9869 346.861C54.5063 347.053 53.9511 347.149 53.3214 347.149ZM64.2626 347.124C63.6826 347.124 63.1573 346.975 62.6866 346.677C62.2193 346.375 61.8481 345.933 61.573 345.349C61.3012 344.763 61.1653 344.044 61.1653 343.192C61.1653 342.317 61.3062 341.589 61.5879 341.009C61.8696 340.426 62.2441 339.99 62.7115 339.702C63.1821 339.41 63.6975 339.264 64.2576 339.264C64.6852 339.264 65.0415 339.337 65.3265 339.483C65.6149 339.625 65.8469 339.804 66.0225 340.02C66.2015 340.232 66.3374 340.441 66.4302 340.646H66.4949V336.818H68.6078V347H66.5197V345.777H66.4302C66.3308 345.989 66.1899 346.2 66.0076 346.408C65.8287 346.614 65.595 346.785 65.3066 346.92C65.0216 347.056 64.6736 347.124 64.2626 347.124ZM64.9338 345.439C65.2752 345.439 65.5635 345.346 65.7988 345.161C66.0375 344.972 66.2198 344.708 66.3457 344.37C66.475 344.032 66.5396 343.636 66.5396 343.182C66.5396 342.728 66.4766 342.333 66.3507 341.999C66.2247 341.664 66.0424 341.405 65.8038 341.223C65.5652 341.041 65.2752 340.95 64.9338 340.95C64.5858 340.95 64.2924 341.044 64.0538 341.233C63.8152 341.422 63.6345 341.684 63.5119 342.018C63.3893 342.353 63.3279 342.741 63.3279 343.182C63.3279 343.626 63.3893 344.019 63.5119 344.36C63.6378 344.698 63.8185 344.963 64.0538 345.156C64.2924 345.344 64.5858 345.439 64.9338 345.439ZM73.8292 347.149C73.0437 347.149 72.3675 346.99 71.8008 346.672C71.2373 346.35 70.8031 345.896 70.4982 345.31C70.1933 344.72 70.0408 344.022 70.0408 343.217C70.0408 342.431 70.1933 341.742 70.4982 341.148C70.8031 340.555 71.2324 340.093 71.7859 339.761C72.3427 339.43 72.9956 339.264 73.7447 339.264C74.2485 339.264 74.7174 339.345 75.1516 339.508C75.5891 339.667 75.9703 339.907 76.2951 340.229C76.6232 340.55 76.8784 340.955 77.0607 341.442C77.243 341.926 77.3342 342.492 77.3342 343.142V343.724H70.886V342.411H75.3406C75.3406 342.106 75.2743 341.836 75.1417 341.601C75.0091 341.366 74.8252 341.182 74.5898 341.049C74.3578 340.913 74.0877 340.845 73.7795 340.845C73.458 340.845 73.1729 340.92 72.9244 341.069C72.6791 341.215 72.4869 341.412 72.3477 341.661C72.2085 341.906 72.1372 342.179 72.1339 342.481V343.729C72.1339 344.107 72.2035 344.433 72.3427 344.708C72.4852 344.983 72.6857 345.195 72.9442 345.344C73.2028 345.494 73.5094 345.568 73.864 345.568C74.0993 345.568 74.3147 345.535 74.5103 345.469C74.7058 345.402 74.8732 345.303 75.0124 345.17C75.1516 345.038 75.2577 344.875 75.3306 344.683L77.2894 344.812C77.19 345.283 76.9862 345.694 76.6779 346.045C76.373 346.393 75.9786 346.665 75.4947 346.861C75.0141 347.053 74.4589 347.149 73.8292 347.149ZM84.0744 336.818V347H81.9565V336.818H84.0744ZM87.5458 336.818V337.892C87.5458 338.197 87.4862 338.509 87.3668 338.827C87.2508 339.142 87.0951 339.44 86.8995 339.722C86.704 340 86.4902 340.237 86.2582 340.433L85.3235 339.881C85.4892 339.619 85.6351 339.329 85.761 339.011C85.8903 338.692 85.9549 338.323 85.9549 337.902V336.818H87.5458ZM91.5318 347.149C90.7595 347.149 90.0917 346.985 89.5282 346.657C88.9681 346.326 88.5356 345.865 88.2306 345.275C87.9257 344.682 87.7733 343.994 87.7733 343.212C87.7733 342.423 87.9257 341.733 88.2306 341.143C88.5356 340.55 88.9681 340.089 89.5282 339.761C90.0917 339.43 90.7595 339.264 91.5318 339.264C92.304 339.264 92.9702 339.43 93.5304 339.761C94.0938 340.089 94.528 340.55 94.8329 341.143C95.1378 341.733 95.2903 342.423 95.2903 343.212C95.2903 343.994 95.1378 344.682 94.8329 345.275C94.528 345.865 94.0938 346.326 93.5304 346.657C92.9702 346.985 92.304 347.149 91.5318 347.149ZM91.5417 345.509C91.8931 345.509 92.1864 345.409 92.4217 345.21C92.657 345.008 92.8343 344.733 92.9537 344.385C93.0763 344.037 93.1376 343.641 93.1376 343.197C93.1376 342.753 93.0763 342.357 92.9537 342.009C92.8343 341.661 92.657 341.385 92.4217 341.183C92.1864 340.981 91.8931 340.88 91.5417 340.88C91.1871 340.88 90.8888 340.981 90.6468 341.183C90.4082 341.385 90.2276 341.661 90.1049 342.009C89.9856 342.357 89.926 342.753 89.926 343.197C89.926 343.641 89.9856 344.037 90.1049 344.385C90.2276 344.733 90.4082 345.008 90.6468 345.21C90.8888 345.409 91.1871 345.509 91.5417 345.509ZM100.148 347.149C99.362 347.149 98.6859 346.99 98.1191 346.672C97.5557 346.35 97.1215 345.896 96.8166 345.31C96.5117 344.72 96.3592 344.022 96.3592 343.217C96.3592 342.431 96.5117 341.742 96.8166 341.148C97.1215 340.555 97.5507 340.093 98.1042 339.761C98.661 339.43 99.314 339.264 100.063 339.264C100.567 339.264 101.036 339.345 101.47 339.508C101.907 339.667 102.289 339.907 102.613 340.229C102.942 340.55 103.197 340.955 103.379 341.442C103.561 341.926 103.653 342.492 103.653 343.142V343.724H97.2044V342.411H101.659C101.659 342.106 101.593 341.836 101.46 341.601C101.327 341.366 101.144 341.182 100.908 341.049C100.676 340.913 100.406 340.845 100.098 340.845C99.7763 340.845 99.4913 340.92 99.2427 341.069C98.9975 341.215 98.8052 341.412 98.666 341.661C98.5268 341.906 98.4556 342.179 98.4522 342.481V343.729C98.4522 344.107 98.5218 344.433 98.661 344.708C98.8036 344.983 99.0041 345.195 99.2626 345.344C99.5211 345.494 99.8277 345.568 100.182 345.568C100.418 345.568 100.633 345.535 100.829 345.469C101.024 345.402 101.192 345.303 101.331 345.17C101.47 345.038 101.576 344.875 101.649 344.683L103.608 344.812C103.508 345.283 103.305 345.694 102.996 346.045C102.691 346.393 102.297 346.665 101.813 346.861C101.332 347.053 100.777 347.149 100.148 347.149ZM109.932 343.749V339.364H112.05V347H110.016V345.613H109.937C109.764 346.06 109.478 346.42 109.077 346.692C108.679 346.964 108.193 347.099 107.62 347.099C107.109 347.099 106.66 346.983 106.273 346.751C105.885 346.519 105.581 346.19 105.363 345.762C105.147 345.335 105.038 344.822 105.035 344.226V339.364H107.153V343.848C107.156 344.299 107.277 344.655 107.515 344.917C107.754 345.179 108.074 345.31 108.475 345.31C108.73 345.31 108.969 345.252 109.191 345.136C109.413 345.016 109.592 344.841 109.728 344.609C109.867 344.377 109.935 344.09 109.932 343.749ZM120.863 339.364L118.193 347H115.807L113.137 339.364H115.374L116.96 344.827H117.04L118.621 339.364H120.863ZM121.947 347V339.364H124V340.696H124.08C124.219 340.222 124.452 339.864 124.781 339.622C125.109 339.377 125.487 339.254 125.914 339.254C126.02 339.254 126.134 339.261 126.257 339.274C126.38 339.287 126.487 339.306 126.58 339.329V341.208C126.481 341.178 126.343 341.152 126.168 341.129C125.992 341.105 125.831 341.094 125.685 341.094C125.374 341.094 125.095 341.162 124.85 341.298C124.608 341.43 124.416 341.616 124.273 341.854C124.134 342.093 124.065 342.368 124.065 342.68V347H121.947ZM130.8 347.149C130.014 347.149 129.338 346.99 128.771 346.672C128.208 346.35 127.774 345.896 127.469 345.31C127.164 344.72 127.012 344.022 127.012 343.217C127.012 342.431 127.164 341.742 127.469 341.148C127.774 340.555 128.203 340.093 128.757 339.761C129.313 339.43 129.966 339.264 130.715 339.264C131.219 339.264 131.688 339.345 132.122 339.508C132.56 339.667 132.941 339.907 133.266 340.229C133.594 340.55 133.849 340.955 134.031 341.442C134.214 341.926 134.305 342.492 134.305 343.142V343.724H127.857V342.411H132.311C132.311 342.106 132.245 341.836 132.112 341.601C131.98 341.366 131.796 341.182 131.561 341.049C131.329 340.913 131.058 340.845 130.75 340.845C130.429 340.845 130.144 340.92 129.895 341.069C129.65 341.215 129.458 341.412 129.318 341.661C129.179 341.906 129.108 342.179 129.105 342.481V343.729C129.105 344.107 129.174 344.433 129.313 344.708C129.456 344.983 129.656 345.195 129.915 345.344C130.173 345.494 130.48 345.568 130.835 345.568C131.07 345.568 131.285 345.535 131.481 345.469C131.677 345.402 131.844 345.303 131.983 345.17C132.122 345.038 132.228 344.875 132.301 344.683L134.26 344.812C134.161 345.283 133.957 345.694 133.649 346.045C133.344 346.393 132.949 346.665 132.465 346.861C131.985 347.053 131.43 347.149 130.8 347.149ZM141.368 342.545L141.493 340.621L139.882 341.7L139.216 340.527L140.951 339.682L139.216 338.837L139.882 337.663L141.493 338.742L141.368 336.818H142.706L142.576 338.742L144.187 337.663L144.853 338.837L143.123 339.682L144.853 340.527L144.187 341.7L142.576 340.621L142.706 342.545H141.368Z" fill="#EDDEF1"/>
<rect x="17.5" y="378.5" width="359" height="47" rx="7.5" fill="#7D1797" stroke="black"/>
<path d="M27.8958 407H25.589L29.1039 396.818H31.878L35.388 407H33.0811L30.5307 399.145H30.4512L27.8958 407ZM27.7516 402.998H33.2005V404.678H27.7516V402.998ZM41.4707 403.749V399.364H43.5886V407H41.5552V405.613H41.4757C41.3033 406.06 41.0166 406.42 40.6156 406.692C40.2179 406.964 39.7323 407.099 39.1589 407.099C38.6485 407.099 38.1994 406.983 37.8116 406.751C37.4238 406.519 37.1206 406.19 36.9018 405.762C36.6864 405.335 36.577 404.822 36.5737 404.226V399.364H38.6916V403.848C38.6949 404.299 38.8159 404.655 39.0545 404.917C39.2931 405.179 39.613 405.31 40.014 405.31C40.2692 405.31 40.5079 405.252 40.7299 405.136C40.952 405.016 41.131 404.841 41.2669 404.609C41.4061 404.377 41.474 404.09 41.4707 403.749ZM49.3445 399.364V400.955H44.7457V399.364H49.3445ZM45.7898 397.534H47.9077V404.653C47.9077 404.849 47.9375 405.001 47.9972 405.111C48.0568 405.217 48.1397 405.291 48.2457 405.335C48.3551 405.378 48.4811 405.399 48.6236 405.399C48.723 405.399 48.8224 405.391 48.9219 405.374C49.0213 405.354 49.0975 405.339 49.1506 405.33L49.4837 406.906C49.3776 406.939 49.2285 406.977 49.0362 407.02C48.844 407.066 48.6103 407.094 48.3352 407.104C47.8248 407.124 47.3774 407.056 46.9929 406.901C46.6117 406.745 46.3151 406.503 46.103 406.175C45.8909 405.847 45.7865 405.432 45.7898 404.932V397.534ZM54.1222 407.149C53.3366 407.149 52.6605 406.99 52.0938 406.672C51.5303 406.35 51.0961 405.896 50.7912 405.31C50.4863 404.72 50.3338 404.022 50.3338 403.217C50.3338 402.431 50.4863 401.742 50.7912 401.148C51.0961 400.555 51.5253 400.093 52.0788 399.761C52.6357 399.43 53.2886 399.264 54.0376 399.264C54.5414 399.264 55.0104 399.345 55.4446 399.508C55.8821 399.667 56.2633 399.907 56.5881 400.229C56.9162 400.55 57.1714 400.955 57.3537 401.442C57.536 401.926 57.6271 402.492 57.6271 403.142V403.724H51.179V402.411H55.6335C55.6335 402.106 55.5672 401.836 55.4347 401.601C55.3021 401.366 55.1181 401.182 54.8828 401.049C54.6508 400.913 54.3807 400.845 54.0724 400.845C53.7509 400.845 53.4659 400.92 53.2173 401.069C52.9721 401.215 52.7798 401.412 52.6406 401.661C52.5014 401.906 52.4302 402.179 52.4268 402.481V403.729C52.4268 404.107 52.4964 404.433 52.6357 404.708C52.7782 404.983 52.9787 405.195 53.2372 405.344C53.4957 405.494 53.8023 405.568 54.157 405.568C54.3923 405.568 54.6077 405.535 54.8033 405.469C54.9988 405.402 55.1662 405.303 55.3054 405.17C55.4446 405.038 55.5507 404.875 55.6236 404.683L57.5824 404.812C57.483 405.283 57.2791 405.694 56.9709 406.045C56.666 406.393 56.2715 406.665 55.7876 406.861C55.3071 407.053 54.7519 407.149 54.1222 407.149ZM63.9062 403.749V399.364H66.0241V407H63.9908V405.613H63.9112C63.7389 406.06 63.4522 406.42 63.0511 406.692C62.6534 406.964 62.1679 407.099 61.5945 407.099C61.084 407.099 60.6349 406.983 60.2472 406.751C59.8594 406.519 59.5561 406.19 59.3374 405.762C59.1219 405.335 59.0125 404.822 59.0092 404.226V399.364H61.1271V403.848C61.1304 404.299 61.2514 404.655 61.4901 404.917C61.7287 405.179 62.0485 405.31 62.4496 405.31C62.7048 405.31 62.9434 405.252 63.1655 405.136C63.3875 405.016 63.5665 404.841 63.7024 404.609C63.8416 404.377 63.9096 404.09 63.9062 403.749ZM67.7182 407V399.364H69.7715V400.696H69.851C69.9902 400.222 70.2239 399.864 70.552 399.622C70.8801 399.377 71.258 399.254 71.6855 399.254C71.7916 399.254 71.906 399.261 72.0286 399.274C72.1512 399.287 72.2589 399.306 72.3517 399.329V401.208C72.2523 401.178 72.1148 401.152 71.9391 401.129C71.7634 401.105 71.6027 401.094 71.4569 401.094C71.1453 401.094 70.8669 401.162 70.6216 401.298C70.3797 401.43 70.1874 401.616 70.0449 401.854C69.9057 402.093 69.8361 402.368 69.8361 402.68V407H67.7182ZM79.128 402.545L79.2523 400.621L77.6415 401.7L76.9753 400.527L78.7104 399.682L76.9753 398.837L77.6415 397.663L79.2523 398.742L79.128 396.818H80.4654L80.3361 398.742L81.9469 397.663L82.6131 398.837L80.883 399.682L82.6131 400.527L81.9469 401.7L80.3361 400.621L80.4654 402.545H79.128Z" fill="#EDDEF1"/>
<rect x="17.5" y="438.5" width="359" height="47" rx="7.5" fill="#7D1797" stroke="black"/>
<path d="M26.0471 467V456.818H28.1998V465.225H32.5648V467H26.0471ZM36.1282 467.144C35.641 467.144 35.2068 467.06 34.8256 466.891C34.4445 466.718 34.1429 466.465 33.9208 466.13C33.7021 465.792 33.5927 465.371 33.5927 464.867C33.5927 464.443 33.6706 464.087 33.8263 463.798C33.9821 463.51 34.1942 463.278 34.4627 463.102C34.7312 462.927 35.0361 462.794 35.3775 462.705C35.7222 462.615 36.0835 462.552 36.4613 462.516C36.9054 462.469 37.2634 462.426 37.5352 462.386C37.8069 462.343 38.0041 462.28 38.1268 462.197C38.2494 462.115 38.3107 461.992 38.3107 461.83V461.8C38.3107 461.485 38.2113 461.241 38.0124 461.069C37.8169 460.897 37.5385 460.81 37.1772 460.81C36.796 460.81 36.4928 460.895 36.2674 461.064C36.042 461.23 35.8929 461.438 35.82 461.69L33.8612 461.531C33.9606 461.067 34.1561 460.666 34.4478 460.328C34.7395 459.987 35.1156 459.725 35.5763 459.543C36.0404 459.357 36.5773 459.264 37.1871 459.264C37.6114 459.264 38.0174 459.314 38.4052 459.413C38.7963 459.513 39.1426 459.667 39.4442 459.876C39.7492 460.085 39.9895 460.353 40.1651 460.681C40.3408 461.006 40.4286 461.395 40.4286 461.849V467H38.4201V465.941H38.3604C38.2378 466.18 38.0737 466.39 37.8683 466.572C37.6628 466.751 37.4158 466.892 37.1275 466.995C36.8391 467.094 36.506 467.144 36.1282 467.144ZM36.7347 465.683C37.0463 465.683 37.3214 465.621 37.56 465.499C37.7987 465.373 37.9859 465.204 38.1218 464.991C38.2577 464.779 38.3256 464.539 38.3256 464.271V463.46C38.2594 463.503 38.1682 463.543 38.0522 463.58C37.9395 463.613 37.8119 463.644 37.6694 463.674C37.5269 463.701 37.3844 463.725 37.2418 463.749C37.0993 463.768 36.9701 463.787 36.854 463.803C36.6055 463.84 36.3884 463.898 36.2028 463.977C36.0172 464.057 35.873 464.165 35.7702 464.3C35.6675 464.433 35.6161 464.599 35.6161 464.798C35.6161 465.086 35.7205 465.306 35.9293 465.459C36.1415 465.608 36.4099 465.683 36.7347 465.683ZM42.1115 467V456.818H44.2294V460.646H44.294C44.3868 460.441 44.5211 460.232 44.6967 460.02C44.8757 459.804 45.1077 459.625 45.3928 459.483C45.6811 459.337 46.0391 459.264 46.4666 459.264C47.0234 459.264 47.5372 459.41 48.0078 459.702C48.4785 459.99 48.8546 460.426 49.1364 461.009C49.4181 461.589 49.5589 462.317 49.5589 463.192C49.5589 464.044 49.4214 464.763 49.1463 465.349C48.8745 465.933 48.5033 466.375 48.0327 466.677C47.5653 466.975 47.0417 467.124 46.4616 467.124C46.0507 467.124 45.701 467.056 45.4126 466.92C45.1276 466.785 44.8939 466.614 44.7116 466.408C44.5294 466.2 44.3902 465.989 44.294 465.777H44.1996V467H42.1115ZM44.1847 463.182C44.1847 463.636 44.2476 464.032 44.3736 464.37C44.4995 464.708 44.6818 464.972 44.9205 465.161C45.1591 465.346 45.4491 465.439 45.7905 465.439C46.1352 465.439 46.4268 465.344 46.6655 465.156C46.9041 464.963 47.0848 464.698 47.2074 464.36C47.3333 464.019 47.3963 463.626 47.3963 463.182C47.3963 462.741 47.335 462.353 47.2124 462.018C47.0897 461.684 46.9091 461.422 46.6705 461.233C46.4318 461.044 46.1385 460.95 45.7905 460.95C45.4458 460.95 45.1541 461.041 44.9155 461.223C44.6802 461.405 44.4995 461.664 44.3736 461.999C44.2476 462.333 44.1847 462.728 44.1847 463.182ZM54.4522 467.149C53.6667 467.149 52.9906 466.99 52.4238 466.672C51.8604 466.35 51.4262 465.896 51.1213 465.31C50.8163 464.72 50.6639 464.022 50.6639 463.217C50.6639 462.431 50.8163 461.742 51.1213 461.148C51.4262 460.555 51.8554 460.093 52.4089 459.761C52.9657 459.43 53.6187 459.264 54.3677 459.264C54.8715 459.264 55.3405 459.345 55.7747 459.508C56.2122 459.667 56.5933 459.907 56.9181 460.229C57.2463 460.55 57.5015 460.955 57.6838 461.442C57.8661 461.926 57.9572 462.492 57.9572 463.142V463.724H51.5091V462.411H55.9636C55.9636 462.106 55.8973 461.836 55.7647 461.601C55.6322 461.366 55.4482 461.182 55.2129 461.049C54.9809 460.913 54.7108 460.845 54.4025 460.845C54.081 460.845 53.796 460.92 53.5474 461.069C53.3021 461.215 53.1099 461.412 52.9707 461.661C52.8315 461.906 52.7602 462.179 52.7569 462.481V463.729C52.7569 464.107 52.8265 464.433 52.9657 464.708C53.1083 464.983 53.3088 465.195 53.5673 465.344C53.8258 465.494 54.1324 465.568 54.487 465.568C54.7224 465.568 54.9378 465.535 55.1333 465.469C55.3289 465.402 55.4963 465.303 55.6355 465.17C55.7747 465.038 55.8807 464.875 55.9537 464.683L57.9125 464.812C57.813 465.283 57.6092 465.694 57.301 466.045C56.996 466.393 56.6016 466.665 56.1177 466.861C55.6371 467.053 55.082 467.149 54.4522 467.149ZM61.4572 456.818V467H59.3393V456.818H61.4572ZM70.8287 456.341L67.5474 468.531H65.7228L69.0041 456.341H70.8287ZM75.1291 467V456.818H81.9899V458.593H77.2818V461.019H81.6369V462.794H77.2818V465.225H82.0098V467H75.1291ZM86.4755 467.124C85.8955 467.124 85.3701 466.975 84.8995 466.677C84.4322 466.375 84.061 465.933 83.7859 465.349C83.5141 464.763 83.3782 464.044 83.3782 463.192C83.3782 462.317 83.5191 461.589 83.8008 461.009C84.0825 460.426 84.457 459.99 84.9244 459.702C85.395 459.41 85.9104 459.264 86.4705 459.264C86.8981 459.264 87.2544 459.337 87.5394 459.483C87.8278 459.625 88.0598 459.804 88.2354 460.02C88.4144 460.232 88.5503 460.441 88.6431 460.646H88.7077V456.818H90.8207V467H88.7326V465.777H88.6431C88.5437 465.989 88.4028 466.2 88.2205 466.408C88.0415 466.614 87.8079 466.785 87.5195 466.92C87.2345 467.056 86.8865 467.124 86.4755 467.124ZM87.1467 465.439C87.488 465.439 87.7764 465.346 88.0117 465.161C88.2504 464.972 88.4326 464.708 88.5586 464.37C88.6879 464.032 88.7525 463.636 88.7525 463.182C88.7525 462.728 88.6895 462.333 88.5636 461.999C88.4376 461.664 88.2553 461.405 88.0167 461.223C87.7781 461.041 87.488 460.95 87.1467 460.95C86.7987 460.95 86.5053 461.044 86.2667 461.233C86.0281 461.422 85.8474 461.684 85.7248 462.018C85.6022 462.353 85.5408 462.741 85.5408 463.182C85.5408 463.626 85.6022 464.019 85.7248 464.36C85.8507 464.698 86.0314 464.963 86.2667 465.156C86.5053 465.344 86.7987 465.439 87.1467 465.439ZM92.562 467V459.364H94.6799V467H92.562ZM93.6259 458.379C93.311 458.379 93.0409 458.275 92.8155 458.066C92.5935 457.854 92.4824 457.6 92.4824 457.305C92.4824 457.014 92.5935 456.763 92.8155 456.555C93.0409 456.343 93.311 456.237 93.6259 456.237C93.9408 456.237 94.2092 456.343 94.4313 456.555C94.6567 456.763 94.7694 457.014 94.7694 457.305C94.7694 457.6 94.6567 457.854 94.4313 458.066C94.2092 458.275 93.9408 458.379 93.6259 458.379ZM100.438 459.364V460.955H95.8395V459.364H100.438ZM96.8835 457.534H99.0014V464.653C99.0014 464.849 99.0313 465.001 99.0909 465.111C99.1506 465.217 99.2334 465.291 99.3395 465.335C99.4489 465.378 99.5748 465.399 99.7173 465.399C99.8168 465.399 99.9162 465.391 100.016 465.374C100.115 465.354 100.191 465.339 100.244 465.33L100.577 466.906C100.471 466.939 100.322 466.977 100.13 467.02C99.9377 467.066 99.7041 467.094 99.429 467.104C98.9186 467.124 98.4711 467.056 98.0866 466.901C97.7055 466.745 97.4089 466.503 97.1967 466.175C96.9846 465.847 96.8802 465.432 96.8835 464.932V457.534ZM105.216 467.149C104.43 467.149 103.754 466.99 103.188 466.672C102.624 466.35 102.19 465.896 101.885 465.31C101.58 464.72 101.428 464.022 101.428 463.217C101.428 462.431 101.58 461.742 101.885 461.148C102.19 460.555 102.619 460.093 103.173 459.761C103.729 459.43 104.382 459.264 105.131 459.264C105.635 459.264 106.104 459.345 106.538 459.508C106.976 459.667 107.357 459.907 107.682 460.229C108.01 460.55 108.265 460.955 108.447 461.442C108.63 461.926 108.721 462.492 108.721 463.142V463.724H102.273V462.411H106.727C106.727 462.106 106.661 461.836 106.528 461.601C106.396 461.366 106.212 461.182 105.977 461.049C105.745 460.913 105.474 460.845 105.166 460.845C104.845 460.845 104.56 460.92 104.311 461.069C104.066 461.215 103.874 461.412 103.734 461.661C103.595 461.906 103.524 462.179 103.521 462.481V463.729C103.521 464.107 103.59 464.433 103.729 464.708C103.872 464.983 104.072 465.195 104.331 465.344C104.589 465.494 104.896 465.568 105.251 465.568C105.486 465.568 105.701 465.535 105.897 465.469C106.093 465.402 106.26 465.303 106.399 465.17C106.538 465.038 106.644 464.875 106.717 464.683L108.676 464.812C108.577 465.283 108.373 465.694 108.065 466.045C107.76 466.393 107.365 466.665 106.881 466.861C106.401 467.053 105.846 467.149 105.216 467.149ZM115 463.749V459.364H117.118V467H115.085V465.613H115.005C114.833 466.06 114.546 466.42 114.145 466.692C113.747 466.964 113.262 467.099 112.688 467.099C112.178 467.099 111.729 466.983 111.341 466.751C110.953 466.519 110.65 466.19 110.431 465.762C110.216 465.335 110.106 464.822 110.103 464.226V459.364H112.221V463.848C112.224 464.299 112.345 464.655 112.584 464.917C112.822 465.179 113.142 465.31 113.543 465.31C113.799 465.31 114.037 465.252 114.259 465.136C114.481 465.016 114.66 464.841 114.796 464.609C114.935 464.377 115.003 464.09 115 463.749ZM118.812 467V459.364H120.865V460.696H120.945C121.084 460.222 121.318 459.864 121.646 459.622C121.974 459.377 122.352 459.254 122.779 459.254C122.885 459.254 123 459.261 123.122 459.274C123.245 459.287 123.353 459.306 123.445 459.329V461.208C123.346 461.178 123.209 461.152 123.033 461.129C122.857 461.105 122.696 461.094 122.551 461.094C122.239 461.094 121.961 461.162 121.715 461.298C121.473 461.43 121.281 461.616 121.139 461.854C120.999 462.093 120.93 462.368 120.93 462.68V467H118.812ZM130.222 462.545L130.346 460.621L128.735 461.7L128.069 460.527L129.804 459.682L128.069 458.837L128.735 457.663L130.346 458.742L130.222 456.818H131.559L131.43 458.742L133.041 457.663L133.707 458.837L131.977 459.682L133.707 460.527L133.041 461.7L131.43 460.621L131.559 462.545H130.222Z" fill="#EDDEF1"/>
<rect x="17.5" y="498.5" width="359" height="47" rx="7.5" fill="#7D1797" stroke="black"/>
<path d="M26.7913 527H24.4845L27.9994 516.818H30.7735L34.2835 527H31.9767L29.4262 519.145H29.3467L26.7913 527ZM26.6471 522.998H32.096V524.678H26.6471V522.998ZM37.5871 522.585V527H35.4692V519.364H37.4877V520.711H37.5771C37.7462 520.267 38.0296 519.915 38.4273 519.657C38.825 519.395 39.3073 519.264 39.874 519.264C40.4043 519.264 40.8667 519.38 41.2611 519.612C41.6555 519.844 41.9621 520.176 42.1808 520.607C42.3996 521.034 42.509 521.545 42.509 522.138V527H40.3911V522.516C40.3944 522.048 40.2751 521.684 40.0331 521.422C39.7912 521.157 39.4581 521.024 39.0338 521.024C38.7488 521.024 38.4969 521.085 38.2781 521.208C38.0627 521.331 37.8937 521.51 37.771 521.745C37.6517 521.977 37.5904 522.257 37.5871 522.585ZM46.2961 522.585V527H44.1782V519.364H46.1966V520.711H46.2861C46.4552 520.267 46.7385 519.915 47.1363 519.657C47.534 519.395 48.0162 519.264 48.583 519.264C49.1133 519.264 49.5757 519.38 49.9701 519.612C50.3645 519.844 50.6711 520.176 50.8898 520.607C51.1086 521.034 51.218 521.545 51.218 522.138V527H49.1001V522.516C49.1034 522.048 48.984 521.684 48.7421 521.422C48.5001 521.157 48.1671 521.024 47.7428 521.024C47.4578 521.024 47.2059 521.085 46.9871 521.208C46.7717 521.331 46.6027 521.51 46.48 521.745C46.3607 521.977 46.2994 522.257 46.2961 522.585ZM56.3673 527.149C55.5818 527.149 54.9056 526.99 54.3389 526.672C53.7754 526.35 53.3412 525.896 53.0363 525.31C52.7314 524.72 52.5789 524.022 52.5789 523.217C52.5789 522.431 52.7314 521.742 53.0363 521.148C53.3412 520.555 53.7704 520.093 54.324 519.761C54.8808 519.43 55.5337 519.264 56.2828 519.264C56.7865 519.264 57.2555 519.345 57.6897 519.508C58.1272 519.667 58.5084 519.907 58.8332 520.229C59.1613 520.55 59.4165 520.955 59.5988 521.442C59.7811 521.926 59.8722 522.492 59.8722 523.142V523.724H53.4241V522.411H57.8786C57.8786 522.106 57.8124 521.836 57.6798 521.601C57.5472 521.366 57.3633 521.182 57.1279 521.049C56.8959 520.913 56.6258 520.845 56.3176 520.845C55.9961 520.845 55.711 520.92 55.4624 521.069C55.2172 521.215 55.0249 521.412 54.8857 521.661C54.7465 521.906 54.6753 522.179 54.672 522.481V523.729C54.672 524.107 54.7416 524.433 54.8808 524.708C55.0233 524.983 55.2238 525.195 55.4823 525.344C55.7409 525.494 56.0474 525.568 56.4021 525.568C56.6374 525.568 56.8528 525.535 57.0484 525.469C57.2439 525.402 57.4113 525.303 57.5505 525.17C57.6897 525.038 57.7958 524.875 57.8687 524.683L59.8275 524.812C59.7281 525.283 59.5242 525.694 59.216 526.045C58.9111 526.393 58.5167 526.665 58.0328 526.861C57.5522 527.053 56.997 527.149 56.3673 527.149ZM55.4724 518.379L56.5264 516.117H58.4852L56.9688 518.379H55.4724ZM64.7345 527.149C63.949 527.149 63.2728 526.99 62.7061 526.672C62.1426 526.35 61.7084 525.896 61.4035 525.31C61.0986 524.72 60.9461 524.022 60.9461 523.217C60.9461 522.431 61.0986 521.742 61.4035 521.148C61.7084 520.555 62.1376 520.093 62.6911 519.761C63.248 519.43 63.9009 519.264 64.6499 519.264C65.1537 519.264 65.6227 519.345 66.0569 519.508C66.4944 519.667 66.8756 519.907 67.2004 520.229C67.5285 520.55 67.7837 520.955 67.966 521.442C68.1483 521.926 68.2394 522.492 68.2394 523.142V523.724H61.7913V522.411H66.2458C66.2458 522.106 66.1795 521.836 66.047 521.601C65.9144 521.366 65.7304 521.182 65.4951 521.049C65.2631 520.913 64.993 520.845 64.6847 520.845C64.3633 520.845 64.0782 520.92 63.8296 521.069C63.5844 521.215 63.3921 521.412 63.2529 521.661C63.1137 521.906 63.0425 522.179 63.0392 522.481V523.729C63.0392 524.107 63.1088 524.433 63.248 524.708C63.3905 524.983 63.591 525.195 63.8495 525.344C64.108 525.494 64.4146 525.568 64.7693 525.568C65.0046 525.568 65.22 525.535 65.4156 525.469C65.6111 525.402 65.7785 525.303 65.9177 525.17C66.0569 525.038 66.163 524.875 66.2359 524.683L68.1947 524.812C68.0953 525.283 67.8914 525.694 67.5832 526.045C67.2783 526.393 66.8838 526.665 66.3999 526.861C65.9194 527.053 65.3642 527.149 64.7345 527.149ZM75.6757 527.124C75.0957 527.124 74.5703 526.975 74.0997 526.677C73.6324 526.375 73.2612 525.933 72.9861 525.349C72.7143 524.763 72.5784 524.044 72.5784 523.192C72.5784 522.317 72.7193 521.589 73.001 521.009C73.2827 520.426 73.6572 519.99 74.1246 519.702C74.5952 519.41 75.1106 519.264 75.6707 519.264C76.0983 519.264 76.4546 519.337 76.7396 519.483C77.028 519.625 77.26 519.804 77.4356 520.02C77.6146 520.232 77.7505 520.441 77.8433 520.646H77.9079V516.818H80.0209V527H77.9328V525.777H77.8433C77.7439 525.989 77.603 526.2 77.4207 526.408C77.2417 526.614 77.0081 526.785 76.7197 526.92C76.4347 527.056 76.0867 527.124 75.6757 527.124ZM76.3469 525.439C76.6882 525.439 76.9766 525.346 77.2119 525.161C77.4506 524.972 77.6328 524.708 77.7588 524.37C77.8881 524.032 77.9527 523.636 77.9527 523.182C77.9527 522.728 77.8897 522.333 77.7638 521.999C77.6378 521.664 77.4555 521.405 77.2169 521.223C76.9782 521.041 76.6882 520.95 76.3469 520.95C75.9988 520.95 75.7055 521.044 75.4669 521.233C75.2282 521.422 75.0476 521.684 74.925 522.018C74.8023 522.353 74.741 522.741 74.741 523.182C74.741 523.626 74.8023 524.019 74.925 524.36C75.0509 524.698 75.2316 524.963 75.4669 525.156C75.7055 525.344 75.9988 525.439 76.3469 525.439ZM85.2423 527.149C84.4568 527.149 83.7806 526.99 83.2139 526.672C82.6504 526.35 82.2162 525.896 81.9113 525.31C81.6064 524.72 81.4539 524.022 81.4539 523.217C81.4539 522.431 81.6064 521.742 81.9113 521.148C82.2162 520.555 82.6454 520.093 83.199 519.761C83.7558 519.43 84.4087 519.264 85.1578 519.264C85.6615 519.264 86.1305 519.345 86.5647 519.508C87.0022 519.667 87.3834 519.907 87.7082 520.229C88.0363 520.55 88.2915 520.955 88.4738 521.442C88.6561 521.926 88.7472 522.492 88.7472 523.142V523.724H82.2991V522.411H86.7536C86.7536 522.106 86.6874 521.836 86.5548 521.601C86.4222 521.366 86.2383 521.182 86.0029 521.049C85.7709 520.913 85.5008 520.845 85.1926 520.845C84.8711 520.845 84.586 520.92 84.3374 521.069C84.0922 521.215 83.8999 521.412 83.7607 521.661C83.6215 521.906 83.5503 522.179 83.547 522.481V523.729C83.547 524.107 83.6166 524.433 83.7558 524.708C83.8983 524.983 84.0988 525.195 84.3573 525.344C84.6159 525.494 84.9224 525.568 85.2771 525.568C85.5124 525.568 85.7278 525.535 85.9234 525.469C86.1189 525.402 86.2863 525.303 86.4255 525.17C86.5647 525.038 86.6708 524.875 86.7437 524.683L88.7025 524.812C88.6031 525.283 88.3992 525.694 88.091 526.045C87.7861 526.393 87.3917 526.665 86.9078 526.861C86.4272 527.053 85.872 527.149 85.2423 527.149ZM99.7233 521.541L97.7844 521.661C97.7512 521.495 97.68 521.346 97.5706 521.213C97.4612 521.077 97.317 520.969 97.1381 520.89C96.9624 520.807 96.7519 520.766 96.5067 520.766C96.1785 520.766 95.9018 520.835 95.6764 520.974C95.451 521.11 95.3383 521.293 95.3383 521.521C95.3383 521.704 95.4113 521.858 95.5571 521.984C95.7029 522.11 95.9532 522.211 96.3078 522.287L97.6899 522.565C98.4323 522.718 98.9858 522.963 99.3504 523.301C99.715 523.639 99.8973 524.083 99.8973 524.634C99.8973 525.134 99.7498 525.573 99.4548 525.951C99.1631 526.329 98.7621 526.624 98.2517 526.836C97.7446 527.045 97.1596 527.149 96.4967 527.149C95.4858 527.149 94.6804 526.939 94.0805 526.518C93.4839 526.094 93.1343 525.517 93.0315 524.788L95.1146 524.678C95.1776 524.987 95.33 525.222 95.572 525.384C95.814 525.543 96.1238 525.623 96.5017 525.623C96.8729 525.623 97.1712 525.552 97.3966 525.409C97.6253 525.263 97.7413 525.076 97.7446 524.847C97.7413 524.655 97.6601 524.498 97.501 524.375C97.3419 524.249 97.0966 524.153 96.7652 524.087L95.4427 523.823C94.697 523.674 94.1418 523.415 93.7773 523.048C93.416 522.68 93.2354 522.211 93.2354 521.641C93.2354 521.15 93.3679 520.728 93.6331 520.373C93.9015 520.018 94.2777 519.745 94.7616 519.553C95.2488 519.36 95.8189 519.264 96.4719 519.264C97.4363 519.264 98.1953 519.468 98.7488 519.876C99.3057 520.283 99.6305 520.839 99.7233 521.541ZM104.681 527.149C103.909 527.149 103.241 526.985 102.678 526.657C102.118 526.326 101.685 525.865 101.38 525.275C101.075 524.682 100.923 523.994 100.923 523.212C100.923 522.423 101.075 521.733 101.38 521.143C101.685 520.55 102.118 520.089 102.678 519.761C103.241 519.43 103.909 519.264 104.681 519.264C105.453 519.264 106.12 519.43 106.68 519.761C107.243 520.089 107.677 520.55 107.982 521.143C108.287 521.733 108.44 522.423 108.44 523.212C108.44 523.994 108.287 524.682 107.982 525.275C107.677 525.865 107.243 526.326 106.68 526.657C106.12 526.985 105.453 527.149 104.681 527.149ZM104.691 525.509C105.042 525.509 105.336 525.409 105.571 525.21C105.806 525.008 105.984 524.733 106.103 524.385C106.226 524.037 106.287 523.641 106.287 523.197C106.287 522.753 106.226 522.357 106.103 522.009C105.984 521.661 105.806 521.385 105.571 521.183C105.336 520.981 105.042 520.88 104.691 520.88C104.336 520.88 104.038 520.981 103.796 521.183C103.558 521.385 103.377 521.661 103.254 522.009C103.135 522.357 103.075 522.753 103.075 523.197C103.075 523.641 103.135 524.037 103.254 524.385C103.377 524.733 103.558 525.008 103.796 525.21C104.038 525.409 104.336 525.509 104.691 525.509ZM109.817 527V519.364H111.87V520.696H111.95C112.089 520.222 112.323 519.864 112.651 519.622C112.979 519.377 113.357 519.254 113.784 519.254C113.89 519.254 114.005 519.261 114.127 519.274C114.25 519.287 114.358 519.306 114.45 519.329V521.208C114.351 521.178 114.213 521.152 114.038 521.129C113.862 521.105 113.701 521.094 113.555 521.094C113.244 521.094 112.966 521.162 112.72 521.298C112.478 521.43 112.286 521.616 112.144 521.854C112.004 522.093 111.935 522.368 111.935 522.68V527H109.817ZM119.99 519.364V520.955H115.391V519.364H119.99ZM116.435 517.534H118.553V524.653C118.553 524.849 118.583 525.001 118.643 525.111C118.702 525.217 118.785 525.291 118.891 525.335C119.001 525.378 119.127 525.399 119.269 525.399C119.369 525.399 119.468 525.391 119.567 525.374C119.667 525.354 119.743 525.339 119.796 525.33L120.129 526.906C120.023 526.939 119.874 526.977 119.682 527.02C119.489 527.066 119.256 527.094 118.981 527.104C118.47 527.124 118.023 527.056 117.638 526.901C117.257 526.745 116.961 526.503 116.748 526.175C116.536 525.847 116.432 525.432 116.435 524.932V517.534ZM121.37 527V519.364H123.487V527H121.37ZM122.434 518.379C122.119 518.379 121.849 518.275 121.623 518.066C121.401 517.854 121.29 517.6 121.29 517.305C121.29 517.014 121.401 516.763 121.623 516.555C121.849 516.343 122.119 516.237 122.434 516.237C122.748 516.237 123.017 516.343 123.239 516.555C123.464 516.763 123.577 517.014 123.577 517.305C123.577 517.6 123.464 517.854 123.239 518.066C123.017 518.275 122.748 518.379 122.434 518.379ZM128.664 527.149C127.879 527.149 127.203 526.99 126.636 526.672C126.072 526.35 125.638 525.896 125.333 525.31C125.028 524.72 124.876 524.022 124.876 523.217C124.876 522.431 125.028 521.742 125.333 521.148C125.638 520.555 126.067 520.093 126.621 519.761C127.178 519.43 127.831 519.264 128.58 519.264C129.083 519.264 129.552 519.345 129.987 519.508C130.424 519.667 130.805 519.907 131.13 520.229C131.458 520.55 131.713 520.955 131.896 521.442C132.078 521.926 132.169 522.492 132.169 523.142V523.724H125.721V522.411H130.176C130.176 522.106 130.109 521.836 129.977 521.601C129.844 521.366 129.66 521.182 129.425 521.049C129.193 520.913 128.923 520.845 128.614 520.845C128.293 520.845 128.008 520.92 127.759 521.069C127.514 521.215 127.322 521.412 127.183 521.661C127.043 521.906 126.972 522.179 126.969 522.481V523.729C126.969 524.107 127.038 524.433 127.178 524.708C127.32 524.983 127.521 525.195 127.779 525.344C128.038 525.494 128.344 525.568 128.699 525.568C128.934 525.568 129.15 525.535 129.345 525.469C129.541 525.402 129.708 525.303 129.847 525.17C129.987 525.038 130.093 524.875 130.166 524.683L132.124 524.812C132.025 525.283 131.821 525.694 131.513 526.045C131.208 526.393 130.814 526.665 130.33 526.861C129.849 527.053 129.294 527.149 128.664 527.149ZM139.233 522.545L139.357 520.621L137.746 521.7L137.08 520.527L138.815 519.682L137.08 518.837L137.746 517.663L139.357 518.742L139.233 516.818H140.57L140.441 518.742L142.051 517.663L142.718 518.837L140.987 519.682L142.718 520.527L142.051 521.7L140.441 520.621L140.57 522.545H139.233Z" fill="#EDDEF1"/>
<rect x="17" y="658" width="359" height="55" rx="24" fill="#D492E6"/>
<path d="M110.017 691H107.381L111.398 679.364H114.568L118.58 691H115.943L113.028 682.023H112.938L110.017 691ZM109.852 686.426H116.08V688.347H109.852V686.426ZM119.935 682.273H122.355V691.432C122.355 692.106 122.223 692.652 121.957 693.068C121.692 693.485 121.312 693.79 120.815 693.983C120.323 694.176 119.734 694.273 119.048 694.273C118.965 694.273 118.885 694.271 118.81 694.267C118.73 694.267 118.647 694.265 118.56 694.261V692.369C118.624 692.373 118.681 692.375 118.73 692.375C118.776 692.379 118.825 692.381 118.878 692.381C119.268 692.381 119.541 692.297 119.696 692.131C119.855 691.968 119.935 691.722 119.935 691.392V682.273ZM121.139 681.148C120.783 681.148 120.476 681.028 120.219 680.79C119.961 680.547 119.832 680.258 119.832 679.92C119.832 679.587 119.961 679.301 120.219 679.062C120.476 678.82 120.783 678.699 121.139 678.699C121.503 678.699 121.812 678.82 122.065 679.062C122.323 679.301 122.452 679.587 122.452 679.92C122.452 680.258 122.323 680.547 122.065 680.79C121.812 681.028 121.503 681.148 121.139 681.148ZM128.237 691.17C127.355 691.17 126.591 690.983 125.947 690.608C125.307 690.229 124.813 689.703 124.464 689.028C124.116 688.35 123.942 687.564 123.942 686.67C123.942 685.769 124.116 684.981 124.464 684.307C124.813 683.629 125.307 683.102 125.947 682.727C126.591 682.348 127.355 682.159 128.237 682.159C129.12 682.159 129.881 682.348 130.521 682.727C131.165 683.102 131.661 683.629 132.01 684.307C132.358 684.981 132.533 685.769 132.533 686.67C132.533 687.564 132.358 688.35 132.01 689.028C131.661 689.703 131.165 690.229 130.521 690.608C129.881 690.983 129.12 691.17 128.237 691.17ZM128.249 689.295C128.65 689.295 128.985 689.182 129.254 688.955C129.523 688.723 129.726 688.409 129.862 688.011C130.002 687.614 130.072 687.161 130.072 686.653C130.072 686.146 130.002 685.693 129.862 685.295C129.726 684.898 129.523 684.583 129.254 684.352C128.985 684.121 128.65 684.006 128.249 684.006C127.843 684.006 127.502 684.121 127.226 684.352C126.953 684.583 126.747 684.898 126.607 685.295C126.47 685.693 126.402 686.146 126.402 686.653C126.402 687.161 126.47 687.614 126.607 688.011C126.747 688.409 126.953 688.723 127.226 688.955C127.502 689.182 127.843 689.295 128.249 689.295ZM139.703 687.284V682.273H142.124V691H139.8V689.415H139.709C139.512 689.926 139.184 690.337 138.726 690.648C138.271 690.958 137.716 691.114 137.061 691.114C136.478 691.114 135.964 690.981 135.521 690.716C135.078 690.451 134.732 690.074 134.482 689.585C134.235 689.097 134.11 688.511 134.107 687.83V682.273H136.527V687.398C136.531 687.913 136.669 688.32 136.942 688.619C137.214 688.919 137.58 689.068 138.038 689.068C138.33 689.068 138.603 689.002 138.857 688.869C139.11 688.733 139.315 688.532 139.47 688.267C139.629 688.002 139.707 687.674 139.703 687.284ZM148.702 682.273V684.091H143.446V682.273H148.702ZM144.639 680.182H147.06V688.318C147.06 688.542 147.094 688.716 147.162 688.841C147.23 688.962 147.325 689.047 147.446 689.097C147.571 689.146 147.715 689.17 147.878 689.17C147.991 689.17 148.105 689.161 148.219 689.142C148.332 689.119 148.42 689.102 148.48 689.091L148.861 690.892C148.74 690.93 148.569 690.973 148.349 691.023C148.13 691.076 147.863 691.108 147.548 691.119C146.965 691.142 146.454 691.064 146.014 690.886C145.579 690.708 145.24 690.432 144.997 690.057C144.755 689.682 144.635 689.208 144.639 688.636V680.182ZM154.162 691.17C153.264 691.17 152.491 690.989 151.844 690.625C151.2 690.258 150.704 689.739 150.355 689.068C150.007 688.394 149.832 687.597 149.832 686.676C149.832 685.778 150.007 684.991 150.355 684.312C150.704 683.634 151.194 683.106 151.827 682.727C152.463 682.348 153.209 682.159 154.065 682.159C154.641 682.159 155.177 682.252 155.673 682.438C156.173 682.619 156.609 682.894 156.98 683.261C157.355 683.629 157.647 684.091 157.855 684.648C158.063 685.201 158.168 685.848 158.168 686.591V687.256H150.798V685.756H155.889C155.889 685.407 155.813 685.098 155.662 684.83C155.51 684.561 155.3 684.35 155.031 684.199C154.766 684.044 154.457 683.966 154.105 683.966C153.738 683.966 153.412 684.051 153.128 684.222C152.848 684.388 152.628 684.614 152.469 684.898C152.31 685.178 152.228 685.491 152.224 685.835V687.261C152.224 687.693 152.304 688.066 152.463 688.381C152.626 688.695 152.855 688.938 153.151 689.108C153.446 689.278 153.796 689.364 154.202 689.364C154.471 689.364 154.717 689.326 154.94 689.25C155.164 689.174 155.355 689.061 155.514 688.909C155.673 688.758 155.795 688.572 155.878 688.352L158.116 688.5C158.003 689.038 157.77 689.508 157.418 689.909C157.069 690.307 156.618 690.617 156.065 690.841C155.516 691.061 154.882 691.17 154.162 691.17ZM159.747 691V682.273H162.094V683.795H162.185C162.344 683.254 162.611 682.845 162.986 682.568C163.361 682.288 163.793 682.148 164.281 682.148C164.402 682.148 164.533 682.155 164.673 682.17C164.813 682.186 164.937 682.206 165.043 682.233V684.381C164.929 684.347 164.772 684.316 164.571 684.29C164.37 684.263 164.187 684.25 164.02 684.25C163.664 684.25 163.346 684.328 163.065 684.483C162.789 684.634 162.569 684.847 162.406 685.119C162.247 685.392 162.168 685.706 162.168 686.062V691H159.747ZM172.486 691.165C171.929 691.165 171.433 691.068 170.997 690.875C170.562 690.678 170.217 690.388 169.963 690.006C169.713 689.619 169.588 689.138 169.588 688.562C169.588 688.078 169.677 687.67 169.855 687.341C170.033 687.011 170.276 686.746 170.582 686.545C170.889 686.345 171.238 686.193 171.628 686.091C172.022 685.989 172.435 685.917 172.866 685.875C173.374 685.822 173.783 685.773 174.094 685.727C174.404 685.678 174.63 685.606 174.77 685.511C174.91 685.417 174.98 685.277 174.98 685.091V685.057C174.98 684.697 174.866 684.419 174.639 684.222C174.416 684.025 174.098 683.926 173.685 683.926C173.249 683.926 172.902 684.023 172.645 684.216C172.387 684.405 172.217 684.644 172.134 684.932L169.895 684.75C170.009 684.22 170.232 683.761 170.565 683.375C170.899 682.985 171.329 682.686 171.855 682.477C172.385 682.265 172.999 682.159 173.696 682.159C174.181 682.159 174.645 682.216 175.088 682.33C175.535 682.443 175.931 682.619 176.276 682.858C176.624 683.097 176.899 683.403 177.099 683.778C177.3 684.15 177.401 684.595 177.401 685.114V691H175.105V689.79H175.037C174.897 690.062 174.709 690.303 174.474 690.511C174.24 690.716 173.957 690.877 173.628 690.994C173.298 691.108 172.918 691.165 172.486 691.165ZM173.179 689.494C173.535 689.494 173.849 689.424 174.122 689.284C174.395 689.14 174.609 688.947 174.764 688.705C174.92 688.462 174.997 688.187 174.997 687.881V686.955C174.921 687.004 174.817 687.049 174.685 687.091C174.556 687.129 174.41 687.165 174.247 687.199C174.084 687.229 173.921 687.258 173.759 687.284C173.596 687.307 173.448 687.328 173.315 687.347C173.031 687.388 172.783 687.455 172.571 687.545C172.359 687.636 172.194 687.759 172.077 687.915C171.959 688.066 171.901 688.256 171.901 688.483C171.901 688.812 172.02 689.064 172.259 689.239C172.501 689.409 172.808 689.494 173.179 689.494ZM172.946 681.148L171.213 678.562H173.446L174.656 681.148H172.946ZM182.982 691V682.273H185.288V683.812H185.391C185.572 683.301 185.875 682.898 186.3 682.602C186.724 682.307 187.232 682.159 187.822 682.159C188.421 682.159 188.93 682.309 189.351 682.608C189.771 682.903 190.052 683.305 190.192 683.812H190.283C190.461 683.312 190.783 682.913 191.249 682.614C191.718 682.311 192.273 682.159 192.913 682.159C193.728 682.159 194.389 682.419 194.896 682.938C195.408 683.453 195.663 684.184 195.663 685.131V691H193.249V685.608C193.249 685.123 193.12 684.759 192.862 684.517C192.605 684.275 192.283 684.153 191.896 684.153C191.457 684.153 191.114 684.294 190.868 684.574C190.622 684.85 190.499 685.216 190.499 685.67V691H188.152V685.557C188.152 685.129 188.029 684.788 187.783 684.534C187.54 684.28 187.22 684.153 186.822 684.153C186.554 684.153 186.311 684.222 186.095 684.358C185.883 684.491 185.714 684.678 185.589 684.92C185.464 685.159 185.402 685.439 185.402 685.761V691H182.982ZM200.064 691.165C199.507 691.165 199.011 691.068 198.575 690.875C198.14 690.678 197.795 690.388 197.541 690.006C197.291 689.619 197.166 689.138 197.166 688.562C197.166 688.078 197.255 687.67 197.433 687.341C197.611 687.011 197.854 686.746 198.161 686.545C198.467 686.345 198.816 686.193 199.206 686.091C199.6 685.989 200.013 685.917 200.445 685.875C200.952 685.822 201.361 685.773 201.672 685.727C201.982 685.678 202.208 685.606 202.348 685.511C202.488 685.417 202.558 685.277 202.558 685.091V685.057C202.558 684.697 202.445 684.419 202.217 684.222C201.994 684.025 201.676 683.926 201.263 683.926C200.827 683.926 200.481 684.023 200.223 684.216C199.965 684.405 199.795 684.644 199.712 684.932L197.473 684.75C197.587 684.22 197.81 683.761 198.143 683.375C198.477 682.985 198.907 682.686 199.433 682.477C199.964 682.265 200.577 682.159 201.274 682.159C201.759 682.159 202.223 682.216 202.666 682.33C203.113 682.443 203.509 682.619 203.854 682.858C204.202 683.097 204.477 683.403 204.678 683.778C204.878 684.15 204.979 684.595 204.979 685.114V691H202.683V689.79H202.615C202.475 690.062 202.287 690.303 202.053 690.511C201.818 690.716 201.536 690.877 201.206 690.994C200.876 691.108 200.496 691.165 200.064 691.165ZM200.757 689.494C201.113 689.494 201.428 689.424 201.7 689.284C201.973 689.14 202.187 688.947 202.342 688.705C202.498 688.462 202.575 688.187 202.575 687.881V686.955C202.5 687.004 202.395 687.049 202.263 687.091C202.134 687.129 201.988 687.165 201.825 687.199C201.662 687.229 201.5 687.258 201.337 687.284C201.174 687.307 201.026 687.328 200.893 687.347C200.609 687.388 200.361 687.455 200.149 687.545C199.937 687.636 199.772 687.759 199.655 687.915C199.537 688.066 199.479 688.256 199.479 688.483C199.479 688.812 199.598 689.064 199.837 689.239C200.079 689.409 200.386 689.494 200.757 689.494ZM214.503 691.17C213.609 691.17 212.84 690.981 212.196 690.602C211.556 690.22 211.063 689.689 210.719 689.011C210.378 688.333 210.207 687.553 210.207 686.67C210.207 685.777 210.38 684.992 210.724 684.318C211.073 683.64 211.567 683.112 212.207 682.733C212.848 682.35 213.609 682.159 214.491 682.159C215.253 682.159 215.92 682.297 216.491 682.574C217.063 682.85 217.516 683.239 217.849 683.739C218.183 684.239 218.366 684.826 218.401 685.5H216.116C216.052 685.064 215.882 684.714 215.605 684.449C215.332 684.18 214.974 684.045 214.531 684.045C214.156 684.045 213.829 684.148 213.548 684.352C213.272 684.553 213.056 684.847 212.901 685.233C212.745 685.619 212.668 686.087 212.668 686.636C212.668 687.193 212.743 687.667 212.895 688.057C213.05 688.447 213.268 688.744 213.548 688.949C213.829 689.153 214.156 689.256 214.531 689.256C214.808 689.256 215.056 689.199 215.276 689.085C215.499 688.972 215.683 688.807 215.827 688.591C215.974 688.371 216.071 688.108 216.116 687.801H218.401C218.363 688.468 218.181 689.055 217.855 689.562C217.533 690.066 217.088 690.46 216.52 690.744C215.952 691.028 215.279 691.17 214.503 691.17ZM223.893 691.17C223.011 691.17 222.248 690.983 221.604 690.608C220.964 690.229 220.469 689.703 220.121 689.028C219.772 688.35 219.598 687.564 219.598 686.67C219.598 685.769 219.772 684.981 220.121 684.307C220.469 683.629 220.964 683.102 221.604 682.727C222.248 682.348 223.011 682.159 223.893 682.159C224.776 682.159 225.537 682.348 226.178 682.727C226.821 683.102 227.318 683.629 227.666 684.307C228.015 684.981 228.189 685.769 228.189 686.67C228.189 687.564 228.015 688.35 227.666 689.028C227.318 689.703 226.821 690.229 226.178 690.608C225.537 690.983 224.776 691.17 223.893 691.17ZM223.905 689.295C224.306 689.295 224.642 689.182 224.911 688.955C225.179 688.723 225.382 688.409 225.518 688.011C225.659 687.614 225.729 687.161 225.729 686.653C225.729 686.146 225.659 685.693 225.518 685.295C225.382 684.898 225.179 684.583 224.911 684.352C224.642 684.121 224.306 684.006 223.905 684.006C223.5 684.006 223.159 684.121 222.882 684.352C222.609 684.583 222.403 684.898 222.263 685.295C222.126 685.693 222.058 686.146 222.058 686.653C222.058 687.161 222.126 687.614 222.263 688.011C222.403 688.409 222.609 688.723 222.882 688.955C223.159 689.182 223.5 689.295 223.905 689.295ZM232.183 679.364V691H229.763V679.364H232.183ZM236.543 679.364V691H234.122V679.364H236.543ZM242.459 691.17C241.561 691.17 240.788 690.989 240.141 690.625C239.497 690.258 239 689.739 238.652 689.068C238.304 688.394 238.129 687.597 238.129 686.676C238.129 685.778 238.304 684.991 238.652 684.312C239 683.634 239.491 683.106 240.124 682.727C240.76 682.348 241.506 682.159 242.362 682.159C242.938 682.159 243.474 682.252 243.97 682.438C244.47 682.619 244.906 682.894 245.277 683.261C245.652 683.629 245.944 684.091 246.152 684.648C246.36 685.201 246.464 685.848 246.464 686.591V687.256H239.095V685.756H244.186C244.186 685.407 244.11 685.098 243.959 684.83C243.807 684.561 243.597 684.35 243.328 684.199C243.063 684.044 242.754 683.966 242.402 683.966C242.035 683.966 241.709 684.051 241.425 684.222C241.144 684.388 240.925 684.614 240.766 684.898C240.607 685.178 240.525 685.491 240.521 685.835V687.261C240.521 687.693 240.601 688.066 240.76 688.381C240.923 688.695 241.152 688.938 241.447 689.108C241.743 689.278 242.093 689.364 242.499 689.364C242.768 689.364 243.014 689.326 243.237 689.25C243.461 689.174 243.652 689.061 243.811 688.909C243.97 688.758 244.091 688.572 244.175 688.352L246.413 688.5C246.3 689.038 246.067 689.508 245.714 689.909C245.366 690.307 244.915 690.617 244.362 690.841C243.813 691.061 243.179 691.17 242.459 691.17ZM251.987 691.17C251.093 691.17 250.324 690.981 249.68 690.602C249.04 690.22 248.548 689.689 248.203 689.011C247.862 688.333 247.692 687.553 247.692 686.67C247.692 685.777 247.864 684.992 248.209 684.318C248.557 683.64 249.052 683.112 249.692 682.733C250.332 682.35 251.093 682.159 251.976 682.159C252.737 682.159 253.404 682.297 253.976 682.574C254.548 682.85 255 683.239 255.334 683.739C255.667 684.239 255.851 684.826 255.885 685.5H253.601C253.536 685.064 253.366 684.714 253.089 684.449C252.817 684.18 252.459 684.045 252.016 684.045C251.641 684.045 251.313 684.148 251.033 684.352C250.756 684.553 250.54 684.847 250.385 685.233C250.23 685.619 250.152 686.087 250.152 686.636C250.152 687.193 250.228 687.667 250.379 688.057C250.535 688.447 250.752 688.744 251.033 688.949C251.313 689.153 251.641 689.256 252.016 689.256C252.292 689.256 252.54 689.199 252.76 689.085C252.983 688.972 253.167 688.807 253.311 688.591C253.459 688.371 253.555 688.108 253.601 687.801H255.885C255.847 688.468 255.665 689.055 255.339 689.562C255.018 690.066 254.572 690.46 254.004 690.744C253.436 691.028 252.764 691.17 251.987 691.17ZM262.077 682.273V684.091H256.821V682.273H262.077ZM258.014 680.182H260.435V688.318C260.435 688.542 260.469 688.716 260.537 688.841C260.605 688.962 260.7 689.047 260.821 689.097C260.946 689.146 261.09 689.17 261.253 689.17C261.366 689.17 261.48 689.161 261.594 689.142C261.707 689.119 261.795 689.102 261.855 689.091L262.236 690.892C262.115 690.93 261.944 690.973 261.724 691.023C261.505 691.076 261.238 691.108 260.923 691.119C260.34 691.142 259.829 691.064 259.389 690.886C258.954 690.708 258.615 690.432 258.372 690.057C258.13 689.682 258.01 689.208 258.014 688.636V680.182ZM263.653 691V682.273H266.074V691H263.653ZM264.869 681.148C264.509 681.148 264.201 681.028 263.943 680.79C263.689 680.547 263.562 680.258 263.562 679.92C263.562 679.587 263.689 679.301 263.943 679.062C264.201 678.82 264.509 678.699 264.869 678.699C265.229 678.699 265.536 678.82 265.79 679.062C266.047 679.301 266.176 679.587 266.176 679.92C266.176 680.258 266.047 680.547 265.79 680.79C265.536 681.028 265.229 681.148 264.869 681.148ZM271.956 691.17C271.073 691.17 270.31 690.983 269.666 690.608C269.026 690.229 268.532 689.703 268.183 689.028C267.835 688.35 267.661 687.564 267.661 686.67C267.661 685.769 267.835 684.981 268.183 684.307C268.532 683.629 269.026 683.102 269.666 682.727C270.31 682.348 271.073 682.159 271.956 682.159C272.839 682.159 273.6 682.348 274.24 682.727C274.884 683.102 275.38 683.629 275.729 684.307C276.077 684.981 276.251 685.769 276.251 686.67C276.251 687.564 276.077 688.35 275.729 689.028C275.38 689.703 274.884 690.229 274.24 690.608C273.6 690.983 272.839 691.17 271.956 691.17ZM271.967 689.295C272.369 689.295 272.704 689.182 272.973 688.955C273.242 688.723 273.445 688.409 273.581 688.011C273.721 687.614 273.791 687.161 273.791 686.653C273.791 686.146 273.721 685.693 273.581 685.295C273.445 684.898 273.242 684.583 272.973 684.352C272.704 684.121 272.369 684.006 271.967 684.006C271.562 684.006 271.221 684.121 270.945 684.352C270.672 684.583 270.465 684.898 270.325 685.295C270.189 685.693 270.121 686.146 270.121 686.653C270.121 687.161 270.189 687.614 270.325 688.011C270.465 688.409 270.672 688.723 270.945 688.955C271.221 689.182 271.562 689.295 271.967 689.295ZM280.246 685.955V691H277.825V682.273H280.132V683.812H280.234C280.428 683.305 280.751 682.903 281.206 682.608C281.661 682.309 282.212 682.159 282.859 682.159C283.465 682.159 283.994 682.292 284.445 682.557C284.895 682.822 285.246 683.201 285.496 683.693C285.746 684.182 285.871 684.765 285.871 685.443V691H283.45V685.875C283.454 685.341 283.318 684.924 283.041 684.625C282.765 684.322 282.384 684.17 281.899 684.17C281.573 684.17 281.286 684.241 281.036 684.381C280.789 684.521 280.596 684.725 280.456 684.994C280.32 685.259 280.25 685.58 280.246 685.955Z" fill="#EDDEF1"/>
</svg>
