<svg width="393" height="852" viewBox="0 0 393 852" fill="none" xmlns="http://www.w3.org/2000/svg">
<rect width="393" height="852" fill="#3B3B3B"/>
<rect x="19.5" y="348.5" width="355" height="155" stroke="white" stroke-width="5"/>
<circle cx="343" cy="59" r="20" fill="#D492E6" fill-opacity="0.9"/>
<path d="M339.222 52.6364L342.409 57.7798H342.506L345.693 52.6364H347.456L343.568 58.8182L347.456 65H345.693L342.506 59.9531H342.409L339.222 65H337.459L341.443 58.8182L337.459 52.6364H339.222Z" fill="#EDDEF1"/>
<rect x="97" y="516" width="200" height="50" rx="25" fill="#7D1797"/>
<path d="M138.259 537.727C138.186 537.116 137.892 536.641 137.377 536.303C136.862 535.964 136.23 535.795 135.482 535.795C134.934 535.795 134.455 535.884 134.045 536.061C133.638 536.238 133.32 536.482 133.091 536.792C132.866 537.101 132.753 537.454 132.753 537.848C132.753 538.178 132.831 538.462 132.988 538.699C133.149 538.933 133.355 539.128 133.604 539.285C133.854 539.438 134.115 539.565 134.389 539.665C134.663 539.762 134.914 539.84 135.143 539.901L136.399 540.239C136.721 540.323 137.079 540.44 137.474 540.589C137.872 540.738 138.252 540.941 138.615 541.199C138.981 541.452 139.283 541.778 139.52 542.176C139.758 542.575 139.876 543.064 139.876 543.643C139.876 544.312 139.701 544.915 139.351 545.455C139.005 545.994 138.498 546.422 137.83 546.74C137.166 547.058 136.359 547.217 135.409 547.217C134.524 547.217 133.757 547.074 133.109 546.789C132.465 546.503 131.958 546.105 131.588 545.593C131.221 545.082 131.014 544.489 130.966 543.812H132.511C132.552 544.279 132.709 544.666 132.982 544.972C133.26 545.273 133.61 545.499 134.033 545.648C134.459 545.793 134.918 545.865 135.409 545.865C135.981 545.865 136.494 545.772 136.949 545.587C137.403 545.398 137.763 545.137 138.029 544.803C138.295 544.464 138.428 544.07 138.428 543.619C138.428 543.209 138.313 542.875 138.083 542.617C137.854 542.36 137.552 542.15 137.178 541.989C136.804 541.828 136.399 541.687 135.964 541.567L134.443 541.132C133.477 540.854 132.713 540.458 132.149 539.943C131.586 539.428 131.304 538.754 131.304 537.92C131.304 537.228 131.491 536.625 131.865 536.109C132.244 535.59 132.751 535.188 133.387 534.902C134.027 534.612 134.741 534.467 135.53 534.467C136.327 534.467 137.035 534.61 137.655 534.896C138.275 535.178 138.766 535.564 139.128 536.055C139.494 536.546 139.687 537.103 139.707 537.727H138.259ZM144.873 547.217C144.286 547.217 143.753 547.107 143.274 546.885C142.795 546.66 142.414 546.336 142.133 545.913C141.851 545.487 141.71 544.972 141.71 544.368C141.71 543.837 141.815 543.406 142.024 543.076C142.233 542.742 142.513 542.48 142.863 542.291C143.213 542.102 143.6 541.961 144.022 541.869C144.449 541.772 144.878 541.696 145.308 541.639C145.872 541.567 146.328 541.512 146.679 541.476C147.033 541.436 147.29 541.37 147.451 541.277C147.616 541.184 147.699 541.023 147.699 540.794V540.746C147.699 540.15 147.536 539.687 147.21 539.357C146.888 539.027 146.399 538.862 145.743 538.862C145.063 538.862 144.529 539.011 144.143 539.309C143.757 539.607 143.485 539.925 143.328 540.263L141.976 539.78C142.217 539.216 142.539 538.778 142.942 538.464C143.348 538.146 143.791 537.924 144.27 537.8C144.753 537.671 145.228 537.607 145.695 537.607C145.992 537.607 146.334 537.643 146.721 537.715C147.111 537.784 147.487 537.926 147.85 538.144C148.216 538.361 148.52 538.689 148.761 539.128C149.003 539.567 149.123 540.154 149.123 540.891V547H147.699V545.744H147.626C147.53 545.946 147.369 546.161 147.143 546.39C146.918 546.62 146.618 546.815 146.244 546.976C145.87 547.137 145.413 547.217 144.873 547.217ZM145.091 545.938C145.654 545.938 146.129 545.827 146.516 545.605C146.906 545.384 147.2 545.098 147.397 544.748C147.598 544.398 147.699 544.03 147.699 543.643V542.339C147.638 542.412 147.506 542.478 147.3 542.539C147.099 542.595 146.866 542.645 146.6 542.69C146.338 542.73 146.083 542.766 145.833 542.798C145.588 542.826 145.389 542.851 145.236 542.871C144.865 542.919 144.519 542.998 144.197 543.106C143.879 543.211 143.622 543.37 143.425 543.583C143.231 543.792 143.135 544.078 143.135 544.44C143.135 544.935 143.318 545.31 143.684 545.563C144.054 545.813 144.523 545.938 145.091 545.938ZM151.724 547V537.727H153.149V547H151.724ZM152.448 536.182C152.171 536.182 151.931 536.087 151.73 535.898C151.533 535.709 151.434 535.482 151.434 535.216C151.434 534.95 151.533 534.723 151.73 534.534C151.931 534.345 152.171 534.25 152.448 534.25C152.726 534.25 152.963 534.345 153.161 534.534C153.362 534.723 153.463 534.95 153.463 535.216C153.463 535.482 153.362 535.709 153.161 535.898C152.963 536.087 152.726 536.182 152.448 536.182ZM162.326 539.804L161.046 540.166C160.966 539.953 160.847 539.746 160.69 539.544C160.537 539.339 160.328 539.17 160.062 539.037C159.797 538.904 159.457 538.838 159.042 538.838C158.475 538.838 158.002 538.969 157.623 539.23C157.249 539.488 157.062 539.816 157.062 540.214C157.062 540.569 157.191 540.848 157.448 541.054C157.706 541.259 158.108 541.43 158.656 541.567L160.032 541.905C160.861 542.106 161.479 542.414 161.886 542.828C162.292 543.239 162.495 543.768 162.495 544.416C162.495 544.947 162.342 545.422 162.036 545.841C161.735 546.259 161.312 546.589 160.769 546.831C160.225 547.072 159.594 547.193 158.873 547.193C157.927 547.193 157.145 546.988 156.525 546.577C155.905 546.167 155.513 545.567 155.348 544.778L156.7 544.44C156.829 544.939 157.072 545.314 157.43 545.563C157.793 545.813 158.265 545.938 158.849 545.938C159.513 545.938 160.04 545.797 160.431 545.515C160.825 545.229 161.022 544.887 161.022 544.489C161.022 544.167 160.91 543.897 160.684 543.68C160.459 543.458 160.113 543.293 159.646 543.185L158.1 542.822C157.251 542.621 156.627 542.309 156.229 541.887C155.835 541.46 155.637 540.927 155.637 540.287C155.637 539.764 155.784 539.301 156.078 538.898C156.376 538.496 156.78 538.18 157.291 537.951C157.807 537.721 158.39 537.607 159.042 537.607C159.96 537.607 160.68 537.808 161.203 538.21C161.731 538.613 162.105 539.144 162.326 539.804ZM164.64 547V537.727H166.065V547H164.64ZM165.364 536.182C165.087 536.182 164.847 536.087 164.646 535.898C164.449 535.709 164.35 535.482 164.35 535.216C164.35 534.95 164.449 534.723 164.646 534.534C164.847 534.345 165.087 534.25 165.364 534.25C165.642 534.25 165.879 534.345 166.077 534.534C166.278 534.723 166.379 534.95 166.379 535.216C166.379 535.482 166.278 535.709 166.077 535.898C165.879 536.087 165.642 536.182 165.364 536.182ZM172.562 547.193C171.668 547.193 170.898 546.996 170.25 546.602C169.606 546.203 169.109 545.648 168.759 544.935C168.412 544.219 168.239 543.386 168.239 542.436C168.239 541.486 168.412 540.649 168.759 539.925C169.109 539.196 169.596 538.629 170.22 538.222C170.847 537.812 171.58 537.607 172.417 537.607C172.9 537.607 173.377 537.687 173.848 537.848C174.319 538.009 174.747 538.271 175.134 538.633C175.52 538.991 175.828 539.466 176.057 540.058C176.287 540.649 176.401 541.378 176.401 542.243V542.847H169.254V541.615H174.953C174.953 541.092 174.848 540.625 174.639 540.214C174.433 539.804 174.14 539.48 173.757 539.243C173.379 539.005 172.932 538.886 172.417 538.886C171.85 538.886 171.359 539.027 170.944 539.309C170.533 539.587 170.218 539.949 169.996 540.396C169.775 540.842 169.664 541.321 169.664 541.832V542.653C169.664 543.354 169.785 543.947 170.026 544.434C170.272 544.917 170.612 545.286 171.047 545.539C171.481 545.789 171.986 545.913 172.562 545.913C172.936 545.913 173.274 545.861 173.576 545.756C173.882 545.648 174.146 545.487 174.367 545.273C174.588 545.056 174.759 544.786 174.88 544.464L176.256 544.851C176.112 545.318 175.868 545.728 175.526 546.082C175.184 546.433 174.761 546.706 174.258 546.903C173.755 547.097 173.19 547.193 172.562 547.193ZM183.35 547V537.727H184.726V539.176H184.847C185.04 538.681 185.352 538.297 185.783 538.023C186.213 537.745 186.731 537.607 187.334 537.607C187.946 537.607 188.455 537.745 188.862 538.023C189.272 538.297 189.592 538.681 189.821 539.176H189.918C190.156 538.697 190.512 538.317 190.987 538.035C191.462 537.749 192.031 537.607 192.695 537.607C193.524 537.607 194.202 537.866 194.729 538.385C195.257 538.9 195.52 539.703 195.52 540.794V547H194.096V540.794C194.096 540.11 193.908 539.621 193.534 539.327C193.16 539.033 192.719 538.886 192.212 538.886C191.56 538.886 191.055 539.084 190.697 539.478C190.339 539.868 190.16 540.363 190.16 540.963V547H188.711V540.649C188.711 540.122 188.54 539.697 188.198 539.375C187.855 539.049 187.415 538.886 186.875 538.886C186.505 538.886 186.159 538.985 185.837 539.182C185.519 539.379 185.262 539.653 185.064 540.003C184.871 540.349 184.775 540.75 184.775 541.205V547H183.35ZM200.854 547.217C200.266 547.217 199.733 547.107 199.254 546.885C198.775 546.66 198.395 546.336 198.113 545.913C197.831 545.487 197.691 544.972 197.691 544.368C197.691 543.837 197.795 543.406 198.005 543.076C198.214 542.742 198.494 542.48 198.844 542.291C199.194 542.102 199.58 541.961 200.003 541.869C200.429 541.772 200.858 541.696 201.289 541.639C201.852 541.567 202.309 541.512 202.659 541.476C203.013 541.436 203.271 541.37 203.432 541.277C203.597 541.184 203.679 541.023 203.679 540.794V540.746C203.679 540.15 203.516 539.687 203.19 539.357C202.868 539.027 202.379 538.862 201.723 538.862C201.043 538.862 200.51 539.011 200.123 539.309C199.737 539.607 199.465 539.925 199.309 540.263L197.956 539.78C198.198 539.216 198.52 538.778 198.922 538.464C199.329 538.146 199.771 537.924 200.25 537.8C200.733 537.671 201.208 537.607 201.675 537.607C201.973 537.607 202.315 537.643 202.701 537.715C203.092 537.784 203.468 537.926 203.83 538.144C204.196 538.361 204.5 538.689 204.742 539.128C204.983 539.567 205.104 540.154 205.104 540.891V547H203.679V545.744H203.607C203.51 545.946 203.349 546.161 203.124 546.39C202.898 546.62 202.599 546.815 202.224 546.976C201.85 547.137 201.393 547.217 200.854 547.217ZM201.071 545.938C201.635 545.938 202.11 545.827 202.496 545.605C202.886 545.384 203.18 545.098 203.377 544.748C203.579 544.398 203.679 544.03 203.679 543.643V542.339C203.619 542.412 203.486 542.478 203.281 542.539C203.08 542.595 202.846 542.645 202.581 542.69C202.319 542.73 202.063 542.766 201.814 542.798C201.568 542.826 201.369 542.851 201.216 542.871C200.846 542.919 200.5 542.998 200.178 543.106C199.86 543.211 199.602 543.37 199.405 543.583C199.212 543.792 199.115 544.078 199.115 544.44C199.115 544.935 199.298 545.31 199.665 545.563C200.035 545.813 200.504 545.938 201.071 545.938ZM213.548 543.209V537.727H214.973V547H213.548V545.43H213.452C213.234 545.901 212.896 546.302 212.437 546.632C211.979 546.958 211.399 547.121 210.699 547.121C210.119 547.121 209.604 546.994 209.153 546.74C208.702 546.483 208.348 546.096 208.091 545.581C207.833 545.062 207.704 544.408 207.704 543.619V537.727H209.129V543.523C209.129 544.199 209.318 544.738 209.697 545.141C210.079 545.543 210.566 545.744 211.157 545.744C211.512 545.744 211.872 545.654 212.238 545.473C212.608 545.292 212.918 545.014 213.168 544.64C213.421 544.265 213.548 543.788 213.548 543.209ZM219.007 541.422V547H217.582V537.727H218.959V539.176H219.079C219.297 538.705 219.627 538.327 220.07 538.041C220.512 537.751 221.084 537.607 221.784 537.607C222.412 537.607 222.961 537.735 223.432 537.993C223.903 538.246 224.269 538.633 224.531 539.152C224.792 539.667 224.923 540.319 224.923 541.108V547H223.498V541.205C223.498 540.476 223.309 539.909 222.931 539.502C222.553 539.092 222.034 538.886 221.373 538.886C220.919 538.886 220.512 538.985 220.154 539.182C219.8 539.379 219.52 539.667 219.315 540.045C219.11 540.424 219.007 540.883 219.007 541.422ZM233.37 543.209V537.727H234.795V547H233.37V545.43H233.274C233.056 545.901 232.718 546.302 232.26 546.632C231.801 546.958 231.221 547.121 230.521 547.121C229.941 547.121 229.426 546.994 228.975 546.74C228.525 546.483 228.171 546.096 227.913 545.581C227.655 545.062 227.527 544.408 227.527 543.619V537.727H228.951V543.523C228.951 544.199 229.141 544.738 229.519 545.141C229.901 545.543 230.388 545.744 230.98 545.744C231.334 545.744 231.694 545.654 232.06 545.473C232.431 545.292 232.741 545.014 232.99 544.64C233.244 544.265 233.37 543.788 233.37 543.209ZM241.292 547.193C240.399 547.193 239.628 546.996 238.98 546.602C238.336 546.203 237.839 545.648 237.489 544.935C237.143 544.219 236.97 543.386 236.97 542.436C236.97 541.486 237.143 540.649 237.489 539.925C237.839 539.196 238.326 538.629 238.95 538.222C239.578 537.812 240.31 537.607 241.147 537.607C241.63 537.607 242.107 537.687 242.578 537.848C243.049 538.009 243.478 538.271 243.864 538.633C244.25 538.991 244.558 539.466 244.788 540.058C245.017 540.649 245.132 541.378 245.132 542.243V542.847H237.984V541.615H243.683C243.683 541.092 243.578 540.625 243.369 540.214C243.164 539.804 242.87 539.48 242.488 539.243C242.109 539.005 241.663 538.886 241.147 538.886C240.58 538.886 240.089 539.027 239.674 539.309C239.264 539.587 238.948 539.949 238.727 540.396C238.505 540.842 238.395 541.321 238.395 541.832V542.653C238.395 543.354 238.515 543.947 238.757 544.434C239.002 544.917 239.342 545.286 239.777 545.539C240.212 545.789 240.717 545.913 241.292 545.913C241.667 545.913 242.005 545.861 242.307 545.756C242.612 545.648 242.876 545.487 243.097 545.273C243.319 545.056 243.49 544.786 243.611 544.464L244.987 544.851C244.842 545.318 244.599 545.728 244.256 546.082C243.914 546.433 243.492 546.706 242.989 546.903C242.486 547.097 241.92 547.193 241.292 547.193ZM248.724 534.636V547H247.299V534.636H248.724ZM252.758 534.636V547H251.333V534.636H252.758ZM259.255 547.193C258.362 547.193 257.591 546.996 256.943 546.602C256.299 546.203 255.802 545.648 255.452 544.935C255.106 544.219 254.933 543.386 254.933 542.436C254.933 541.486 255.106 540.649 255.452 539.925C255.802 539.196 256.289 538.629 256.913 538.222C257.541 537.812 258.273 537.607 259.11 537.607C259.593 537.607 260.07 537.687 260.541 537.848C261.012 538.009 261.441 538.271 261.827 538.633C262.213 538.991 262.521 539.466 262.751 540.058C262.98 540.649 263.095 541.378 263.095 542.243V542.847H255.947V541.615H261.646C261.646 541.092 261.541 540.625 261.332 540.214C261.127 539.804 260.833 539.48 260.451 539.243C260.072 539.005 259.626 538.886 259.11 538.886C258.543 538.886 258.052 539.027 257.637 539.309C257.227 539.587 256.911 539.949 256.69 540.396C256.468 540.842 256.358 541.321 256.358 541.832V542.653C256.358 543.354 256.478 543.947 256.72 544.434C256.965 544.917 257.305 545.286 257.74 545.539C258.175 545.789 258.68 545.913 259.255 545.913C259.63 545.913 259.968 545.861 260.269 545.756C260.575 545.648 260.839 545.487 261.06 545.273C261.282 545.056 261.453 544.786 261.573 544.464L262.95 544.851C262.805 545.318 262.561 545.728 262.219 546.082C261.877 546.433 261.455 546.706 260.952 546.903C260.449 547.097 259.883 547.193 259.255 547.193Z" fill="#EDDEF1"/>
<path d="M0 576C0 562.745 10.7452 552 24 552H369C382.255 552 393 562.745 393 576V852H0V576Z" fill="#7D1797"/>
<rect x="45" y="632" width="80" height="80" fill="#4A4A4A"/>
<path d="M144.568 637.392V635.364H154.125V637.392H150.562V647H148.131V637.392H144.568ZM155.653 647V638.273H158.074V647H155.653ZM156.869 637.148C156.509 637.148 156.201 637.028 155.943 636.79C155.689 636.547 155.562 636.258 155.562 635.92C155.562 635.587 155.689 635.301 155.943 635.062C156.201 634.82 156.509 634.699 156.869 634.699C157.229 634.699 157.536 634.82 157.79 635.062C158.047 635.301 158.176 635.587 158.176 635.92C158.176 636.258 158.047 636.547 157.79 636.79C157.536 637.028 157.229 637.148 156.869 637.148ZM164.655 638.273V640.091H159.399V638.273H164.655ZM160.592 636.182H163.013V644.318C163.013 644.542 163.047 644.716 163.115 644.841C163.183 644.962 163.278 645.047 163.399 645.097C163.524 645.146 163.668 645.17 163.831 645.17C163.945 645.17 164.058 645.161 164.172 645.142C164.286 645.119 164.373 645.102 164.433 645.091L164.814 646.892C164.693 646.93 164.522 646.973 164.303 647.023C164.083 647.076 163.816 647.108 163.501 647.119C162.918 647.142 162.407 647.064 161.967 646.886C161.532 646.708 161.193 646.432 160.95 646.057C160.708 645.682 160.589 645.208 160.592 644.636V636.182ZM166.232 647V638.273H168.578V639.795H168.669C168.828 639.254 169.095 638.845 169.47 638.568C169.845 638.288 170.277 638.148 170.766 638.148C170.887 638.148 171.018 638.155 171.158 638.17C171.298 638.186 171.421 638.206 171.527 638.233V640.381C171.413 640.347 171.256 640.316 171.055 640.29C170.855 640.263 170.671 640.25 170.504 640.25C170.148 640.25 169.83 640.328 169.55 640.483C169.273 640.634 169.054 640.847 168.891 641.119C168.732 641.392 168.652 641.706 168.652 642.062V647H166.232ZM176.349 647.17C175.452 647.17 174.679 646.989 174.031 646.625C173.387 646.258 172.891 645.739 172.543 645.068C172.194 644.394 172.02 643.597 172.02 642.676C172.02 641.778 172.194 640.991 172.543 640.312C172.891 639.634 173.382 639.106 174.014 638.727C174.651 638.348 175.397 638.159 176.253 638.159C176.829 638.159 177.365 638.252 177.861 638.438C178.361 638.619 178.796 638.894 179.168 639.261C179.543 639.629 179.834 640.091 180.043 640.648C180.251 641.201 180.355 641.848 180.355 642.591V643.256H172.986V641.756H178.077C178.077 641.407 178.001 641.098 177.849 640.83C177.698 640.561 177.488 640.35 177.219 640.199C176.954 640.044 176.645 639.966 176.293 639.966C175.925 639.966 175.599 640.051 175.315 640.222C175.035 640.388 174.815 640.614 174.656 640.898C174.497 641.178 174.416 641.491 174.412 641.835V643.261C174.412 643.693 174.491 644.066 174.651 644.381C174.813 644.695 175.043 644.938 175.338 645.108C175.634 645.278 175.984 645.364 176.389 645.364C176.658 645.364 176.904 645.326 177.128 645.25C177.351 645.174 177.543 645.061 177.702 644.909C177.861 644.758 177.982 644.572 178.065 644.352L180.304 644.5C180.19 645.038 179.957 645.508 179.605 645.909C179.257 646.307 178.806 646.617 178.253 646.841C177.704 647.061 177.069 647.17 176.349 647.17Z" fill="#EDDEF1"/>
<path d="M153.307 667.818V678H152.114L146.565 670.006H146.466V678H145.233V667.818H146.426L151.994 675.832H152.094V667.818H153.307ZM158.717 678.159C158.028 678.159 157.423 677.995 156.903 677.667C156.385 677.339 155.981 676.88 155.689 676.29C155.401 675.7 155.257 675.01 155.257 674.222C155.257 673.426 155.401 672.732 155.689 672.138C155.981 671.545 156.385 671.085 156.903 670.756C157.423 670.428 158.028 670.264 158.717 670.264C159.407 670.264 160.01 670.428 160.527 670.756C161.047 671.085 161.452 671.545 161.74 672.138C162.032 672.732 162.177 673.426 162.177 674.222C162.177 675.01 162.032 675.7 161.74 676.29C161.452 676.88 161.047 677.339 160.527 677.667C160.01 677.995 159.407 678.159 158.717 678.159ZM158.717 677.105C159.241 677.105 159.672 676.971 160.01 676.702C160.348 676.434 160.598 676.081 160.76 675.643C160.923 675.206 161.004 674.732 161.004 674.222C161.004 673.711 160.923 673.236 160.76 672.795C160.598 672.354 160.348 671.998 160.01 671.726C159.672 671.454 159.241 671.318 158.717 671.318C158.193 671.318 157.763 671.454 157.425 671.726C157.086 671.998 156.836 672.354 156.674 672.795C156.511 673.236 156.43 673.711 156.43 674.222C156.43 674.732 156.511 675.206 156.674 675.643C156.836 676.081 157.086 676.434 157.425 676.702C157.763 676.971 158.193 677.105 158.717 677.105ZM163.968 678V670.364H165.102V671.557H165.201C165.36 671.149 165.617 670.833 165.972 670.607C166.327 670.379 166.752 670.264 167.25 670.264C167.753 670.264 168.173 670.379 168.507 670.607C168.846 670.833 169.109 671.149 169.298 671.557H169.377C169.573 671.162 169.866 670.849 170.257 670.617C170.649 670.382 171.118 670.264 171.664 670.264C172.347 670.264 172.906 670.478 173.34 670.906C173.774 671.33 173.991 671.991 173.991 672.889V678H172.818V672.889C172.818 672.326 172.664 671.923 172.355 671.681C172.047 671.439 171.684 671.318 171.267 671.318C170.73 671.318 170.314 671.481 170.019 671.805C169.724 672.127 169.576 672.535 169.576 673.028V678H168.383V672.77C168.383 672.336 168.242 671.986 167.961 671.721C167.679 671.452 167.316 671.318 166.872 671.318C166.567 671.318 166.282 671.399 166.017 671.562C165.755 671.724 165.543 671.95 165.38 672.238C165.221 672.523 165.142 672.853 165.142 673.227V678H163.968ZM182.957 678.159C182.321 678.159 181.759 677.998 181.272 677.677C180.785 677.352 180.404 676.895 180.129 676.305C179.853 675.711 179.716 675.01 179.716 674.202C179.716 673.4 179.853 672.704 180.129 672.114C180.404 671.524 180.786 671.068 181.277 670.746C181.768 670.425 182.334 670.264 182.977 670.264C183.474 670.264 183.867 670.347 184.156 670.513C184.447 670.675 184.669 670.861 184.822 671.07C184.978 671.275 185.098 671.444 185.185 671.577H185.284V667.818H186.457V678H185.324V676.827H185.185C185.098 676.966 184.976 677.142 184.817 677.354C184.658 677.562 184.431 677.75 184.136 677.915C183.841 678.078 183.448 678.159 182.957 678.159ZM183.116 677.105C183.587 677.105 183.985 676.982 184.31 676.737C184.634 676.489 184.881 676.146 185.05 675.708C185.219 675.267 185.304 674.759 185.304 674.182C185.304 673.612 185.221 673.113 185.055 672.685C184.89 672.254 184.644 671.92 184.32 671.681C183.995 671.439 183.594 671.318 183.116 671.318C182.619 671.318 182.205 671.446 181.874 671.701C181.545 671.953 181.299 672.296 181.133 672.73C180.97 673.161 180.889 673.645 180.889 674.182C180.889 674.725 180.972 675.219 181.138 675.663C181.307 676.104 181.555 676.455 181.884 676.717C182.215 676.976 182.626 677.105 183.116 677.105ZM191.971 678.159C191.235 678.159 190.6 677.997 190.067 677.672C189.536 677.344 189.127 676.886 188.839 676.3C188.554 675.71 188.411 675.024 188.411 674.241C188.411 673.459 188.554 672.77 188.839 672.173C189.127 671.573 189.528 671.106 190.042 670.771C190.559 670.433 191.162 670.264 191.852 670.264C192.249 670.264 192.642 670.33 193.03 670.463C193.418 670.596 193.771 670.811 194.089 671.109C194.407 671.404 194.661 671.795 194.849 672.283C195.038 672.77 195.133 673.37 195.133 674.082V674.58H189.246V673.565H193.94C193.94 673.134 193.853 672.75 193.681 672.412C193.512 672.074 193.27 671.807 192.955 671.612C192.644 671.416 192.276 671.318 191.852 671.318C191.384 671.318 190.98 671.434 190.638 671.666C190.3 671.895 190.04 672.193 189.858 672.561C189.676 672.929 189.585 673.323 189.585 673.744V674.42C189.585 674.997 189.684 675.486 189.883 675.887C190.085 676.285 190.365 676.588 190.723 676.797C191.081 677.002 191.497 677.105 191.971 677.105C192.279 677.105 192.558 677.062 192.806 676.976C193.058 676.886 193.275 676.754 193.457 676.578C193.64 676.399 193.781 676.177 193.88 675.912L195.013 676.23C194.894 676.615 194.694 676.953 194.412 677.244C194.13 677.533 193.782 677.758 193.368 677.92C192.954 678.08 192.488 678.159 191.971 678.159ZM202.028 667.818V678H200.855V667.818H202.028ZM205.211 667.818V668.713C205.211 668.985 205.162 669.275 205.062 669.583C204.966 669.888 204.824 670.185 204.635 670.473C204.449 670.758 204.224 671.007 203.959 671.219L203.322 670.702C203.531 670.403 203.712 670.094 203.864 669.772C204.02 669.447 204.098 669.101 204.098 668.733V667.818H205.211ZM208.216 678.179C207.732 678.179 207.292 678.088 206.898 677.906C206.504 677.72 206.19 677.453 205.958 677.105C205.726 676.754 205.61 676.33 205.61 675.832C205.61 675.395 205.697 675.04 205.869 674.768C206.041 674.493 206.272 674.278 206.56 674.122C206.848 673.966 207.167 673.85 207.515 673.774C207.866 673.695 208.219 673.632 208.574 673.585C209.038 673.526 209.414 673.481 209.702 673.451C209.994 673.418 210.206 673.363 210.338 673.287C210.474 673.211 210.542 673.078 210.542 672.889V672.849C210.542 672.359 210.408 671.978 210.14 671.706C209.874 671.434 209.472 671.298 208.931 671.298C208.371 671.298 207.932 671.421 207.614 671.666C207.296 671.911 207.072 672.173 206.943 672.452L205.829 672.054C206.028 671.59 206.293 671.229 206.625 670.97C206.959 670.708 207.324 670.526 207.718 670.423C208.116 670.317 208.507 670.264 208.892 670.264C209.137 670.264 209.419 670.294 209.737 670.354C210.058 670.41 210.368 670.528 210.667 670.707C210.968 670.886 211.218 671.156 211.417 671.517C211.616 671.878 211.716 672.362 211.716 672.969V678H210.542V676.966H210.483C210.403 677.132 210.27 677.309 210.085 677.498C209.899 677.687 209.652 677.848 209.344 677.98C209.036 678.113 208.66 678.179 208.216 678.179ZM208.395 677.125C208.859 677.125 209.25 677.034 209.568 676.852C209.889 676.669 210.131 676.434 210.294 676.146C210.459 675.857 210.542 675.554 210.542 675.236V674.162C210.493 674.222 210.383 674.276 210.214 674.326C210.048 674.372 209.856 674.414 209.637 674.45C209.422 674.483 209.212 674.513 209.006 674.54C208.804 674.563 208.64 674.583 208.514 674.599C208.209 674.639 207.924 674.704 207.659 674.793C207.397 674.879 207.185 675.01 207.022 675.186C206.863 675.358 206.784 675.594 206.784 675.892C206.784 676.3 206.935 676.608 207.236 676.817C207.541 677.022 207.927 677.125 208.395 677.125ZM213.857 678V670.364H214.991V671.517H215.07C215.209 671.139 215.461 670.833 215.826 670.597C216.19 670.362 216.601 670.244 217.059 670.244C217.145 670.244 217.253 670.246 217.382 670.249C217.511 670.253 217.609 670.258 217.675 670.264V671.457C217.635 671.447 217.544 671.433 217.402 671.413C217.263 671.389 217.115 671.378 216.959 671.378C216.588 671.378 216.257 671.456 215.965 671.612C215.677 671.764 215.448 671.976 215.279 672.248C215.113 672.516 215.03 672.823 215.03 673.168V678H213.857ZM222.866 670.364V671.358H218.908V670.364H222.866ZM220.062 668.534H221.235V675.812C221.235 676.144 221.283 676.393 221.379 676.558C221.479 676.721 221.604 676.83 221.757 676.886C221.913 676.939 222.077 676.966 222.249 676.966C222.378 676.966 222.484 676.959 222.567 676.946C222.65 676.929 222.716 676.916 222.766 676.906L223.005 677.96C222.925 677.99 222.814 678.02 222.672 678.05C222.529 678.083 222.349 678.099 222.13 678.099C221.798 678.099 221.474 678.028 221.155 677.886C220.84 677.743 220.579 677.526 220.37 677.234C220.164 676.943 220.062 676.575 220.062 676.131V668.534ZM224.631 678V670.364H225.804V678H224.631ZM225.227 669.091C224.998 669.091 224.801 669.013 224.635 668.857C224.473 668.701 224.392 668.514 224.392 668.295C224.392 668.077 224.473 667.889 224.635 667.734C224.801 667.578 224.998 667.5 225.227 667.5C225.456 667.5 225.651 667.578 225.814 667.734C225.979 667.889 226.062 668.077 226.062 668.295C226.062 668.514 225.979 668.701 225.814 668.857C225.651 669.013 225.456 669.091 225.227 669.091ZM233.362 672.074L232.308 672.372C232.242 672.196 232.144 672.026 232.015 671.86C231.889 671.691 231.716 671.552 231.498 671.442C231.279 671.333 230.999 671.278 230.657 671.278C230.19 671.278 229.801 671.386 229.489 671.602C229.181 671.814 229.027 672.084 229.027 672.412C229.027 672.704 229.133 672.934 229.345 673.103C229.557 673.272 229.888 673.413 230.339 673.526L231.473 673.804C232.155 673.97 232.664 674.223 232.999 674.565C233.334 674.903 233.501 675.339 233.501 675.872C233.501 676.31 233.375 676.701 233.123 677.045C232.875 677.39 232.527 677.662 232.079 677.861C231.632 678.06 231.111 678.159 230.518 678.159C229.739 678.159 229.095 677.99 228.584 677.652C228.074 677.314 227.751 676.82 227.615 676.17L228.728 675.892C228.834 676.303 229.035 676.611 229.33 676.817C229.628 677.022 230.018 677.125 230.498 677.125C231.045 677.125 231.479 677.009 231.801 676.777C232.126 676.542 232.288 676.26 232.288 675.932C232.288 675.667 232.195 675.445 232.01 675.266C231.824 675.083 231.539 674.947 231.154 674.858L229.882 674.56C229.182 674.394 228.669 674.137 228.341 673.789C228.016 673.438 227.853 672.999 227.853 672.472C227.853 672.041 227.974 671.66 228.216 671.328C228.462 670.997 228.795 670.737 229.216 670.548C229.64 670.359 230.12 670.264 230.657 670.264C231.413 670.264 232.006 670.43 232.437 670.761C232.871 671.093 233.18 671.53 233.362 672.074ZM238.588 670.364V671.358H234.631V670.364H238.588ZM235.784 668.534H236.958V675.812C236.958 676.144 237.006 676.393 237.102 676.558C237.201 676.721 237.327 676.83 237.48 676.886C237.635 676.939 237.799 676.966 237.972 676.966C238.101 676.966 238.207 676.959 238.29 676.946C238.373 676.929 238.439 676.916 238.489 676.906L238.727 677.96C238.648 677.99 238.537 678.02 238.394 678.05C238.252 678.083 238.071 678.099 237.852 678.099C237.521 678.099 237.196 678.028 236.878 677.886C236.563 677.743 236.301 677.526 236.093 677.234C235.887 676.943 235.784 676.575 235.784 676.131V668.534ZM243.473 678.159C242.737 678.159 242.102 677.997 241.569 677.672C241.038 677.344 240.629 676.886 240.341 676.3C240.056 675.71 239.913 675.024 239.913 674.241C239.913 673.459 240.056 672.77 240.341 672.173C240.629 671.573 241.03 671.106 241.544 670.771C242.061 670.433 242.664 670.264 243.354 670.264C243.751 670.264 244.144 670.33 244.532 670.463C244.92 670.596 245.273 670.811 245.591 671.109C245.909 671.404 246.162 671.795 246.351 672.283C246.54 672.77 246.635 673.37 246.635 674.082V674.58H240.748V673.565H245.442C245.442 673.134 245.355 672.75 245.183 672.412C245.014 672.074 244.772 671.807 244.457 671.612C244.146 671.416 243.778 671.318 243.354 671.318C242.886 671.318 242.482 671.434 242.14 671.666C241.802 671.895 241.542 672.193 241.36 672.561C241.178 672.929 241.086 673.323 241.086 673.744V674.42C241.086 674.997 241.186 675.486 241.385 675.887C241.587 676.285 241.867 676.588 242.225 676.797C242.583 677.002 242.999 677.105 243.473 677.105C243.781 677.105 244.059 677.062 244.308 676.976C244.56 676.886 244.777 676.754 244.959 676.578C245.142 676.399 245.282 676.177 245.382 675.912L246.515 676.23C246.396 676.615 246.196 676.953 245.914 677.244C245.632 677.533 245.284 677.758 244.87 677.92C244.456 678.08 243.99 678.159 243.473 678.159ZM256.732 672.362V673.456H252.278V672.362H256.732ZM262.714 678V677.105L266.075 673.426C266.469 672.995 266.794 672.621 267.049 672.303C267.305 671.981 267.493 671.679 267.616 671.398C267.742 671.113 267.805 670.814 267.805 670.503C267.805 670.145 267.719 669.835 267.547 669.573C267.377 669.311 267.145 669.109 266.85 668.967C266.556 668.824 266.224 668.753 265.856 668.753C265.465 668.753 265.124 668.834 264.832 668.996C264.544 669.156 264.32 669.379 264.161 669.668C264.005 669.956 263.927 670.294 263.927 670.682H262.754C262.754 670.085 262.891 669.562 263.167 669.111C263.442 668.66 263.816 668.309 264.29 668.057C264.767 667.805 265.303 667.679 265.896 667.679C266.493 667.679 267.021 667.805 267.482 668.057C267.943 668.309 268.304 668.648 268.566 669.076C268.828 669.504 268.958 669.979 268.958 670.503C268.958 670.877 268.891 671.244 268.755 671.602C268.622 671.956 268.39 672.352 268.059 672.79C267.73 673.224 267.275 673.754 266.691 674.381L264.404 676.827V676.906H269.137V678H262.714ZM274.512 678.139C273.763 678.139 273.125 677.935 272.598 677.528C272.071 677.117 271.668 676.522 271.39 675.743C271.111 674.961 270.972 674.016 270.972 672.909C270.972 671.809 271.111 670.869 271.39 670.09C271.671 669.308 272.076 668.711 272.603 668.3C273.133 667.886 273.769 667.679 274.512 667.679C275.254 667.679 275.889 667.886 276.416 668.3C276.946 668.711 277.35 669.308 277.629 670.09C277.911 670.869 278.051 671.809 278.051 672.909C278.051 674.016 277.912 674.961 277.634 675.743C277.355 676.522 276.953 677.117 276.426 677.528C275.899 677.935 275.261 678.139 274.512 678.139ZM274.512 677.045C275.254 677.045 275.831 676.687 276.242 675.972C276.653 675.256 276.858 674.235 276.858 672.909C276.858 672.027 276.764 671.277 276.575 670.657C276.389 670.037 276.121 669.565 275.77 669.24C275.422 668.915 275.002 668.753 274.512 668.753C273.776 668.753 273.201 669.116 272.787 669.842C272.372 670.564 272.165 671.587 272.165 672.909C272.165 673.791 272.258 674.54 272.444 675.156C272.629 675.773 272.896 676.242 273.244 676.563C273.595 676.885 274.018 677.045 274.512 677.045ZM279.941 678V677.105L283.301 673.426C283.696 672.995 284.021 672.621 284.276 672.303C284.531 671.981 284.72 671.679 284.843 671.398C284.969 671.113 285.032 670.814 285.032 670.503C285.032 670.145 284.945 669.835 284.773 669.573C284.604 669.311 284.372 669.109 284.077 668.967C283.782 668.824 283.451 668.753 283.083 668.753C282.692 668.753 282.35 668.834 282.059 668.996C281.77 669.156 281.547 669.379 281.387 669.668C281.232 669.956 281.154 670.294 281.154 670.682H279.98C279.98 670.085 280.118 669.562 280.393 669.111C280.668 668.66 281.043 668.309 281.517 668.057C281.994 667.805 282.529 667.679 283.123 667.679C283.719 667.679 284.248 667.805 284.708 668.057C285.169 668.309 285.53 668.648 285.792 669.076C286.054 669.504 286.185 669.979 286.185 670.503C286.185 670.877 286.117 671.244 285.981 671.602C285.849 671.956 285.617 672.352 285.285 672.79C284.957 673.224 284.501 673.754 283.918 674.381L281.631 676.827V676.906H286.364V678H279.941ZM291.798 678.139C291.38 678.133 290.963 678.053 290.545 677.901C290.127 677.748 289.746 677.491 289.402 677.13C289.057 676.765 288.78 676.273 288.571 675.653C288.363 675.03 288.258 674.248 288.258 673.307C288.258 672.405 288.343 671.607 288.512 670.911C288.681 670.211 288.926 669.623 289.248 669.146C289.569 668.665 289.957 668.3 290.411 668.052C290.868 667.803 291.384 667.679 291.957 667.679C292.527 667.679 293.034 667.793 293.478 668.022C293.926 668.247 294.29 668.562 294.572 668.967C294.854 669.371 295.036 669.837 295.119 670.364H293.906C293.793 669.906 293.574 669.527 293.25 669.225C292.925 668.924 292.494 668.773 291.957 668.773C291.168 668.773 290.547 669.116 290.093 669.802C289.642 670.488 289.415 671.451 289.412 672.69H289.491C289.677 672.409 289.897 672.168 290.152 671.969C290.411 671.767 290.696 671.612 291.007 671.502C291.319 671.393 291.649 671.338 291.997 671.338C292.58 671.338 293.114 671.484 293.598 671.776C294.082 672.064 294.469 672.463 294.761 672.974C295.053 673.481 295.199 674.062 295.199 674.719C295.199 675.348 295.058 675.925 294.776 676.449C294.494 676.969 294.098 677.384 293.588 677.692C293.081 677.997 292.484 678.146 291.798 678.139ZM291.798 677.045C292.216 677.045 292.59 676.941 292.922 676.732C293.256 676.523 293.52 676.243 293.712 675.892C293.908 675.541 294.005 675.15 294.005 674.719C294.005 674.298 293.911 673.915 293.722 673.57C293.536 673.222 293.279 672.946 292.951 672.74C292.627 672.535 292.255 672.432 291.838 672.432C291.523 672.432 291.23 672.495 290.958 672.621C290.686 672.743 290.447 672.912 290.242 673.128C290.04 673.343 289.881 673.59 289.765 673.869C289.649 674.144 289.591 674.434 289.591 674.739C289.591 675.143 289.685 675.521 289.874 675.872C290.066 676.223 290.328 676.507 290.659 676.722C290.994 676.938 291.374 677.045 291.798 677.045Z" fill="#EDDEF1"/>
<rect x="17" y="740" width="359" height="55" rx="24" fill="#D492E6"/>
<path d="M110.017 773H107.381L111.398 761.364H114.568L118.58 773H115.943L113.028 764.023H112.938L110.017 773ZM109.852 768.426H116.08V770.347H109.852V768.426ZM119.935 764.273H122.355V773.432C122.355 774.106 122.223 774.652 121.957 775.068C121.692 775.485 121.312 775.79 120.815 775.983C120.323 776.176 119.734 776.273 119.048 776.273C118.965 776.273 118.885 776.271 118.81 776.267C118.73 776.267 118.647 776.265 118.56 776.261V774.369C118.624 774.373 118.681 774.375 118.73 774.375C118.776 774.379 118.825 774.381 118.878 774.381C119.268 774.381 119.541 774.297 119.696 774.131C119.855 773.968 119.935 773.722 119.935 773.392V764.273ZM121.139 763.148C120.783 763.148 120.476 763.028 120.219 762.79C119.961 762.547 119.832 762.258 119.832 761.92C119.832 761.587 119.961 761.301 120.219 761.062C120.476 760.82 120.783 760.699 121.139 760.699C121.503 760.699 121.812 760.82 122.065 761.062C122.323 761.301 122.452 761.587 122.452 761.92C122.452 762.258 122.323 762.547 122.065 762.79C121.812 763.028 121.503 763.148 121.139 763.148ZM128.237 773.17C127.355 773.17 126.591 772.983 125.947 772.608C125.307 772.229 124.813 771.703 124.464 771.028C124.116 770.35 123.942 769.564 123.942 768.67C123.942 767.769 124.116 766.981 124.464 766.307C124.813 765.629 125.307 765.102 125.947 764.727C126.591 764.348 127.355 764.159 128.237 764.159C129.12 764.159 129.881 764.348 130.521 764.727C131.165 765.102 131.661 765.629 132.01 766.307C132.358 766.981 132.533 767.769 132.533 768.67C132.533 769.564 132.358 770.35 132.01 771.028C131.661 771.703 131.165 772.229 130.521 772.608C129.881 772.983 129.12 773.17 128.237 773.17ZM128.249 771.295C128.65 771.295 128.985 771.182 129.254 770.955C129.523 770.723 129.726 770.409 129.862 770.011C130.002 769.614 130.072 769.161 130.072 768.653C130.072 768.146 130.002 767.693 129.862 767.295C129.726 766.898 129.523 766.583 129.254 766.352C128.985 766.121 128.65 766.006 128.249 766.006C127.843 766.006 127.502 766.121 127.226 766.352C126.953 766.583 126.747 766.898 126.607 767.295C126.47 767.693 126.402 768.146 126.402 768.653C126.402 769.161 126.47 769.614 126.607 770.011C126.747 770.409 126.953 770.723 127.226 770.955C127.502 771.182 127.843 771.295 128.249 771.295ZM139.703 769.284V764.273H142.124V773H139.8V771.415H139.709C139.512 771.926 139.184 772.337 138.726 772.648C138.271 772.958 137.716 773.114 137.061 773.114C136.478 773.114 135.964 772.981 135.521 772.716C135.078 772.451 134.732 772.074 134.482 771.585C134.235 771.097 134.11 770.511 134.107 769.83V764.273H136.527V769.398C136.531 769.913 136.669 770.32 136.942 770.619C137.214 770.919 137.58 771.068 138.038 771.068C138.33 771.068 138.603 771.002 138.857 770.869C139.11 770.733 139.315 770.532 139.47 770.267C139.629 770.002 139.707 769.674 139.703 769.284ZM148.702 764.273V766.091H143.446V764.273H148.702ZM144.639 762.182H147.06V770.318C147.06 770.542 147.094 770.716 147.162 770.841C147.23 770.962 147.325 771.047 147.446 771.097C147.571 771.146 147.715 771.17 147.878 771.17C147.991 771.17 148.105 771.161 148.219 771.142C148.332 771.119 148.42 771.102 148.48 771.091L148.861 772.892C148.74 772.93 148.569 772.973 148.349 773.023C148.13 773.076 147.863 773.108 147.548 773.119C146.965 773.142 146.454 773.064 146.014 772.886C145.579 772.708 145.24 772.432 144.997 772.057C144.755 771.682 144.635 771.208 144.639 770.636V762.182ZM154.162 773.17C153.264 773.17 152.491 772.989 151.844 772.625C151.2 772.258 150.704 771.739 150.355 771.068C150.007 770.394 149.832 769.597 149.832 768.676C149.832 767.778 150.007 766.991 150.355 766.312C150.704 765.634 151.194 765.106 151.827 764.727C152.463 764.348 153.209 764.159 154.065 764.159C154.641 764.159 155.177 764.252 155.673 764.438C156.173 764.619 156.609 764.894 156.98 765.261C157.355 765.629 157.647 766.091 157.855 766.648C158.063 767.201 158.168 767.848 158.168 768.591V769.256H150.798V767.756H155.889C155.889 767.407 155.813 767.098 155.662 766.83C155.51 766.561 155.3 766.35 155.031 766.199C154.766 766.044 154.457 765.966 154.105 765.966C153.738 765.966 153.412 766.051 153.128 766.222C152.848 766.388 152.628 766.614 152.469 766.898C152.31 767.178 152.228 767.491 152.224 767.835V769.261C152.224 769.693 152.304 770.066 152.463 770.381C152.626 770.695 152.855 770.938 153.151 771.108C153.446 771.278 153.796 771.364 154.202 771.364C154.471 771.364 154.717 771.326 154.94 771.25C155.164 771.174 155.355 771.061 155.514 770.909C155.673 770.758 155.795 770.572 155.878 770.352L158.116 770.5C158.003 771.038 157.77 771.508 157.418 771.909C157.069 772.307 156.618 772.617 156.065 772.841C155.516 773.061 154.882 773.17 154.162 773.17ZM159.747 773V764.273H162.094V765.795H162.185C162.344 765.254 162.611 764.845 162.986 764.568C163.361 764.288 163.793 764.148 164.281 764.148C164.402 764.148 164.533 764.155 164.673 764.17C164.813 764.186 164.937 764.206 165.043 764.233V766.381C164.929 766.347 164.772 766.316 164.571 766.29C164.37 766.263 164.187 766.25 164.02 766.25C163.664 766.25 163.346 766.328 163.065 766.483C162.789 766.634 162.569 766.847 162.406 767.119C162.247 767.392 162.168 767.706 162.168 768.062V773H159.747ZM172.486 773.165C171.929 773.165 171.433 773.068 170.997 772.875C170.562 772.678 170.217 772.388 169.963 772.006C169.713 771.619 169.588 771.138 169.588 770.562C169.588 770.078 169.677 769.67 169.855 769.341C170.033 769.011 170.276 768.746 170.582 768.545C170.889 768.345 171.238 768.193 171.628 768.091C172.022 767.989 172.435 767.917 172.866 767.875C173.374 767.822 173.783 767.773 174.094 767.727C174.404 767.678 174.63 767.606 174.77 767.511C174.91 767.417 174.98 767.277 174.98 767.091V767.057C174.98 766.697 174.866 766.419 174.639 766.222C174.416 766.025 174.098 765.926 173.685 765.926C173.249 765.926 172.902 766.023 172.645 766.216C172.387 766.405 172.217 766.644 172.134 766.932L169.895 766.75C170.009 766.22 170.232 765.761 170.565 765.375C170.899 764.985 171.329 764.686 171.855 764.477C172.385 764.265 172.999 764.159 173.696 764.159C174.181 764.159 174.645 764.216 175.088 764.33C175.535 764.443 175.931 764.619 176.276 764.858C176.624 765.097 176.899 765.403 177.099 765.778C177.3 766.15 177.401 766.595 177.401 767.114V773H175.105V771.79H175.037C174.897 772.062 174.709 772.303 174.474 772.511C174.24 772.716 173.957 772.877 173.628 772.994C173.298 773.108 172.918 773.165 172.486 773.165ZM173.179 771.494C173.535 771.494 173.849 771.424 174.122 771.284C174.395 771.14 174.609 770.947 174.764 770.705C174.92 770.462 174.997 770.187 174.997 769.881V768.955C174.921 769.004 174.817 769.049 174.685 769.091C174.556 769.129 174.41 769.165 174.247 769.199C174.084 769.229 173.921 769.258 173.759 769.284C173.596 769.307 173.448 769.328 173.315 769.347C173.031 769.388 172.783 769.455 172.571 769.545C172.359 769.636 172.194 769.759 172.077 769.915C171.959 770.066 171.901 770.256 171.901 770.483C171.901 770.812 172.02 771.064 172.259 771.239C172.501 771.409 172.808 771.494 173.179 771.494ZM172.946 763.148L171.213 760.562H173.446L174.656 763.148H172.946ZM182.982 773V764.273H185.288V765.812H185.391C185.572 765.301 185.875 764.898 186.3 764.602C186.724 764.307 187.232 764.159 187.822 764.159C188.421 764.159 188.93 764.309 189.351 764.608C189.771 764.903 190.052 765.305 190.192 765.812H190.283C190.461 765.312 190.783 764.913 191.249 764.614C191.718 764.311 192.273 764.159 192.913 764.159C193.728 764.159 194.389 764.419 194.896 764.938C195.408 765.453 195.663 766.184 195.663 767.131V773H193.249V767.608C193.249 767.123 193.12 766.759 192.862 766.517C192.605 766.275 192.283 766.153 191.896 766.153C191.457 766.153 191.114 766.294 190.868 766.574C190.622 766.85 190.499 767.216 190.499 767.67V773H188.152V767.557C188.152 767.129 188.029 766.788 187.783 766.534C187.54 766.28 187.22 766.153 186.822 766.153C186.554 766.153 186.311 766.222 186.095 766.358C185.883 766.491 185.714 766.678 185.589 766.92C185.464 767.159 185.402 767.439 185.402 767.761V773H182.982ZM200.064 773.165C199.507 773.165 199.011 773.068 198.575 772.875C198.14 772.678 197.795 772.388 197.541 772.006C197.291 771.619 197.166 771.138 197.166 770.562C197.166 770.078 197.255 769.67 197.433 769.341C197.611 769.011 197.854 768.746 198.161 768.545C198.467 768.345 198.816 768.193 199.206 768.091C199.6 767.989 200.013 767.917 200.445 767.875C200.952 767.822 201.361 767.773 201.672 767.727C201.982 767.678 202.208 767.606 202.348 767.511C202.488 767.417 202.558 767.277 202.558 767.091V767.057C202.558 766.697 202.445 766.419 202.217 766.222C201.994 766.025 201.676 765.926 201.263 765.926C200.827 765.926 200.481 766.023 200.223 766.216C199.965 766.405 199.795 766.644 199.712 766.932L197.473 766.75C197.587 766.22 197.81 765.761 198.143 765.375C198.477 764.985 198.907 764.686 199.433 764.477C199.964 764.265 200.577 764.159 201.274 764.159C201.759 764.159 202.223 764.216 202.666 764.33C203.113 764.443 203.509 764.619 203.854 764.858C204.202 765.097 204.477 765.403 204.678 765.778C204.878 766.15 204.979 766.595 204.979 767.114V773H202.683V771.79H202.615C202.475 772.062 202.287 772.303 202.053 772.511C201.818 772.716 201.536 772.877 201.206 772.994C200.876 773.108 200.496 773.165 200.064 773.165ZM200.757 771.494C201.113 771.494 201.428 771.424 201.7 771.284C201.973 771.14 202.187 770.947 202.342 770.705C202.498 770.462 202.575 770.187 202.575 769.881V768.955C202.5 769.004 202.395 769.049 202.263 769.091C202.134 769.129 201.988 769.165 201.825 769.199C201.662 769.229 201.5 769.258 201.337 769.284C201.174 769.307 201.026 769.328 200.893 769.347C200.609 769.388 200.361 769.455 200.149 769.545C199.937 769.636 199.772 769.759 199.655 769.915C199.537 770.066 199.479 770.256 199.479 770.483C199.479 770.812 199.598 771.064 199.837 771.239C200.079 771.409 200.386 771.494 200.757 771.494ZM214.503 773.17C213.609 773.17 212.84 772.981 212.196 772.602C211.556 772.22 211.063 771.689 210.719 771.011C210.378 770.333 210.207 769.553 210.207 768.67C210.207 767.777 210.38 766.992 210.724 766.318C211.073 765.64 211.567 765.112 212.207 764.733C212.848 764.35 213.609 764.159 214.491 764.159C215.253 764.159 215.92 764.297 216.491 764.574C217.063 764.85 217.516 765.239 217.849 765.739C218.183 766.239 218.366 766.826 218.401 767.5H216.116C216.052 767.064 215.882 766.714 215.605 766.449C215.332 766.18 214.974 766.045 214.531 766.045C214.156 766.045 213.829 766.148 213.548 766.352C213.272 766.553 213.056 766.847 212.901 767.233C212.745 767.619 212.668 768.087 212.668 768.636C212.668 769.193 212.743 769.667 212.895 770.057C213.05 770.447 213.268 770.744 213.548 770.949C213.829 771.153 214.156 771.256 214.531 771.256C214.808 771.256 215.056 771.199 215.276 771.085C215.499 770.972 215.683 770.807 215.827 770.591C215.974 770.371 216.071 770.108 216.116 769.801H218.401C218.363 770.468 218.181 771.055 217.855 771.562C217.533 772.066 217.088 772.46 216.52 772.744C215.952 773.028 215.279 773.17 214.503 773.17ZM223.893 773.17C223.011 773.17 222.248 772.983 221.604 772.608C220.964 772.229 220.469 771.703 220.121 771.028C219.772 770.35 219.598 769.564 219.598 768.67C219.598 767.769 219.772 766.981 220.121 766.307C220.469 765.629 220.964 765.102 221.604 764.727C222.248 764.348 223.011 764.159 223.893 764.159C224.776 764.159 225.537 764.348 226.178 764.727C226.821 765.102 227.318 765.629 227.666 766.307C228.015 766.981 228.189 767.769 228.189 768.67C228.189 769.564 228.015 770.35 227.666 771.028C227.318 771.703 226.821 772.229 226.178 772.608C225.537 772.983 224.776 773.17 223.893 773.17ZM223.905 771.295C224.306 771.295 224.642 771.182 224.911 770.955C225.179 770.723 225.382 770.409 225.518 770.011C225.659 769.614 225.729 769.161 225.729 768.653C225.729 768.146 225.659 767.693 225.518 767.295C225.382 766.898 225.179 766.583 224.911 766.352C224.642 766.121 224.306 766.006 223.905 766.006C223.5 766.006 223.159 766.121 222.882 766.352C222.609 766.583 222.403 766.898 222.263 767.295C222.126 767.693 222.058 768.146 222.058 768.653C222.058 769.161 222.126 769.614 222.263 770.011C222.403 770.409 222.609 770.723 222.882 770.955C223.159 771.182 223.5 771.295 223.905 771.295ZM232.183 761.364V773H229.763V761.364H232.183ZM236.543 761.364V773H234.122V761.364H236.543ZM242.459 773.17C241.561 773.17 240.788 772.989 240.141 772.625C239.497 772.258 239 771.739 238.652 771.068C238.304 770.394 238.129 769.597 238.129 768.676C238.129 767.778 238.304 766.991 238.652 766.312C239 765.634 239.491 765.106 240.124 764.727C240.76 764.348 241.506 764.159 242.362 764.159C242.938 764.159 243.474 764.252 243.97 764.438C244.47 764.619 244.906 764.894 245.277 765.261C245.652 765.629 245.944 766.091 246.152 766.648C246.36 767.201 246.464 767.848 246.464 768.591V769.256H239.095V767.756H244.186C244.186 767.407 244.11 767.098 243.959 766.83C243.807 766.561 243.597 766.35 243.328 766.199C243.063 766.044 242.754 765.966 242.402 765.966C242.035 765.966 241.709 766.051 241.425 766.222C241.144 766.388 240.925 766.614 240.766 766.898C240.607 767.178 240.525 767.491 240.521 767.835V769.261C240.521 769.693 240.601 770.066 240.76 770.381C240.923 770.695 241.152 770.938 241.447 771.108C241.743 771.278 242.093 771.364 242.499 771.364C242.768 771.364 243.014 771.326 243.237 771.25C243.461 771.174 243.652 771.061 243.811 770.909C243.97 770.758 244.091 770.572 244.175 770.352L246.413 770.5C246.3 771.038 246.067 771.508 245.714 771.909C245.366 772.307 244.915 772.617 244.362 772.841C243.813 773.061 243.179 773.17 242.459 773.17ZM251.987 773.17C251.093 773.17 250.324 772.981 249.68 772.602C249.04 772.22 248.548 771.689 248.203 771.011C247.862 770.333 247.692 769.553 247.692 768.67C247.692 767.777 247.864 766.992 248.209 766.318C248.557 765.64 249.052 765.112 249.692 764.733C250.332 764.35 251.093 764.159 251.976 764.159C252.737 764.159 253.404 764.297 253.976 764.574C254.548 764.85 255 765.239 255.334 765.739C255.667 766.239 255.851 766.826 255.885 767.5H253.601C253.536 767.064 253.366 766.714 253.089 766.449C252.817 766.18 252.459 766.045 252.016 766.045C251.641 766.045 251.313 766.148 251.033 766.352C250.756 766.553 250.54 766.847 250.385 767.233C250.23 767.619 250.152 768.087 250.152 768.636C250.152 769.193 250.228 769.667 250.379 770.057C250.535 770.447 250.752 770.744 251.033 770.949C251.313 771.153 251.641 771.256 252.016 771.256C252.292 771.256 252.54 771.199 252.76 771.085C252.983 770.972 253.167 770.807 253.311 770.591C253.459 770.371 253.555 770.108 253.601 769.801H255.885C255.847 770.468 255.665 771.055 255.339 771.562C255.018 772.066 254.572 772.46 254.004 772.744C253.436 773.028 252.764 773.17 251.987 773.17ZM262.077 764.273V766.091H256.821V764.273H262.077ZM258.014 762.182H260.435V770.318C260.435 770.542 260.469 770.716 260.537 770.841C260.605 770.962 260.7 771.047 260.821 771.097C260.946 771.146 261.09 771.17 261.253 771.17C261.366 771.17 261.48 771.161 261.594 771.142C261.707 771.119 261.795 771.102 261.855 771.091L262.236 772.892C262.115 772.93 261.944 772.973 261.724 773.023C261.505 773.076 261.238 773.108 260.923 773.119C260.34 773.142 259.829 773.064 259.389 772.886C258.954 772.708 258.615 772.432 258.372 772.057C258.13 771.682 258.01 771.208 258.014 770.636V762.182ZM263.653 773V764.273H266.074V773H263.653ZM264.869 763.148C264.509 763.148 264.201 763.028 263.943 762.79C263.689 762.547 263.562 762.258 263.562 761.92C263.562 761.587 263.689 761.301 263.943 761.062C264.201 760.82 264.509 760.699 264.869 760.699C265.229 760.699 265.536 760.82 265.79 761.062C266.047 761.301 266.176 761.587 266.176 761.92C266.176 762.258 266.047 762.547 265.79 762.79C265.536 763.028 265.229 763.148 264.869 763.148ZM271.956 773.17C271.073 773.17 270.31 772.983 269.666 772.608C269.026 772.229 268.532 771.703 268.183 771.028C267.835 770.35 267.661 769.564 267.661 768.67C267.661 767.769 267.835 766.981 268.183 766.307C268.532 765.629 269.026 765.102 269.666 764.727C270.31 764.348 271.073 764.159 271.956 764.159C272.839 764.159 273.6 764.348 274.24 764.727C274.884 765.102 275.38 765.629 275.729 766.307C276.077 766.981 276.251 767.769 276.251 768.67C276.251 769.564 276.077 770.35 275.729 771.028C275.38 771.703 274.884 772.229 274.24 772.608C273.6 772.983 272.839 773.17 271.956 773.17ZM271.967 771.295C272.369 771.295 272.704 771.182 272.973 770.955C273.242 770.723 273.445 770.409 273.581 770.011C273.721 769.614 273.791 769.161 273.791 768.653C273.791 768.146 273.721 767.693 273.581 767.295C273.445 766.898 273.242 766.583 272.973 766.352C272.704 766.121 272.369 766.006 271.967 766.006C271.562 766.006 271.221 766.121 270.945 766.352C270.672 766.583 270.465 766.898 270.325 767.295C270.189 767.693 270.121 768.146 270.121 768.653C270.121 769.161 270.189 769.614 270.325 770.011C270.465 770.409 270.672 770.723 270.945 770.955C271.221 771.182 271.562 771.295 271.967 771.295ZM280.246 767.955V773H277.825V764.273H280.132V765.812H280.234C280.428 765.305 280.751 764.903 281.206 764.608C281.661 764.309 282.212 764.159 282.859 764.159C283.465 764.159 283.994 764.292 284.445 764.557C284.895 764.822 285.246 765.201 285.496 765.693C285.746 766.182 285.871 766.765 285.871 767.443V773H283.45V767.875C283.454 767.341 283.318 766.924 283.041 766.625C282.765 766.322 282.384 766.17 281.899 766.17C281.573 766.17 281.286 766.241 281.036 766.381C280.789 766.521 280.596 766.725 280.456 766.994C280.32 767.259 280.25 767.58 280.246 767.955Z" fill="#EDDEF1"/>
<circle cx="307.5" cy="630.5" r="12.5" fill="#D492E6"/>
</svg>
